<svg xmlns="http://www.w3.org/2000/svg" width="19.999" height="19.999" viewBox="0 0 19.999 19.999">
  <g id="Group_171" data-name="Group 171" transform="translate(-111.396 -177.932)">
    <circle id="Ellipse_25" data-name="Ellipse 25" cx="7.945" cy="7.945" r="7.945" transform="matrix(0.307, -0.952, 0.952, 0.307, 111.396, 193.057)" fill="#24d37d"/>
    <path id="Path_398" data-name="Path 398" d="M367.767,326.4c.3-.023.573.307.61.743s-.179.806-.48.831-.575-.307-.61-.741S367.467,326.422,367.767,326.4Z" transform="translate(-249.118 -140.474)" fill="#263238"/>
    <path id="Path_399" data-name="Path 399" d="M389.145,326c-.3-.014-.561.331-.578.766s.212.8.512.81.561-.331.58-.766S389.447,326,389.145,326Z" transform="translate(-265.445 -140.169)" fill="#263238"/>
    <path id="Path_400" data-name="Path 400" d="M372.974,337.135c.014.014-.051.1-.179.233a4.528,4.528,0,0,1-.6.538,4.245,4.245,0,0,1-1.05.575,3.7,3.7,0,0,1-1.458.233,4.252,4.252,0,0,1-1.432-.331,6.116,6.116,0,0,1-1.055-.552,3.193,3.193,0,0,1-.845-.7,9.185,9.185,0,0,1,.931.54,7.389,7.389,0,0,0,1.046.491,4.455,4.455,0,0,0,1.362.3,3.744,3.744,0,0,0,1.369-.2,4.743,4.743,0,0,0,1.027-.5c.27-.186.489-.342.631-.466S372.962,337.123,372.974,337.135Z" transform="translate(-248.407 -148.709)" fill="#263238"/>
    <path id="Path_401" data-name="Path 401" d="M365.338,318.234c-.014.07-.394.044-.845.116s-.806.21-.841.147.3-.314.8-.391S365.361,318.169,365.338,318.234Z" transform="translate(-246.33 -134.098)" fill="#263238"/>
    <path id="Path_402" data-name="Path 402" d="M392.854,318.34c-.044.056-.38-.144-.831-.279s-.841-.163-.843-.233.417-.158.918,0S392.9,318.292,392.854,318.34Z" transform="translate(-267.45 -133.834)" fill="#263238"/>
    <path id="Path_403" data-name="Path 403" d="M364.3,334.7c.03,0,.081.077.088.233a.908.908,0,0,1-.172.55.9.9,0,0,1-.466.345c-.144.042-.233.021-.245,0,0-.07.293-.172.5-.48S364.234,334.712,364.3,334.7Z" transform="translate(-246.223 -146.845)" fill="#263238"/>
    <path id="Path_404" data-name="Path 404" d="M394.649,335.715c0,.03-.061.079-.184.088a.718.718,0,0,1-.72-.533c-.026-.121,0-.2.033-.2.07,0,.149.233.382.394S394.633,335.645,394.649,335.715Z" transform="translate(-269.41 -147.129)" fill="#263238"/>
  </g>
</svg>
