<svg id="Component_66_4" data-name="Component 66 – 4" xmlns="http://www.w3.org/2000/svg" width="21.705" height="21.705" viewBox="0 0 21.705 21.705">
  <circle id="Ellipse_21" data-name="Ellipse 21" cx="7.835" cy="7.835" r="7.835" transform="matrix(0.55, -0.835, 0.835, 0.55, 0, 13.09)" fill="#24d37d"/>
  <path id="Path_462" data-name="Path 462" d="M7.835,0A7.835,7.835,0,1,1,0,7.835,7.835,7.835,0,0,1,7.835,0Z" transform="translate(3.017 3.018)" fill="#d9c73c"/>
  <path id="Path_381" data-name="Path 381" d="M278.956,336.737c.295-.025.564.313.6.734s-.179.793-.477.818-.564-.314-.6-.731S278.67,336.762,278.956,336.737Z" transform="translate(-270.819 -327.851)" fill="#263238"/>
  <path id="Path_382" data-name="Path 382" d="M294.668,336.41c-.295,0-.552.314-.571.759s.21.787.508.8.555-.314.571-.756S294.966,336.423,294.668,336.41Z" transform="translate(-281.54 -327.627)" fill="#263238"/>
  <path id="Path_383" data-name="Path 383" d="M284.365,347.629a32.108,32.108,0,0,1-6.525,0,16.1,16.1,0,0,1,3.264-.169A15.529,15.529,0,0,1,284.365,347.629Z" transform="translate(-270.381 -335.213)" fill="#263238"/>
  <path id="Path_384" data-name="Path 384" d="M278.345,333.453c-.019.094-.392.091-.828.16s-.79.182-.837.1.282-.351.787-.43S278.345,333.366,278.345,333.453Z" transform="translate(-269.581 -325.466)" fill="#263238"/>
  <path id="Path_385" data-name="Path 385" d="M296.812,333.7c-.056.075-.4-.1-.831-.232s-.812-.179-.821-.276.417-.2.919-.044S296.872,333.629,296.812,333.7Z" transform="translate(-282.27 -325.329)" fill="#263238"/>
</svg>
