<svg xmlns="http://www.w3.org/2000/svg" width="32.753" height="34.861" viewBox="0 0 32.753 34.861">
  <path id="Path_104" data-name="Path 104" d="M32.121,0A4.981,4.981,0,0,0,29.3.849a1.058,1.058,0,0,0-.366,1.213L29.3,3.074a1.058,1.058,0,0,0,1.653.466,1.608,1.608,0,0,1,.885-.268c.409.008.409.114.409.323,0,.367-.221.775-.845,1.558A4.736,4.736,0,0,0,30.222,8.67l.03.4a1.058,1.058,0,0,0,1.055.98h1.2a1.058,1.058,0,0,0,1.057-1.1l-.015-.4V8.533a2.232,2.232,0,0,1,.642-1.653,5.343,5.343,0,0,0,1.556-3.461A3.372,3.372,0,0,0,32.121,0Zm1.244,6.215a3.293,3.293,0,0,0-.876,2.378l.015.4h-1.2l-.031-.418a3.758,3.758,0,0,1,.952-2.763A3.667,3.667,0,0,0,33.3,3.6a1.31,1.31,0,0,0-1.459-1.382,2.647,2.647,0,0,0-1.551.5L29.924,1.7a3.936,3.936,0,0,1,2.2-.643,2.314,2.314,0,0,1,2.565,2.362,4.39,4.39,0,0,1-1.321,2.8Zm-1.32,4.9a1.575,1.575,0,1,0,1.125.464,1.587,1.587,0,0,0-1.125-.464Zm-.009,2.116h-.009a.506.506,0,0,1-.516-.525.512.512,0,0,1,.534-.533.529.529,0,0,1-.009,1.058ZM25.162,1.4a1.664,1.664,0,0,0-1.852,1.551V9.712l-1.491,0A3.968,3.968,0,1,0,16.855,9.7H15.64a4.277,4.277,0,0,0-4.163,3.445.523.523,0,0,0-.07.259V13.7c0,.058-.011.116-.013.174a1.054,1.054,0,0,0,.013.175v6.9a1.779,1.779,0,0,0,1.719,1.713l-.009,1.055a1.048,1.048,0,0,0,.935,1.055v6.978a2.116,2.116,0,1,0,4.233,0V24.778h1.058v6.966a2.116,2.116,0,1,0,4.233,0v-7a1.056,1.056,0,0,0,.794-1.021V15.639a.8.8,0,0,1,.311-.63l1.2-.916a2.927,2.927,0,0,0,1.139-2.309V2.953A1.664,1.664,0,0,0,25.162,1.4Zm-8.73,5.211a2.91,2.91,0,1,1,2.91,2.91,2.91,2.91,0,0,1-2.91-2.91Zm.794,25.131a1.058,1.058,0,1,1-2.116,0V24.778h2.116Zm5.291,0a1.058,1.058,0,1,1-2.116,0V24.778h2.116Zm3.439-19.96a1.852,1.852,0,0,1-.725,1.47l-1.2.916a1.852,1.852,0,0,0-.725,1.47v8.081H14.174l.011-1.292a1.7,1.7,0,0,0,.924-1.486V16.313a.529.529,0,0,0-1.058,0v4.629a.807.807,0,0,1-1.587,0V13.985l.076.084-.076-.137v-.217a3.213,3.213,0,0,1,3.175-2.957s5.776,0,7.934.014h0a.792.792,0,0,0,.792-.794V2.953c0-.329.4-.493.794-.493s.794.164.794.493ZM11.784,8.775l-.466-2.2,1.546-.755A2.16,2.16,0,0,0,13.9,3.1l-.691-1.76A2.074,2.074,0,0,0,11.278,0a2.032,2.032,0,0,0-.724.134l-5.2,1.975A2.088,2.088,0,0,0,4.185,3.227,2.194,2.194,0,0,0,4.15,4.906l.876,2.232A2.075,2.075,0,0,0,6.959,8.475a2.025,2.025,0,0,0,.9-.208l.111-.054L10.11,9.837a1.058,1.058,0,0,0,1.674-1.063ZM10.112,5.987l.637,3.007L8.086,6.976l-.7.34a.979.979,0,0,1-.431.1,1.025,1.025,0,0,1-.948-.666L5.135,4.519a1.093,1.093,0,0,1,.6-1.422l5.2-1.975a.979.979,0,0,1,.348-.064,1.025,1.025,0,0,1,.947.666l.691,1.76A1.1,1.1,0,0,1,12.4,4.87Z" transform="translate(-3.491 0.501)" fill="#b5bad0" stroke="#b5bad0" stroke-width="1"/>
</svg>
