<svg xmlns="http://www.w3.org/2000/svg" xmlns:xlink="http://www.w3.org/1999/xlink" width="1366" height="690" viewBox="0 0 1366 690">
  <defs>
    <clipPath id="clip-path">
      <rect id="Rectangle_186" data-name="Rectangle 186" width="1366" height="690" transform="translate(0 78)" fill="#fff" stroke="#707070" stroke-width="1"/>
    </clipPath>
  </defs>
  <g id="Group_161" data-name="Group 161" transform="translate(0 -78)">
    <g id="Group_160" data-name="Group 160">
      <g id="Mask_Group_3" data-name="Mask Group 3" clip-path="url(#clip-path)">
        <g id="Group_114" data-name="Group 114" transform="translate(665.69 -94.129) rotate(90)">
          <g id="Group_145" data-name="Group 145" transform="translate(274.606 65.28)">
            <path id="Path_111" data-name="Path 111" d="M364.23,372.827a231.306,231.306,0,0,1-104.9-25.112l.655-1.282A228.169,228.169,0,0,0,527.059,302.7c4.762-4.876,9.408-10.072,13.9-15.1,10.61-11.871,21.581-24.145,34.984-33.192,25.8-17.413,61.412-22.789,97.724-14.75,34.732,7.688,65.69,25.726,91.394,42.359l-.781,1.208c-25.6-16.561-56.415-34.523-90.927-42.161-35.927-7.955-71.138-2.656-96.606,14.537-13.255,8.947-24.166,21.154-34.714,32.958-4.505,5.038-9.161,10.245-13.941,15.144a231.218,231.218,0,0,1-127.152,66.151,227.229,227.229,0,0,1-36.709,2.971" transform="translate(118.454 -1119.25)" fill="#004443"/>
            <g id="Group_150" data-name="Group 150" transform="translate(345.891 -1009.927)">
              <path id="Path_112" data-name="Path 112" d="M307.989,307.468A60.107,60.107,0,1,1,368.1,247.361a60.174,60.174,0,0,1-60.108,60.108m0-118.774a58.667,58.667,0,1,0,58.666,58.666,58.732,58.732,0,0,0-58.666-58.666" transform="translate(-307.989 87.092)" fill="#ffa139"/>
              <path id="Path_113" data-name="Path 113" d="M301.992,290.675A49.309,49.309,0,1,1,351.3,241.365a49.366,49.366,0,0,1-49.309,49.309m0-97.179a47.869,47.869,0,1,0,47.87,47.87,47.924,47.924,0,0,0-47.87-47.87" transform="translate(-301.992 93.09)" fill="#ffa139"/>
              <path id="Path_114" data-name="Path 114" d="M295.995,273.879a38.511,38.511,0,1,1,38.511-38.511,38.555,38.555,0,0,1-38.511,38.511m0-75.582a37.071,37.071,0,1,0,37.071,37.071A37.114,37.114,0,0,0,295.995,198.3" transform="translate(-295.995 99.087)" fill="#ffa139"/>
              <path id="Path_115" data-name="Path 115" d="M290,257.084a27.714,27.714,0,1,1,27.715-27.712A27.745,27.745,0,0,1,290,257.084m0-53.988a26.274,26.274,0,1,0,26.273,26.275A26.3,26.3,0,0,0,290,203.1" transform="translate(-289.999 105.083)" fill="#ffa139"/>
              <path id="Path_116" data-name="Path 116" d="M284,240.291a16.916,16.916,0,1,1,16.916-16.916A16.936,16.936,0,0,1,284,240.291m0-32.393a15.477,15.477,0,1,0,15.477,15.477A15.495,15.495,0,0,0,284,207.9" transform="translate(-284.001 111.081)" fill="#ffa139"/>
              <path id="Path_117" data-name="Path 117" d="M278,223.5a6.119,6.119,0,1,1,6.118-6.12A6.126,6.126,0,0,1,278,223.5m0-10.8a4.678,4.678,0,1,0,4.678,4.678A4.683,4.683,0,0,0,278,212.7" transform="translate(-278.004 117.077)" fill="#ffa139"/>
            </g>
            <path id="Path_118" data-name="Path 118" d="M322.448,268.051a6.479,6.479,0,1,1-6.478-6.478,6.477,6.477,0,0,1,6.478,6.478" transform="translate(-231.029 179.931)" fill="#b6effe"/>
            <path id="Path_120" data-name="Path 120" d="M483.62,186.111A27.224,27.224,0,1,1,456.4,158.887a27.224,27.224,0,0,1,27.224,27.224" transform="translate(82.253 363.833)" fill="#ffa139"/>
            <g id="Group_153" data-name="Group 153" transform="translate(-62 1155.144)">
              <g id="Group_147" data-name="Group 147" transform="translate(-295.007 -993.143)">
                <path id="Path_121" data-name="Path 121" d="M550.661,205.335c-3.907,0-5.866-1.541-7.762-3.034-1.781-1.4-3.464-2.724-6.871-2.724s-5.092,1.325-6.871,2.724c-1.9,1.493-3.855,3.034-7.762,3.034s-5.866-1.541-7.762-3.034c-1.779-1.4-3.462-2.724-6.869-2.724s-5.092,1.325-6.871,2.724c-1.9,1.493-3.853,3.034-7.76,3.034s-5.868-1.541-7.762-3.034c-1.779-1.4-3.462-2.724-6.871-2.724s-5.09,1.325-6.869,2.724c-1.894,1.493-3.853,3.034-7.762,3.034s-5.864-1.541-7.76-3.034c-1.779-1.4-3.462-2.724-6.869-2.724s-5.088,1.325-6.869,2.724c-1.894,1.493-3.853,3.034-7.76,3.034s-5.864-1.541-7.758-3.034c-1.781-1.4-3.462-2.724-6.869-2.724a.72.72,0,1,1,0-1.44c3.907,0,5.864,1.541,7.76,3.034,1.779,1.4,3.459,2.724,6.867,2.724s5.09-1.323,6.869-2.724c1.894-1.493,3.853-3.034,7.76-3.034s5.866,1.541,7.76,3.034c1.781,1.4,3.462,2.724,6.869,2.724s5.09-1.323,6.871-2.724c1.894-1.493,3.853-3.034,7.76-3.034s5.868,1.541,7.762,3.034c1.781,1.4,3.462,2.724,6.871,2.724s5.088-1.323,6.869-2.724c1.894-1.493,3.853-3.034,7.762-3.034s5.866,1.541,7.76,3.034c1.781,1.4,3.462,2.724,6.871,2.724s5.09-1.323,6.871-2.724c1.894-1.493,3.855-3.034,7.762-3.034s5.866,1.541,7.762,3.034c1.781,1.4,3.462,2.724,6.871,2.724a.72.72,0,1,1,0,1.439" transform="translate(-95.147 100.686)" fill="#b6edd2"/>
                <path id="Path_122" data-name="Path 122" d="M550.661,208.725c-3.907,0-5.866-1.543-7.762-3.034-1.781-1.4-3.464-2.724-6.871-2.724s-5.092,1.323-6.871,2.724c-1.9,1.491-3.855,3.034-7.762,3.034s-5.866-1.543-7.762-3.034c-1.779-1.4-3.462-2.724-6.869-2.724s-5.092,1.323-6.871,2.724c-1.9,1.491-3.853,3.034-7.76,3.034s-5.868-1.543-7.762-3.034c-1.779-1.4-3.462-2.724-6.871-2.724s-5.09,1.323-6.869,2.724c-1.894,1.491-3.853,3.034-7.762,3.034s-5.864-1.543-7.76-3.034c-1.779-1.4-3.462-2.724-6.869-2.724s-5.088,1.323-6.869,2.724c-1.894,1.491-3.853,3.034-7.76,3.034s-5.864-1.543-7.758-3.034c-1.781-1.4-3.462-2.724-6.869-2.724a.72.72,0,1,1,0-1.44c3.907,0,5.864,1.541,7.76,3.032,1.779,1.4,3.459,2.726,6.867,2.726s5.09-1.325,6.869-2.726c1.894-1.491,3.853-3.032,7.76-3.032s5.866,1.541,7.76,3.032c1.781,1.4,3.462,2.726,6.869,2.726s5.09-1.325,6.871-2.726c1.894-1.491,3.853-3.032,7.76-3.032s5.868,1.541,7.762,3.032c1.781,1.4,3.462,2.726,6.871,2.726s5.088-1.325,6.869-2.726c1.894-1.491,3.853-3.032,7.762-3.032s5.866,1.541,7.76,3.032c1.781,1.4,3.462,2.726,6.871,2.726s5.09-1.325,6.871-2.726c1.894-1.491,3.855-3.032,7.762-3.032s5.866,1.541,7.762,3.032c1.781,1.4,3.462,2.726,6.871,2.726a.72.72,0,1,1,0,1.44" transform="translate(-95.147 104.921)" fill="#b6edd2"/>
                <path id="Path_123" data-name="Path 123" d="M550.661,212.113c-3.907,0-5.866-1.543-7.762-3.034-1.781-1.4-3.464-2.724-6.871-2.724s-5.092,1.323-6.871,2.724c-1.9,1.491-3.855,3.034-7.762,3.034s-5.866-1.543-7.762-3.034c-1.779-1.4-3.462-2.724-6.869-2.724s-5.092,1.323-6.871,2.724c-1.9,1.491-3.853,3.034-7.76,3.034s-5.868-1.543-7.762-3.034c-1.779-1.4-3.462-2.724-6.871-2.724s-5.09,1.323-6.869,2.724c-1.894,1.491-3.853,3.034-7.762,3.034s-5.864-1.543-7.76-3.034c-1.779-1.4-3.462-2.724-6.869-2.724s-5.088,1.323-6.869,2.724c-1.894,1.491-3.853,3.034-7.76,3.034s-5.864-1.543-7.758-3.034c-1.781-1.4-3.462-2.724-6.869-2.724a.72.72,0,1,1,0-1.439c3.907,0,5.864,1.541,7.76,3.032,1.779,1.4,3.459,2.726,6.867,2.726s5.09-1.325,6.869-2.726c1.894-1.491,3.853-3.032,7.76-3.032s5.866,1.541,7.76,3.032c1.781,1.4,3.462,2.726,6.869,2.726s5.09-1.325,6.871-2.726c1.894-1.491,3.853-3.032,7.76-3.032s5.868,1.541,7.762,3.032c1.781,1.4,3.462,2.726,6.871,2.726s5.088-1.325,6.869-2.726c1.894-1.491,3.853-3.032,7.762-3.032s5.866,1.541,7.76,3.032c1.781,1.4,3.462,2.726,6.871,2.726s5.09-1.325,6.871-2.726c1.894-1.491,3.855-3.032,7.762-3.032s5.866,1.541,7.762,3.032c1.781,1.4,3.462,2.726,6.871,2.726a.72.72,0,1,1,0,1.439" transform="translate(-95.147 109.154)" fill="#b6edd2"/>
                <path id="Path_124" data-name="Path 124" d="M550.661,215.5c-3.907,0-5.866-1.543-7.762-3.034-1.781-1.4-3.464-2.724-6.871-2.724s-5.092,1.323-6.871,2.724c-1.9,1.491-3.855,3.034-7.762,3.034s-5.866-1.543-7.762-3.034c-1.779-1.4-3.462-2.724-6.869-2.724s-5.092,1.323-6.871,2.724c-1.9,1.491-3.853,3.034-7.76,3.034s-5.868-1.543-7.762-3.034c-1.779-1.4-3.462-2.724-6.871-2.724s-5.09,1.323-6.869,2.724c-1.894,1.491-3.853,3.034-7.762,3.034s-5.864-1.543-7.76-3.034c-1.779-1.4-3.462-2.724-6.869-2.724s-5.088,1.323-6.869,2.724c-1.894,1.491-3.853,3.034-7.76,3.034s-5.864-1.543-7.758-3.034c-1.781-1.4-3.462-2.724-6.869-2.724a.72.72,0,1,1,0-1.439c3.907,0,5.864,1.541,7.76,3.032,1.779,1.4,3.459,2.726,6.867,2.726s5.09-1.325,6.869-2.726c1.894-1.491,3.853-3.032,7.76-3.032s5.866,1.541,7.76,3.032c1.781,1.4,3.462,2.726,6.869,2.726s5.09-1.325,6.871-2.726c1.894-1.491,3.853-3.032,7.76-3.032s5.868,1.541,7.762,3.032c1.781,1.4,3.462,2.726,6.871,2.726s5.088-1.325,6.869-2.726c1.894-1.491,3.853-3.032,7.762-3.032s5.866,1.541,7.76,3.032c1.781,1.4,3.462,2.726,6.871,2.726s5.09-1.325,6.871-2.726c1.894-1.491,3.855-3.032,7.762-3.032s5.866,1.541,7.762,3.032c1.781,1.4,3.462,2.726,6.871,2.726a.72.72,0,1,1,0,1.439" transform="translate(-95.147 113.389)" fill="#b6edd2"/>
                <path id="Path_125" data-name="Path 125" d="M550.661,218.892c-3.907,0-5.866-1.543-7.762-3.034-1.781-1.4-3.464-2.724-6.871-2.724s-5.092,1.323-6.871,2.724c-1.9,1.491-3.855,3.034-7.762,3.034s-5.866-1.543-7.762-3.034c-1.779-1.4-3.462-2.724-6.869-2.724s-5.092,1.323-6.871,2.724c-1.9,1.491-3.853,3.034-7.76,3.034s-5.868-1.543-7.762-3.034c-1.779-1.4-3.462-2.724-6.871-2.724s-5.09,1.323-6.869,2.724c-1.894,1.491-3.853,3.034-7.762,3.034s-5.864-1.543-7.76-3.034c-1.779-1.4-3.462-2.724-6.869-2.724s-5.088,1.323-6.869,2.724c-1.894,1.491-3.853,3.034-7.76,3.034s-5.864-1.543-7.758-3.034c-1.781-1.4-3.462-2.724-6.869-2.724a.72.72,0,1,1,0-1.439c3.907,0,5.864,1.541,7.76,3.032,1.779,1.4,3.459,2.726,6.867,2.726s5.09-1.325,6.869-2.726c1.894-1.491,3.853-3.032,7.76-3.032s5.866,1.541,7.76,3.032c1.781,1.4,3.462,2.726,6.869,2.726s5.09-1.325,6.871-2.726c1.894-1.491,3.853-3.032,7.76-3.032s5.868,1.541,7.762,3.032c1.781,1.4,3.462,2.726,6.871,2.726s5.088-1.325,6.869-2.726c1.894-1.491,3.853-3.032,7.762-3.032s5.866,1.541,7.76,3.032c1.781,1.4,3.462,2.726,6.871,2.726s5.09-1.325,6.871-2.726c1.894-1.491,3.855-3.032,7.762-3.032s5.866,1.541,7.762,3.032c1.781,1.4,3.462,2.726,6.871,2.726a.72.72,0,1,1,0,1.439" transform="translate(-95.147 117.623)" fill="#b6edd2"/>
              </g>
              <path id="Path_126" data-name="Path 126" d="M518.531,179.452H357.472V129.029H518.531Zm-159.617-1.439H517.092V130.469H358.914Z" transform="translate(-343.334 -829.714)" fill="#007a7a"/>
            </g>
            <path id="Path_133" data-name="Path 133" d="M371.924,271.518l-.254-10.074c.4-.011.787-.031,1.176-.058l.749,10.049c-.553.04-1.111.07-1.671.083m-8.315-.816c-.549-.124-1.093-.263-1.631-.414l2.719-9.7q.563.159,1.134.286Zm18.187-.924-3.21-9.552c.371-.126.738-.259,1.1-.4l3.693,9.379q-.783.307-1.581.576m-27.533-2.733q-.729-.418-1.433-.875l5.463-8.468q.493.321,1,.614Zm36.455-1.856-5.9-8.171c.317-.229.632-.468.938-.713l6.291,7.875q-.655.52-1.332,1.01m-44.3-4.386q-.574-.614-1.113-1.257l7.71-6.489c.252.3.511.594.778.879Zm51.46-2.609-8.027-6.091c.236-.31.466-.63.686-.954l8.322,5.684q-.472.692-.981,1.361m-57.123-5.659q-.364-.752-.693-1.525l9.278-3.934c.153.36.313.715.484,1.066Zm61.927-3.151-9.471-3.441c.133-.369.259-.742.373-1.118l9.631,2.967q-.246.806-.533,1.592m-64.9-6.426q-.125-.827-.209-1.667l10.027-1.01c.041.391.09.778.148,1.163Zm66.88-3.405-10.067-.495c.02-.391.029-.785.029-1.179v-.115h10.079v.115q0,.84-.04,1.673m-56.93-5.139-9.971-1.471c.081-.556.178-1.1.286-1.651l9.885,1.961q-.115.574-.2,1.161m46.147-2.443c-.1-.38-.2-.756-.322-1.127l9.62-3c.166.531.319,1.071.459,1.613Zm-44.1-4.267-9.085-4.361c.241-.5.5-1,.762-1.493l8.857,4.807q-.28.516-.535,1.048m41.347-2.184q-.31-.5-.643-.987l8.3-5.711c.315.459.619.924.913,1.4Zm-37.4-3.63-7.4-6.838q.57-.617,1.167-1.2l7.056,7.2c-.281.274-.553.558-.819.846m32.856-1.739q-.442-.388-.9-.753l6.26-7.9c.439.346.868.706,1.289,1.075Zm-27.377-2.661-5.07-8.711q.722-.418,1.466-.8l4.633,8.947c-.349.182-.693.369-1.03.567m21.464-1.136c-.355-.16-.717-.31-1.082-.454l3.65-9.393q.786.307,1.554.65Zm-14.941-1.446-2.267-9.82q.816-.189,1.646-.337l1.768,9.924q-.58.1-1.147.234m8.178-.43c-.387-.047-.776-.083-1.17-.112l.713-10.052c.56.04,1.116.092,1.669.16Z" transform="translate(-401.831 -913.39)" fill="#ffa139"/>
            <path id="Path_134" data-name="Path 134" d="M336.321,85.086l-34.53,16.869-3.279,38.07,31.158,22.263,34.505-16.606,3.279-38.07Zm29.2,22.724-32.508,15.643-29.352-20.972,32.528-15.9Zm-62.571-4.249,29.323,20.954-3.088,35.841L299.864,139.4Zm27.524,56.9,3.088-35.841L366.038,109l-3.086,35.841Z" transform="translate(167.258 -574.538)" fill="#007a7a"/>
          </g>
        </g>
      </g>
      <g id="Group_149" data-name="Group 149" transform="translate(38.22 419.349)">
        <path id="Path_339" data-name="Path 339" d="M341.567,395.36s8.065,7.429,7.643,10.168-1.654,9.273.016,9.273h58.355a1.328,1.328,0,0,0,1.331-1.321c.013-2.631-.546-8.411-5.542-10.038h7.751a1.33,1.33,0,0,0,1.178-1.949c-1.866-3.521-6.135-10.61-10.4-10.927,0,0-8.007-2.25-13.754-6.32s-21.251-18.212-21.251-18.212l-6.722,5.882,2.118,2.213Z" transform="translate(-98.041 -98.409)" fill="#674cfb"/>
        <path id="Path_340" data-name="Path 340" d="M182.255,337.593c45.994-40.778,57.69-24.657,57.69-24.657,14.39-12.376,55.508,23.725,62.756,30.289a1.327,1.327,0,0,1-.02,1.984l-8.477,7.417,1.7,1.715a1.33,1.33,0,0,1-.016,1.888l-24.08,23.493a1.33,1.33,0,0,1-1.807.047L239.4,352.9a7.791,7.791,0,0,0-9.847-.362c-11.712,8.872-41.176,30.008-58.366,31.872-21.812,2.365-28.17-17.389-28.17-17.389" transform="translate(-31.557 -79.577)" fill="#fed44a"/>
        <path id="Path_341" data-name="Path 341" d="M67.819,414.48a.332.332,0,0,1-.09-.652l10.905-3.082a.332.332,0,0,1,.181.64l-10.905,3.082A.322.322,0,0,1,67.819,414.48Z" transform="translate(-6.264 -113.377)"/>
        <path id="Path_342" data-name="Path 342" d="M94.353,415.493a.333.333,0,0,1-.1-.651l5.9-1.778a.332.332,0,0,1,.192.637l-5.9,1.778A.331.331,0,0,1,94.353,415.493Z" transform="translate(-15.149 -114.153)"/>
        <path id="Path_343" data-name="Path 343" d="M331.772,125.809l11.248-9.156-2.245-2.989Z" transform="translate(-94.761 -13.902)" fill="#674cfb"/>
        <path id="Path_344" data-name="Path 344" d="M191.909,331.338s-5.476,16.379-26.228,31.545l24.162-18.075Z" transform="translate(-39.145 -86.791)"/>
        <path id="Path_345" data-name="Path 345" d="M180.12,280.784c-8.665,1.925-12.621-8.853-12.621-8.853a18.886,18.886,0,0,0,8.832,3.9c.119,2.636.876,3.673,1.607,4.108C177.939,279.94,178.121,280.049,180.12,280.784Z" transform="translate(-39.754 -66.898)"/>
        <path id="Path_346" data-name="Path 346" d="M226.819,234.846a.332.332,0,0,1-.294-.176l-11.163-20.927a1.663,1.663,0,0,1,.694-2.254l11.235-5.908a1.663,1.663,0,0,1,2.284.777l8.088,17.572a.332.332,0,1,1-.6.278l-8.088-17.572a1,1,0,0,0-1.371-.466l-11.235,5.908a1,1,0,0,0-.416,1.353l11.163,20.927a.333.333,0,0,1-.294.489Z" transform="translate(-55.716 -44.617)"/>
        <path id="Path_347" data-name="Path 347" d="M246.022,210.918a1.656,1.656,0,0,1-1.508-.967l-6.931-15.057a1.659,1.659,0,0,1,.283-1.816l28.3-30.159a.332.332,0,0,1,.485.455l-28.3,30.155a.994.994,0,0,0-.166,1.086l6.931,15.057a.99.99,0,0,0,1.028.573l39.16-4.96a.341.341,0,0,1,.372.288.333.333,0,0,1-.288.372l-39.16,4.96A1.719,1.719,0,0,1,246.022,210.918Z" transform="translate(-63.171 -30.36)"/>
        <path id="Path_348" data-name="Path 348" d="M215.9,225.788l-3.754,1.506a1.33,1.33,0,0,0-.7,1.813l3.887,8.056a1.33,1.33,0,0,0,1.733.64l4.026-1.767a1.33,1.33,0,0,0,.639-1.844l-4.159-7.8A1.33,1.33,0,0,0,215.9,225.788Z" transform="translate(-54.425 -51.415)"/>
        <ellipse id="Ellipse_17" data-name="Ellipse 17" cx="7.064" cy="23.25" rx="7.064" ry="23.25" transform="translate(196.787 135.663) rotate(-24.034)" fill="#fd6f41"/>
        <path id="Path_349" data-name="Path 349" d="M286.635,191.458a6.13,6.13,0,0,0-3.675,1.223c.515,1.366,1.085,2.76,1.713,4.168a73.081,73.081,0,0,0,3.434,6.756,6.163,6.163,0,0,0-1.473-12.147Z" transform="translate(-78.417 -39.952)"/>
        <path id="Path_350" data-name="Path 350" d="M115.123,310.626a.332.332,0,0,1-.27-.139c-5.775-8.044-8.13-16.68-6.632-24.317,1.369-6.978,5.9-13.058,13.11-17.583,7.678-4.822,7.671-9.817,7.662-15.6-.01-6.356-.021-13.559,9.62-22.413,6.16-5.657,11.873-7.981,16.984-6.911,6.943,1.456,10.16,8.6,10.294,8.906h0c4.09,9.335,4.732,17.321,1.807,22.489a9.492,9.492,0,0,1-7.155,4.912c-6.888.881-12.388-3.328-13.164-3.957-4.752-.169-7.367-2.557-7.367-6.733a1.165,1.165,0,0,1,.387-.943c.6-.5,1.684-.3,3.061-.057a20.123,20.123,0,0,0,2,.291.592.592,0,0,0,.437-.176c1.482-1.282,2.24-7.971,2.408-10.44a.333.333,0,0,1,.3-.308,44.311,44.311,0,0,0,16.558-5.075c-.653-1.305-3.825-7.03-9.7-8.259-4.89-1.023-10.4,1.25-16.393,6.751-9.424,8.655-9.414,15.7-9.4,21.922.009,5.982.017,11.149-7.974,16.166-7.048,4.426-11.478,10.355-12.811,17.148-1.463,7.455.853,15.908,6.52,23.8a.332.332,0,0,1-.27.526Zm26.37-61.935a1.077,1.077,0,0,0-.667.155.5.5,0,0,0-.149.433c0,3.848,2.364,5.948,6.835,6.072a.333.333,0,0,1,.208.081c.055.048,5.632,4.788,12.738,3.877a8.84,8.84,0,0,0,6.661-4.58c1.617-2.857,3.529-9.44-1.688-21.55a45.069,45.069,0,0,1-16.487,5.1c-.122,1.57-.8,9.047-2.616,10.621a1.244,1.244,0,0,1-.923.336,20.534,20.534,0,0,1-2.064-.3,11.825,11.825,0,0,0-1.849-.242Z" transform="translate(-19.757 -50.65)"/>
        <path id="Path_351" data-name="Path 351" d="M176.065,299.038c-.092,0-.184,0-.278-.006-9.013-.384-12.054-15.773-12.18-16.429a.333.333,0,0,1,.24-.384c1.735-.468,2.157-6.655,2.014-10.445a.333.333,0,0,1,.32-.345.323.323,0,0,1,.345.32c.038,1.019.286,9.685-2.21,11,.448,2.059,3.632,15.287,11.5,15.622a3.651,3.651,0,0,0,3.272-1.378c2.942-3.843-.017-14.355-.52-16.044a3.582,3.582,0,0,1-2.1-.875,6.112,6.112,0,0,1-1.771-4.384.333.333,0,0,1,.664-.045c.136,2.005.774,3.443,1.846,4.156a2.826,2.826,0,0,0,1.588.486.342.342,0,0,1,.341.231c.16.506,3.88,12.441.483,16.878a4.228,4.228,0,0,1-3.55,1.644Z" transform="translate(-38.449 -66.731)"/>
        <path id="Path_352" data-name="Path 352" d="M149.156,316.414c-4.335,0-12.442-4.321-13.534-4.915a.332.332,0,0,1-.166-.366c.045-.2,4.712-20.127,18.975-23.49a.333.333,0,1,1,.152.648c-13.011,3.067-17.84,20.469-18.418,22.745,3.663,1.961,12.815,6.219,14.7,4.21a12.641,12.641,0,0,0,2.915-6.294.333.333,0,1,1,.66.082,13.119,13.119,0,0,1-3.091,6.667A2.933,2.933,0,0,1,149.156,316.414Z" transform="translate(-29.021 -72.157)"/>
        <path id="Path_353" data-name="Path 353" d="M88.747,388.607a8.967,8.967,0,0,1-2.51-.264,3.746,3.746,0,0,1-2.535-1.873,2.182,2.182,0,0,1-.153-1.144c-3.291.825-16.908,4.114-18.717,2.528a1.688,1.688,0,0,1-.7-1.565,2.493,2.493,0,0,1,1.212-1.5c-.853-.2-1.958-.606-2.151-1.407-.167-.69.347-1.434,1.569-2.27a1.781,1.781,0,0,1,.014-1.392c.4-.881,1.536-1.493,3.391-1.82a1.142,1.142,0,0,1-.06-.712c.246-1.029,1.852-1.856,4.913-2.528,6.831-1.5,11.5-3.279,12.181-4.645.785-1.569,25.053-45.405,26.086-47.271a.333.333,0,0,1,.582.322c-.253.457-25.295,45.69-26.073,47.246-1.126,2.254-9.21,4.245-12.633,5-3.738.82-4.328,1.695-4.409,2.032a.6.6,0,0,0,.2.546.332.332,0,0,1-.164.587c-2.4.333-3.179,1.009-3.408,1.518a1.189,1.189,0,0,0,.082,1.05.333.333,0,0,1-.1.464c-1.069.69-1.627,1.316-1.53,1.718.153.632,1.8.993,2.567,1.07a.333.333,0,0,1,.09.64c-.435.173-1.59.774-1.709,1.467a1.083,1.083,0,0,0,.488.951c1.262,1.11,12.119-1.137,18.664-2.812a.333.333,0,0,1,.38.471,1.537,1.537,0,0,0,0,1.206,3.16,3.16,0,0,0,2.117,1.489c1.365.427,4.735.269,9.742-.458a11.567,11.567,0,0,0,9-6.883c13.216-30.384,20.848-50.055,20.416-52.619a.333.333,0,0,1,.656-.11c.629,3.733-12.549,34.805-20.461,52.995a12.228,12.228,0,0,1-9.513,7.276,55.974,55.974,0,0,1-7.526.7Z" transform="translate(-4.814 -83.856)"/>
        <path id="Path_354" data-name="Path 354" d="M66.036,410.127a.333.333,0,0,1-.065-.659l7.823-1.58a.333.333,0,1,1,.131.652L66.1,410.12A.329.329,0,0,1,66.036,410.127Z" transform="translate(-5.667 -112.422)"/>
        <path id="Path_355" data-name="Path 355" d="M71.383,405.453a.333.333,0,0,1-.086-.654l6.164-1.659a.333.333,0,1,1,.173.642l-6.164,1.659A.325.325,0,0,1,71.383,405.453Z" transform="translate(-7.457 -110.831)"/>
        <path id="Path_356" data-name="Path 356" d="M138.643,359.85a1.044,1.044,0,0,1-.654-.234c-1.557-1.222-1.358-7.569-1.33-8.289a.31.31,0,0,1,.346-.319.333.333,0,0,1,.32.345c-.1,2.588.1,6.978,1.076,7.74a.379.379,0,0,0,.373.072c1.759-.5,30.074-22.094,41.013-30.508a68.079,68.079,0,0,1,1.421-9.843c.446-2.364.867-4.6,1.109-6.473.614-4.752-3.1-13.173-3.135-13.257a.332.332,0,0,1,.216-.456c6.1-1.663,7.574-10.789,7.788-12.4-8.419-3.531-17.225-1.243-17.314-1.219a.332.332,0,1,1-.171-.642c.091-.025,9.28-2.413,17.978,1.348a.332.332,0,0,1,.2.338c-.045.452-1.171,10.9-7.938,13.1.712,1.674,3.608,8.836,3.037,13.266-.245,1.9-.667,4.137-1.115,6.511a65.117,65.117,0,0,0-1.411,9.884.333.333,0,0,1-.13.264c-1.6,1.228-39.116,30.077-41.364,30.719a1.141,1.141,0,0,1-.313.045Z" transform="translate(-29.419 -70.806)"/>
        <path id="Path_357" data-name="Path 357" d="M301.049,311.2c-4.927-1.023-9.233-.612-12.309,2.034l29.714,19.6Z" transform="translate(-80.352 -79.876)"/>
        <path id="Path_358" data-name="Path 358" d="M217.745,276.627a22.041,22.041,0,0,1-5.434-1.319.333.333,0,0,1,.216-.629c2.371.814,5.182,1.515,5.589,1.255.692-.715,8.592-14.575,8.013-15.849-8.345-11.427-8.822-14.191-8.3-15.322a1.7,1.7,0,0,1,1.559-.845c2.009-.161,6.7,3.45,7.224,3.863a.335.335,0,0,1,.127.287c0,.022-.153,2.2.87,3.073a1.823,1.823,0,0,0,1.7.271.332.332,0,0,1,.407.284,4.693,4.693,0,0,0,1.459,2.886,2.1,2.1,0,0,0,1.793.251.328.328,0,0,1,.277.054.332.332,0,0,1,.136.247c0,.025.177,2.529,1.579,3.641a2.621,2.621,0,0,0,2.144.477.333.333,0,0,1,.383.382,3.342,3.342,0,0,0,1.13,3.012,3.165,3.165,0,0,0,3.979-.362l2.4-2.249a.332.332,0,1,1,.455.485l-2.4,2.249a3.628,3.628,0,0,1-6.257-2.811,3.16,3.16,0,0,1-2.249-.664,5.984,5.984,0,0,1-1.788-3.743,2.655,2.655,0,0,1-1.96-.424,4.912,4.912,0,0,1-1.681-3,2.327,2.327,0,0,1-1.936-.48c-1.093-.933-1.128-2.844-1.109-3.446-1.483-1.141-5.2-3.741-6.625-3.619-.59.048-.882.181-1.009.459-.63,1.376,2.144,6.309,8.242,14.661,1.243,1.7-7.977,16.594-8.094,16.711a1.206,1.206,0,0,1-.833.215Z" transform="translate(-54.684 -57.516)"/>
        <path id="Path_359" data-name="Path 359" d="M222.464,289.567c-5.954,0-21.02-6.63-21.709-6.935a.332.332,0,1,1,.269-.608c.181.08,18.112,7.981,22.54,6.759,2.755-.76,8.38-7.819,16.716-20.981,4.726-7.459,5.661-15.893,5.8-20.257a4.723,4.723,0,0,0-1.107-3.624,3.409,3.409,0,0,0-2.281-.933.282.282,0,0,1-.256-.107.333.333,0,0,1-.087-.263,2.1,2.1,0,0,0-.495-1.773c-.989-1.063-3.078-.989-3.1-.99a.323.323,0,0,1-.27-.12.332.332,0,0,1-.068-.287,2.062,2.062,0,0,0-.307-1.982c-.9-.916-2.99-.5-3.011-.491a.333.333,0,0,1-.365-.475.8.8,0,0,0-.022-.576c-.125-.323-.494-.806-1.552-1.269-1.554-.679-7.169,5.929-10.346,10.251a.333.333,0,0,1-.537-.394c1.425-1.939,8.664-11.559,11.149-10.467a3.255,3.255,0,0,1,1.919,1.672,1.564,1.564,0,0,1,.1.534,3.972,3.972,0,0,1,3.144.748,2.463,2.463,0,0,1,.557,2.194,4.815,4.815,0,0,1,3.2,1.2,2.66,2.66,0,0,1,.7,1.95,3.986,3.986,0,0,1,2.4,1.1,5.342,5.342,0,0,1,1.311,4.124c-.139,4.432-1.09,13-5.9,20.592-8.547,13.493-14.141,20.449-17.1,21.266a4.881,4.881,0,0,1-1.276.143Z" transform="translate(-50.823 -54.184)"/>
        <path id="Path_360" data-name="Path 360" d="M237.918,251.672a.332.332,0,0,1-.257-.544l6.823-8.276a.332.332,0,0,1,.513.423l-6.823,8.276a.332.332,0,0,1-.257.121Z" transform="translate(-63.223 -57.121)"/>
        <path id="Path_361" data-name="Path 361" d="M243.424,256.525a.333.333,0,0,1-.264-.535l6.8-8.851a.333.333,0,1,1,.527.405l-6.8,8.851a.333.333,0,0,1-.264.13Z" transform="translate(-65.066 -58.553)"/>
        <path id="Path_362" data-name="Path 362" d="M249.6,263.178a.329.329,0,0,1-.205-.071.333.333,0,0,1-.057-.467l6.955-8.851a.333.333,0,1,1,.524.411l-6.955,8.851a.333.333,0,0,1-.262.127Z" transform="translate(-67.135 -60.781)"/>
        <path id="Path_363" data-name="Path 363" d="M414.035,407.389s-4.693-1.237-13.553-5.547-27.067-24.019-27.067-24.019,20.363,17.314,27.307,19.709,21,5.694,21,5.694l1.177,2.207a1.33,1.33,0,0,1-1.174,1.956Z" transform="translate(-108.706 -102.357)"/>
        <path id="Path_364" data-name="Path 364" d="M186.917,255.5a2.313,2.313,0,0,1-.75-.123,2.6,2.6,0,0,1-1.425-1.306.332.332,0,0,1,.592-.3,1.945,1.945,0,0,0,1.048.978,2.117,2.117,0,0,0,2.357-.982c.339-.645-.044-1.662-.87-3.716-.3-.743-.523-1.214-.72-1.629a10.453,10.453,0,0,1-.718-1.827c-.473-1.636-.815-2.818-.125-3.636.67-.8,2.162-.907,3.8-.286a.333.333,0,1,1-.236.622c-1.347-.511-2.573-.474-3.052.094-.461.546-.16,1.585.256,3.023a9.861,9.861,0,0,0,.679,1.726c.192.4.431.9.737,1.666.864,2.146,1.34,3.328.842,4.275a2.841,2.841,0,0,1-2.411,1.424Z" transform="translate(-45.515 -56.966)"/>
        <path id="Path_365" data-name="Path 365" d="M183.3,267.753a2.979,2.979,0,0,1-1.829-.549,3.582,3.582,0,0,1-1.2-2.819.315.315,0,0,1,.346-.317.334.334,0,0,1,.319.346,2.955,2.955,0,0,0,.939,2.259c.732.544,1.866.555,3.376.032a.333.333,0,1,1,.217.629A6.715,6.715,0,0,1,183.3,267.753Z" transform="translate(-44.029 -64.265)"/>
        <path id="Path_366" data-name="Path 366" d="M174.15,249.6a.332.332,0,0,1-.3-.469,4.35,4.35,0,0,1,2.34-2.161,4.28,4.28,0,0,1,3.458.463.332.332,0,0,1-.312.587,3.655,3.655,0,0,0-2.925-.423,3.731,3.731,0,0,0-1.956,1.807A.332.332,0,0,1,174.15,249.6Z" transform="translate(-41.869 -58.481)"/>
        <circle id="Ellipse_18" data-name="Ellipse 18" cx="1.047" cy="1.047" r="1.047" transform="translate(135.139 191.915)"/>
        <circle id="Ellipse_19" data-name="Ellipse 19" cx="1.047" cy="1.047" r="1.047" transform="translate(143.422 189.156)"/>
        <path id="Path_367" data-name="Path 367" d="M322.227,112.24a.338.338,0,0,1-.084-.011.333.333,0,0,1-.246-.28L320.02,97.258l-16.46-2.024a.333.333,0,0,1-.095-.634l50.283-22.423a.333.333,0,0,1,.45.412l-13.592,39.346a.332.332,0,0,1-.58.091l-8.794-11.709-8.738,11.786a.332.332,0,0,1-.267.134Zm9-12.81a.331.331,0,0,1,.266.133l8.686,11.564L353.319,73.1,304.83,94.72l15.528,1.91a.333.333,0,0,1,.289.288l1.806,14.127,8.511-11.481a.333.333,0,0,1,.266-.134Z" transform="translate(-85.217)"/>
        <path id="Path_368" data-name="Path 368" d="M328.9,97.127l33.566-24.479L339.813,99.93l-9,12.145Z" transform="translate(-93.8 -0.167)"/>
        <path id="Path_369" data-name="Path 369" d="M211.4,308.3s-4.172-2.132-4.738-9.038c-1.437,3.409-5.61,4.931-5.61,4.931s4.957,2.192,10.347,4.107Z" transform="translate(-50.991 -76.051)"/>
        <path id="Path_370" data-name="Path 370" d="M297.593,170.976a.332.332,0,0,1-.27-.527c.642-.89,1.282-1.8,1.9-2.717a.333.333,0,0,1,.551.373c-.623.918-1.267,1.837-1.912,2.733a.331.331,0,0,1-.27.138Zm3.734-5.5a.332.332,0,0,1-.28-.511c.593-.929,1.182-1.878,1.747-2.819a.333.333,0,1,1,.57.343c-.57.946-1.161,1.9-1.758,2.834a.331.331,0,0,1-.28.154Zm3.431-5.7a.333.333,0,0,1-.289-.5q.807-1.42,1.6-2.9a.332.332,0,0,1,.586.314q-.8,1.493-1.61,2.919a.332.332,0,0,1-.289.168Z" transform="translate(-83.205 -28.145)"/>
        <path id="Path_371" data-name="Path 371" d="M194.3,234.677a.333.333,0,0,1-.054-.661l3.281-.545a.333.333,0,0,1,.109.656l-3.281.545a.319.319,0,0,1-.055,0Zm6.559-1.1a.333.333,0,0,1-.057-.66q1.637-.285,3.269-.59a.333.333,0,0,1,.123.653q-1.638.308-3.278.592A.342.342,0,0,1,200.857,233.574Zm6.535-1.235a.333.333,0,0,1-.067-.658q1.619-.337,3.239-.714a.333.333,0,0,1,.152.648q-1.629.381-3.256.718A.346.346,0,0,1,207.392,232.339Z" transform="translate(-48.616 -53.178)"/>
        <path id="Path_372" data-name="Path 372" d="M49.114,337.669h-.029a.332.332,0,0,1-.3-.359c.094-1.119.2-2.236.325-3.321a.333.333,0,1,1,.661.074c-.121,1.078-.231,2.189-.324,3.3A.332.332,0,0,1,49.114,337.669Zm.744-6.612a.332.332,0,0,1-.33-.379c.157-1.1.33-2.213.516-3.3a.33.33,0,0,1,.385-.272.333.333,0,0,1,.272.384c-.185,1.077-.358,2.179-.513,3.277a.332.332,0,0,1-.329.286Zm1.126-6.557a.326.326,0,0,1-.066-.006.333.333,0,0,1-.26-.392c.221-1.1.461-2.193.711-3.26a.332.332,0,1,1,.647.152c-.248,1.06-.486,2.15-.706,3.24A.333.333,0,0,1,50.984,324.5Zm1.513-6.477a.342.342,0,0,1-.086-.011.333.333,0,0,1-.236-.407c.289-1.087.595-2.168.909-3.211a.332.332,0,0,1,.637.192c-.311,1.036-.615,2.11-.9,3.191A.333.333,0,0,1,52.5,318.022Zm1.908-6.372a.333.333,0,0,1-.316-.438c.349-1.046.722-2.105,1.107-3.147a.332.332,0,0,1,.624.231c-.383,1.036-.753,2.088-1.1,3.127a.333.333,0,0,1-.316.227Zm2.308-6.238a.326.326,0,0,1-.125-.025.332.332,0,0,1-.183-.434c.422-1.035.863-2.067,1.31-3.069a.332.332,0,1,1,.607.271c-.444.995-.882,2.02-1.3,3.049A.332.332,0,0,1,56.713,305.412Zm2.712-6.073a.332.332,0,0,1-.3-.478c.484-.993.993-1.994,1.512-2.975a.332.332,0,1,1,.587.311c-.516.975-1.021,1.969-1.5,2.955a.332.332,0,0,1-.3.187Zm3.114-5.876a.333.333,0,0,1-.288-.5c.551-.96,1.128-1.924,1.712-2.864a.333.333,0,1,1,.565.351c-.58.934-1.152,1.891-1.7,2.845a.332.332,0,0,1-.288.167Zm3.51-5.648a.328.328,0,0,1-.185-.057.332.332,0,0,1-.091-.461c.614-.917,1.256-1.838,1.906-2.738a.333.333,0,0,1,.539.39c-.646.894-1.283,1.809-1.893,2.719a.332.332,0,0,1-.276.148Zm3.895-5.39a.333.333,0,0,1-.262-.537l.242-.31c.388-.495,1-1.27,1.865-2.284a.332.332,0,1,1,.507.431c-.854,1.005-1.463,1.773-1.847,2.263l-.241.309a.332.332,0,0,1-.262.128Zm4.3-5.075a.333.333,0,0,1-.245-.558c.736-.8,1.51-1.615,2.3-2.418a.333.333,0,1,1,.474.466c-.785.8-1.554,1.606-2.285,2.4a.332.332,0,0,1-.245.107Zm4.665-4.742a.332.332,0,0,1-.229-.573c.794-.757,1.617-1.519,2.449-2.265a.333.333,0,0,1,.444.495c-.827.742-1.646,1.5-2.435,2.251a.331.331,0,0,1-.229.092Zm4.951-4.442a.333.333,0,0,1-.215-.587c.846-.715,1.714-1.428,2.579-2.117a.333.333,0,0,1,.414.52c-.859.685-1.722,1.393-2.563,2.1a.332.332,0,0,1-.215.079Zm5.2-4.149a.333.333,0,0,1-.2-.6c.882-.664,1.788-1.327,2.691-1.969a.333.333,0,0,1,.386.542c-.9.639-1.8,1.3-2.677,1.959a.33.33,0,0,1-.2.067Zm5.42-3.855a.332.332,0,0,1-.185-.609q.773-.519,1.57-1.037.614-.4,1.223-.784a.333.333,0,0,1,.356.563q-.607.383-1.217.78-.793.515-1.562,1.031a.328.328,0,0,1-.185.056Zm5.621-3.556a.333.333,0,0,1-.17-.618c.963-.572,1.936-1.132,2.892-1.663a.333.333,0,0,1,.323.581c-.951.528-1.918,1.084-2.875,1.653a.332.332,0,0,1-.17.047Zm5.814-3.228a.333.333,0,0,1-.153-.628c.983-.508,1.99-1.007,2.989-1.484a.332.332,0,0,1,.286.6c-.993.474-1.992.97-2.97,1.474a.334.334,0,0,1-.153.037Z" transform="translate(0 -59.968)"/>
        <rect id="Rectangle_175" data-name="Rectangle 175" width="37.339" height="4.26" transform="translate(73.889 258.581)" fill="#fed44a"/>
        <rect id="Rectangle_176" data-name="Rectangle 176" width="37.339" height="4.26" transform="translate(243.504 176.505)" fill="#674cfb"/>
        <rect id="Rectangle_177" data-name="Rectangle 177" width="37.339" height="4.26" transform="translate(111.9 93.786)" fill="#fd6f41"/>
        <path id="Path_373" data-name="Path 373" d="M293.4,262.244a3.055,3.055,0,1,1,3.055-3.055,3.055,3.055,0,0,1-3.055,3.055Zm0-5.444a2.39,2.39,0,1,0,2.39,2.39,2.389,2.389,0,0,0-2.39-2.39Z" transform="translate(-80.889 -61.609)"/>
        <path id="Path_374" data-name="Path 374" d="M387.282,180.487a3.055,3.055,0,1,1,3.055-3.055A3.054,3.054,0,0,1,387.282,180.487Zm0-5.444a2.389,2.389,0,1,0,2.39,2.39A2.389,2.389,0,0,0,387.282,175.043Z" transform="translate(-112.327 -34.232)"/>
        <path id="Path_375" data-name="Path 375" d="M85.977,226.656l-4.869-1.33,3.539-4.2Z" transform="translate(-10.825 -49.885)" fill="#fd6f41"/>
        <path id="Path_376" data-name="Path 376" d="M460.268,252.979l-4.869-1.33,3.539-4.2Z" transform="translate(-136.159 -58.699)" fill="#fed44a"/>
        <path id="Path_377" data-name="Path 377" d="M206.322,184.437l-4.869-1.33,3.539-4.2Z" transform="translate(-51.123 -35.747)" fill="#fed44a"/>
        <path id="Path_378" data-name="Path 378" d="M415.874,124.4l-4.869-1.33,3.539-4.2Z" transform="translate(-121.293 -15.643)" fill="#674cfb"/>
        <path id="Path_379" data-name="Path 379" d="M236.636,101.757l-4.869-1.33,3.539-4.2Z" transform="translate(-61.274 -8.062)" fill="#2ca68f"/>
      </g>
    </g>
    <g id="Customer_Survey-pana" data-name="Customer Survey-pana" transform="translate(363.881 215.74)">
      <g id="freepik--background-simple--inject-4" transform="translate(133.194 44.994)">
        <path id="Path_380" data-name="Path 380" d="M510.275,105.528c18.859,53.865,2.562,116.688-35.234,159.458s-94.482,66.288-151.451,70.162c-40.648,2.766-94.616-4.455-128.506-27.07s-57.448-55.845-49.276-98.655c2.884-15.118,12.643-35.36,24.288-45.387,18.584-16.077,46.361-13.13,70.649-9.233s52.034,6.915,70.72-9.068c14.333-12.29,18.788-32.217,27.659-48.883,15.087-28.343,45.2-48.1,77.2-50.651a92.226,92.226,0,0,1,13.358-.086c34.535,2.294,64.756,24.123,78.947,55.7Z" transform="translate(-144.179 -45.914)" fill="#f5f5f5"/>
      </g>
      <g id="freepik--Character--inject-4" transform="translate(174.268 60.499)">
        <rect id="Rectangle_180" data-name="Rectangle 180" width="202.81" height="291.053" rx="11.55" transform="translate(0 313.662) rotate(-90)" fill="#263238"/>
        <rect id="Rectangle_181" data-name="Rectangle 181" width="190.025" height="243.065" transform="translate(19.912 307.274) rotate(-90)" fill="#fff"/>
        <circle id="Ellipse_20" data-name="Ellipse 20" cx="7.779" cy="7.779" r="7.779" transform="matrix(0.229, -0.973, 0.973, 0.229, 267.099, 218.077)" fill="#455a64"/>
        <rect id="Rectangle_182" data-name="Rectangle 182" width="61.087" height="3.214" rx="1.22" transform="translate(8.376 242.8) rotate(-90)" fill="#455a64"/>
        <g id="Group_158" data-name="Group 158">
          <circle id="Ellipse_21" data-name="Ellipse 21" cx="19.637" cy="19.637" r="19.637" transform="matrix(0.55, -0.835, 0.835, 0.55, 45.261, 223.554)" fill="#24d37d"/>
          <circle id="Ellipse_22" data-name="Ellipse 22" cx="19.637" cy="19.637" r="19.637" transform="matrix(0.55, -0.835, 0.835, 0.55, 45.261, 223.554)" fill="#fff" opacity="0.3"/>
          <path id="Path_381" data-name="Path 381" d="M279.674,336.739c.739-.063,1.414.786,1.509,1.839s-.448,1.988-1.194,2.051-1.414-.786-1.5-1.831S278.959,336.8,279.674,336.739Z" transform="translate(-214.022 -123.721)" fill="#263238"/>
          <path id="Path_382" data-name="Path 382" d="M295.529,336.41c-.739,0-1.383.786-1.43,1.9s.527,1.972,1.273,2,1.391-.786,1.43-1.894S296.276,336.441,295.529,336.41Z" transform="translate(-217.367 -123.65)" fill="#263238"/>
          <path id="Path_383" data-name="Path 383" d="M294.192,347.884c0,.228-3.662.416-8.172.416s-8.18-.189-8.18-.416,3.662-.424,8.18-.424S294.192,347.641,294.192,347.884Z" transform="translate(-213.885 -126.018)" fill="#263238"/>
          <path id="Path_384" data-name="Path 384" d="M280.859,333.74c-.047.236-.982.228-2.074.4s-1.98.456-2.1.251.707-.88,1.972-1.077S280.859,333.52,280.859,333.74Z" transform="translate(-213.636 -122.977)" fill="#263238"/>
          <path id="Path_385" data-name="Path 385" d="M299.3,334.648c-.142.189-.99-.251-2.082-.582s-2.035-.448-2.059-.692,1.045-.5,2.3-.11S299.45,334.483,299.3,334.648Z" transform="translate(-217.596 -122.934)" fill="#263238"/>
        </g>
        <g id="Group_157" data-name="Group 157">
          <circle id="Ellipse_23" data-name="Ellipse 23" cx="20.352" cy="20.352" r="20.352" transform="translate(191.327 233.248) rotate(-80.95)" fill="#24d37d"/>
          <circle id="Ellipse_24" data-name="Ellipse 24" cx="20.352" cy="20.352" r="20.352" transform="translate(191.327 233.248) rotate(-80.95)" opacity="0.3"/>
          <path id="Path_386" data-name="Path 386" d="M460.293,334.439c.786-.063,1.477.786,1.572,1.9s-.456,2.067-1.226,2.129-1.477-.786-1.572-1.9S459.523,334.5,460.293,334.439Z" transform="translate(-252.705 -123.228)" fill="#263238"/>
          <path id="Path_387" data-name="Path 387" d="M476.694,334.1c-.786,0-1.438.849-1.485,1.965s.55,2.043,1.32,2.074,1.438-.849,1.485-1.964S477.472,334.131,476.694,334.1Z" transform="translate(-256.165 -123.155)" fill="#263238"/>
          <path id="Path_388" data-name="Path 388" d="M475.317,345.125a14.057,14.057,0,0,1-2.357-1.241,13.145,13.145,0,0,0-6.058-1.493,15.119,15.119,0,0,0-6.074,1.572,13.39,13.39,0,0,1-2.428,1.163c-.071-.11.7-.786,2.153-1.682a13.193,13.193,0,0,1,6.333-1.894,11.951,11.951,0,0,1,6.365,1.815A6.083,6.083,0,0,1,475.317,345.125Z" transform="translate(-252.563 -124.752)" fill="#263238"/>
          <path id="Path_389" data-name="Path 389" d="M461.436,331.45c.071.086-.063.346-.4.636a3.292,3.292,0,0,1-1.572.786,3.017,3.017,0,0,1-1.768-.2c-.417-.189-.605-.409-.558-.511s1.061.1,2.177-.118S461.287,331.261,461.436,331.45Z" transform="translate(-252.293 -122.58)" fill="#263238"/>
          <path id="Path_390" data-name="Path 390" d="M480.6,332.358c0,.1-.189.3-.644.44a2.986,2.986,0,0,1-1.823-.063,3.671,3.671,0,0,1-1.5-1c-.3-.346-.409-.621-.33-.7s1,.519,2.1.9S480.523,332.122,480.6,332.358Z" transform="translate(-256.395 -122.498)" fill="#263238"/>
        </g>
        <path id="Path_396" data-name="Path 396" d="M410.294,265.454c0,.118-21.106.212-47.147.212S316,265.572,316,265.454s21.1-.2,47.147-.2S410.294,265.344,410.294,265.454Z" transform="translate(-222.06 -108.406)" fill="#263238"/>
        <path id="Path_397" data-name="Path 397" d="M393.807,258.252c0,.118-10.419.212-23.275.212s-23.283-.094-23.283-.212,10.419-.212,23.283-.212S393.807,258.134,393.807,258.252Z" transform="translate(-228.754 -106.862)" fill="#263238"/>
        <g id="Group_156" data-name="Group 156">
          <circle id="Ellipse_25" data-name="Ellipse 25" cx="26.811" cy="26.811" r="26.811" transform="matrix(0.307, -0.952, 0.952, 0.307, 111.396, 228.97)" fill="#24d37d"/>
          <path id="Path_398" data-name="Path 398" d="M368.915,326.4c1.014-.079,1.933,1.037,2.059,2.507s-.605,2.719-1.619,2.805-1.941-1.037-2.059-2.5S367.9,326.485,368.915,326.4Z" transform="translate(-233.046 -121.505)" fill="#263238"/>
          <path id="Path_399" data-name="Path 399" d="M390.518,326c-1.014-.047-1.894,1.116-1.949,2.585s.715,2.7,1.729,2.734,1.894-1.116,1.957-2.585S391.539,326,390.518,326Z" transform="translate(-237.605 -121.42)" fill="#263238"/>
          <path id="Path_400" data-name="Path 400" d="M388.683,337.146c.047.047-.173.322-.605.786a15.281,15.281,0,0,1-2.012,1.815,14.316,14.316,0,0,1-3.544,1.941,12.5,12.5,0,0,1-4.919.786,14.351,14.351,0,0,1-4.832-1.116,20.635,20.635,0,0,1-3.56-1.862,10.773,10.773,0,0,1-2.852-2.357,30.971,30.971,0,0,1,3.143,1.823,24.934,24.934,0,0,0,3.528,1.658,15.026,15.026,0,0,0,4.6,1,12.634,12.634,0,0,0,4.62-.668,16,16,0,0,0,3.465-1.7c.912-.629,1.65-1.155,2.13-1.572S388.644,337.107,388.683,337.146Z" transform="translate(-232.848 -123.805)" fill="#263238"/>
          <path id="Path_401" data-name="Path 401" d="M369.347,318.592c-.047.236-1.328.149-2.852.393s-2.719.707-2.837.495,1.014-1.061,2.711-1.32S369.425,318.372,369.347,318.592Z" transform="translate(-232.268 -119.725)" fill="#263238"/>
          <path id="Path_402" data-name="Path 402" d="M396.83,319.767c-.149.189-1.281-.487-2.805-.943s-2.837-.55-2.845-.786,1.407-.534,3.1,0S396.979,319.6,396.83,319.767Z" transform="translate(-238.165 -119.65)" fill="#263238"/>
          <path id="Path_403" data-name="Path 403" d="M366.189,334.7c.1,0,.275.259.3.786a3.064,3.064,0,0,1-.581,1.854,3.033,3.033,0,0,1-1.572,1.163c-.487.142-.786.071-.825,0,0-.236.99-.581,1.7-1.619S365.954,334.739,366.189,334.7Z" transform="translate(-232.237 -123.284)" fill="#263238"/>
          <path id="Path_404" data-name="Path 404" d="M396.819,337.247c0,.1-.2.267-.621.3a2.423,2.423,0,0,1-2.428-1.8c-.086-.409,0-.668.11-.676.236,0,.5.786,1.289,1.328S396.764,337.011,396.819,337.247Z" transform="translate(-238.712 -123.363)" fill="#263238"/>
          <path id="Path_405" data-name="Path 405" d="M404.626,325.581a4.727,4.727,0,0,0-.047-.542l-.1-1.572c0-.346-.039-.739-.063-1.163s-.141-.888-.212-1.391-.165-1.045-.259-1.619a18.359,18.359,0,0,0-.432-1.823,31.8,31.8,0,0,0-3.693-8.832,33.127,33.127,0,0,0-8.431-9.429l-1.438-1.061c-.5-.33-1.029-.636-1.572-.959a16.661,16.661,0,0,0-1.619-.935l-1.721-.825-.872-.417-.919-.33-1.87-.684c-.629-.212-1.3-.346-1.949-.519a15.438,15.438,0,0,0-2-.456,30.653,30.653,0,0,0-4.188-.487c-.715,0-1.438-.094-2.161-.079l-2.192.11a5.835,5.835,0,0,0-1.108.071l-1.108.173c-.731.118-1.485.2-2.224.361a33.632,33.632,0,0,0-4.416,1.3,34.832,34.832,0,0,0-4.322,1.894c-.7.385-1.367.825-2.059,1.234-.338.22-.7.4-1.022.644l-.974.731a37.869,37.869,0,0,0-3.756,3.19l-1.682,1.854-.424.471-.385.5-.786,1.014-.786,1.014-.668,1.092-.668,1.1-.33.55-.283.574-1.124,2.357-.9,2.452a32.783,32.783,0,0,0,0,20.894c.306.786.605,1.634.9,2.452s.746,1.572,1.124,2.357l.283.581.33.55.668,1.092.668,1.092.786,1.022.786,1.014.377.5.424.464,1.682,1.854a37.785,37.785,0,0,0,3.756,3.2l.982.723c.322.251.684.432,1.021.652.692.409,1.359.849,2.059,1.234a36.6,36.6,0,0,0,8.738,3.19c.739.157,1.493.244,2.232.361l1.1.173c.369.047.739.047,1.108.071l2.192.11c.723,0,1.446-.055,2.161-.079a30.485,30.485,0,0,0,4.188-.487,16.851,16.851,0,0,0,2-.456c.66-.173,1.32-.314,1.957-.519l1.862-.684.919-.33.872-.416,1.721-.825a18.011,18.011,0,0,0,1.619-.935c.527-.322,1.061-.629,1.572-.959l1.43-1.069a33.137,33.137,0,0,0,8.439-9.429,31.924,31.924,0,0,0,3.685-8.872,18.221,18.221,0,0,0,.432-1.815c.094-.574.181-1.116.259-1.619s.165-.966.212-1.391.047-.786.063-1.163c.047-.684.079-1.21.1-1.572s.047-.542.047-.542v.542c0,.361-.039.9-.063,1.572a9.982,9.982,0,0,1-.047,1.171c-.047.385-.126.9-.189,1.4s-.157,1.053-.244,1.634a18.6,18.6,0,0,1-.417,1.823,31.54,31.54,0,0,1-3.638,8.934,33.2,33.2,0,0,1-8.455,9.524l-1.446,1.084c-.5.338-1.037.644-1.572.974a14.009,14.009,0,0,1-1.634.943l-1.729.841-.88.448-.927.338-1.878.691c-.644.22-1.312.354-1.972.534a17.286,17.286,0,0,1-2.027.471,31.044,31.044,0,0,1-4.235.5c-.715,0-1.446.1-2.177.094l-2.216-.11a5.8,5.8,0,0,1-1.124-.071l-1.116-.173c-.747-.118-1.509-.2-2.255-.361a36.106,36.106,0,0,1-4.471-1.3,35.564,35.564,0,0,1-4.369-1.909c-.715-.385-1.391-.833-2.09-1.249a10.918,10.918,0,0,1-1.037-.652l-.99-.739a37.519,37.519,0,0,1-3.8-3.222l-1.705-1.878-.432-.471-.385-.511-.786-1.022-.786-1.037-.676-1.1-.676-1.108-.338-.558-.283-.589-1.139-2.357c-.306-.825-.605-1.658-.912-2.483a33.222,33.222,0,0,1,0-21.153l.912-2.483,1.139-2.357.291-.589.338-.558.676-1.108.676-1.1.786-1.029.786-1.029.385-.511.424-.471c.574-.621,1.139-1.249,1.705-1.87a38.624,38.624,0,0,1,3.8-3.23l.99-.739c.33-.244.692-.432,1.037-.652.7-.409,1.383-.857,2.09-1.241a35.574,35.574,0,0,1,4.369-1.91,36.106,36.106,0,0,1,4.471-1.3c.746-.157,1.509-.244,2.255-.361l1.116-.173c.369-.047.746-.047,1.116-.071l2.216-.11c.739,0,1.462.063,2.184.094a31.014,31.014,0,0,1,4.235.495,19.455,19.455,0,0,1,2.027.464c.66.189,1.328.322,1.965.534l1.886.692.927.346.88.424,1.737.833c.581.267,1.092.644,1.627.951s1.069.636,1.572.974l1.446,1.084a33.2,33.2,0,0,1,8.455,9.508,31.6,31.6,0,0,1,3.646,8.911c.141.652.354,1.249.416,1.831s.165,1.124.244,1.634.149.966.189,1.4,0,.786.047,1.163c0,.691.047,1.218.063,1.572A3.588,3.588,0,0,1,404.626,325.581Z" transform="translate(-226.726 -114.165)" fill="#24d37d"/>
        </g>
        <rect id="Rectangle_183" data-name="Rectangle 183" width="243.065" height="12.125" transform="translate(19.912 117.248)" fill="#e0e0e0"/>
        <path id="Path_406" data-name="Path 406" d="M230.875,221.7a1.642,1.642,0,1,1-1.642-1.642A1.642,1.642,0,0,1,230.875,221.7Z" transform="translate(-203.121 -98.725)" fill="#fff"/>
        <path id="Path_407" data-name="Path 407" d="M237.815,221.7a1.642,1.642,0,1,1-1.642-1.642A1.642,1.642,0,0,1,237.815,221.7Z" transform="translate(-204.608 -98.725)" fill="#fff"/>
        <path id="Path_408" data-name="Path 408" d="M244.765,221.7a1.642,1.642,0,1,1-1.642-1.642A1.642,1.642,0,0,1,244.765,221.7Z" transform="translate(-206.096 -98.725)" fill="#fff"/>
        <path id="Path_409" data-name="Path 409" d="M445.641,277.624c0,.118-42.173.212-94.191.212s-94.2-.094-94.2-.212,42.173-.2,94.2-.2S445.641,277.514,445.641,277.624Z" transform="translate(-209.475 -111.013)" fill="#e0e0e0"/>
        <path id="Path_410" data-name="Path 410" d="M445.641,283.572c0,.11-42.173.2-94.191.2s-94.2-.094-94.2-.2,42.173-.212,94.2-.212S445.641,283.454,445.641,283.572Z" transform="translate(-209.475 -112.286)" fill="#e0e0e0"/>
        <path id="Path_413" data-name="Path 413" d="M356.894,267c-.4-1.3-.126-2.145,1.776-1.5,4.2,1.407,7.944.943,8.856.134s.078-2.357-1.289-2.239a16.559,16.559,0,0,1-4.416-.613,10.8,10.8,0,0,1-3.292-1.391c-.88-.558-1.634-1.084-2.3-1.572,0,0-3.874-2.8-5.084-5.045l-13.272,5.681,2.137,6.648a7.072,7.072,0,0,0,4.487,5.139c3.8,1.234,9.83.786,9.83.786,1.108-.723,5.375,5.453,6.671,7.63s2.829,2.452,3.332,1.124c.338-.911-3.457-7.677-4.778-9.806a25.779,25.779,0,0,1-2.656-4.99" transform="translate(-226.745 -106.161)" fill="#b77153"/>
        <path id="Path_414" data-name="Path 414" d="M349.927,276.85c0,.047-.33,0-.786-.189a3.277,3.277,0,0,1-1.391-1.352,3.4,3.4,0,0,1-.432-1.894c.047-.5.2-.786.251-.786a4.385,4.385,0,0,0,2.357,4.2Z" transform="translate(-228.768 -109.987)" fill="#995037"/>
        <path id="Path_415" data-name="Path 415" d="M355.332,277.134c0,.047-.314,0-.739-.212a3.292,3.292,0,0,1-1.3-1.328,3.371,3.371,0,0,1-.409-1.815c.047-.479.181-.786.236-.731a6.2,6.2,0,0,0,.542,2.357,6.381,6.381,0,0,0,1.666,1.729Z" transform="translate(-229.961 -110.075)" fill="#995037"/>
        <path id="Path_417" data-name="Path 417" d="M314.84,199.92a3.3,3.3,0,0,1,.3.283l.786.88,2.829,3.269c2.357,2.766,5.634,6.616,9.217,10.883s6.813,8.148,9.131,11l2.727,3.355.731.927c.157.212.244.33.228.338a1.613,1.613,0,0,1-.291-.283l-.786-.88c-.715-.786-1.666-1.925-2.829-3.269-2.357-2.766-5.642-6.616-9.225-10.883s-6.8-8.148-9.131-11l-2.727-3.355c-.291-.369-.534-.676-.723-.927a1.746,1.746,0,0,1-.236-.338Z" transform="translate(-221.811 -94.411)" fill="#263238"/>
        <path id="Path_418" data-name="Path 418" d="M407.643,201.807a14.221,14.221,0,0,0,.5-3.143,9.28,9.28,0,0,0-2.75-6.789c-1.022-1.076-2.122-2-3.01-2.978a9.067,9.067,0,0,1-1.886-2.939,5.194,5.194,0,0,1-.346-2.357,2.169,2.169,0,0,1,.22-.841,5.909,5.909,0,0,0,.4,3.065,9.493,9.493,0,0,0,1.894,2.79c.88.935,1.98,1.847,3.025,2.947a9.627,9.627,0,0,1,2.271,3.63,9.307,9.307,0,0,1,.479,3.457,8.12,8.12,0,0,1-.448,2.31,2.78,2.78,0,0,1-.354.849Z" transform="translate(-240.084 -90.735)" fill="#263238"/>
        <path id="Path_419" data-name="Path 419" d="M333.488,159.157s.212-.11.613-.291a17.5,17.5,0,0,1,1.823-.66,15.718,15.718,0,0,1,3.017-.613,10.263,10.263,0,0,1,4.07.377,9.484,9.484,0,0,1,4.157,2.672,11,11,0,0,1,2.53,5.115,19.408,19.408,0,0,1,.4,6.286,13.659,13.659,0,0,1-2.357,6.286,17.287,17.287,0,0,1-5.037,4.471c-1.847,1.163-3.7,2.106-5.461,3.033l-9.359,4.919L321.6,194.03l-1.729.872a3.358,3.358,0,0,1-.621.275,5.135,5.135,0,0,1,.581-.354l1.689-.943,6.286-3.395,9.3-4.99c1.752-.935,3.615-1.894,5.43-3.049a17.075,17.075,0,0,0,4.919-4.361,13.225,13.225,0,0,0,2.263-6.121,19.305,19.305,0,0,0-.369-6.129A10.7,10.7,0,0,0,347,160.894,9.122,9.122,0,0,0,343,158.269a10.216,10.216,0,0,0-3.929-.432,16.2,16.2,0,0,0-2.994.542c-.786.228-1.422.432-1.839.581A3.211,3.211,0,0,1,333.488,159.157Z" transform="translate(-222.756 -85.331)" fill="#263238"/>
        <path id="Path_420" data-name="Path 420" d="M318.961,202.828a21.532,21.532,0,0,0-2.357-5.618,23.846,23.846,0,0,0-4.165-4.44,5.4,5.4,0,0,1,1.572.959,13.5,13.5,0,0,1,4.715,7.292A5.312,5.312,0,0,1,318.961,202.828Z" transform="translate(-221.297 -92.879)" fill="#263238"/>
        <path id="Path_421" data-name="Path 421" d="M392.359,194.694a5.093,5.093,0,0,1-.9.244,9.123,9.123,0,0,1-2.656.118,9.87,9.87,0,0,1-3.992-1.312,9.186,9.186,0,0,1-3.685-4.141,9.768,9.768,0,0,1-.511-6.687,5.5,5.5,0,0,1,2.224-3.08,2.758,2.758,0,0,1,2.012-.416,2.97,2.97,0,0,1,1.744,1.163,9.728,9.728,0,0,1,.943,8.384,9.949,9.949,0,0,1-2.357,3.929,9.092,9.092,0,0,1-4.094,2.357,9.367,9.367,0,0,1-8.8-2.106,9.186,9.186,0,0,1-2.632-7.984,7.961,7.961,0,0,1,1.572-3.693,4,4,0,0,1,1.572-1.2,2.531,2.531,0,0,1,1.933,0,3.6,3.6,0,0,1,2.051,2.86,6.035,6.035,0,0,1-.636,3.206A15.363,15.363,0,0,1,372.8,190.8a15.864,15.864,0,0,1-3.434,2.428,14.812,14.812,0,0,1-2.452,1.029c-.283.094-.511.141-.66.181a.928.928,0,0,1-.236.047.786.786,0,0,1,.22-.086c.149-.055.369-.118.652-.228a16.5,16.5,0,0,0,2.4-1.084,16.243,16.243,0,0,0,3.355-2.459,15.246,15.246,0,0,0,3.237-4.408,5.816,5.816,0,0,0,.581-3.049,3.284,3.284,0,0,0-1.862-2.577,2.184,2.184,0,0,0-1.666,0,3.606,3.606,0,0,0-1.414,1.1,7.511,7.511,0,0,0-1.509,3.528,8.793,8.793,0,0,0,2.53,7.622,8.95,8.95,0,0,0,8.392,1.957,8.581,8.581,0,0,0,3.929-2.2,9.516,9.516,0,0,0,2.287-3.732,10.214,10.214,0,0,0,.464-4.22,8.336,8.336,0,0,0-.432-2.019,5.823,5.823,0,0,0-.88-1.784,2.624,2.624,0,0,0-1.524-1.029,2.357,2.357,0,0,0-1.737.361,5.1,5.1,0,0,0-2.106,2.837,9.484,9.484,0,0,0,.44,6.467,8.926,8.926,0,0,0,3.544,4.062,9.7,9.7,0,0,0,3.89,1.352A10.743,10.743,0,0,0,392.359,194.694Z" transform="translate(-232.775 -90.01)" fill="#fafafa"/>
        <path id="Path_422" data-name="Path 422" d="M403.035,137.268a9.525,9.525,0,0,1-1.878-3.732,2.5,2.5,0,0,1-.047-1.359,1.037,1.037,0,0,1,1.014-.786c.471,0,.786.479,1.045.88a20.3,20.3,0,0,1,1.933,3.677,2.783,2.783,0,0,1,.228,1.116,1.124,1.124,0,0,1-.542.951,1.163,1.163,0,0,1-1.187-.157,3.512,3.512,0,0,1-.786-.951" transform="translate(-240.277 -79.731)" fill="#995037"/>
        <path id="Path_423" data-name="Path 423" d="M405.465,135.875l-2.074-4.353a3.5,3.5,0,0,1-.432-1.352,1.179,1.179,0,0,1,.668-1.163,1.163,1.163,0,0,1,1.147.3,3.286,3.286,0,0,1,.7,1.022l.982,1.909a6.115,6.115,0,0,1,.644,1.619,2.09,2.09,0,0,1-.322,1.674,1.281,1.281,0,0,1-1.572.369" transform="translate(-240.687 -79.21)" fill="#995037"/>
        <path id="Path_424" data-name="Path 424" d="M393.538,148.985s-2.892-3.748-3.143-5.72,2.161-5.5,7.355-6.286a12.7,12.7,0,0,0,5.343-1.823,1.674,1.674,0,0,0,.6-2.027c-.684-1.658-1.909-4.715-1.815-5.147.244-1.061.935-1.037,2.727,1.572s3.874,5.3,3.473,6.506-6.734,4.958-6.734,4.958l1.729,2.79Z" transform="translate(-237.993 -78.859)" fill="#b77153"/>
        <g id="Group_152" data-name="Group 152" transform="translate(64.582 62.409)">
          <path id="Path_411" data-name="Path 411" d="M337.751,196.752s-1.658-3.764-1.972-4.589c-.841-2.255-6.286-17.366-4.974-19.644,6.027-10.584,10.7-18.073,22.591-18.073l21-.141s19.9-4.055,33.922,41.206Z" transform="translate(-289.769 -147.028)" fill="#0648fa"/>
          <path id="Path_412" data-name="Path 412" d="M282.317,200.518l27.5-5.925,32.327-17,.118-23.2c-4.848-1.336-14.144,2.027-30.842,10.537L286.6,177.746a14.694,14.694,0,0,0-4.283,22.788Z" transform="translate(-278.637 -147.006)" fill="#0648fa"/>
          <path id="Path_416" data-name="Path 416" d="M282.32,207.5s42.134,48.42,42.079,47.618,18.859-14.93,18.859-14.93L301.98,191Z" transform="translate(-279.426 -154.909)" fill="#0648fa"/>
          <path id="Path_425" data-name="Path 425" d="M410.825,191.321,390.89,152.26l12.84-7.19L430.7,187.816s1.422,2.735,3.41,5.933H411.5" transform="translate(-302.684 -145.07)" fill="#0648fa"/>
        </g>
        <path id="Path_426" data-name="Path 426" d="M403.44,145.07a1.86,1.86,0,0,1-.22.157l-.676.409-2.577,1.5-9.272,5.28.071-.236c1.941,3.929,4.463,8.526,7,13.5,3.78,7.347,7.072,14.081,9.351,18.984,1.147,2.452,2.059,4.447,2.68,5.823.291.668.527,1.194.7,1.572a2.869,2.869,0,0,1,.22.566,2.971,2.971,0,0,1-.3-.534c-.189-.393-.448-.912-.786-1.572l-2.8-5.768c-2.357-4.864-5.673-11.575-9.429-18.922-2.538-4.966-5.045-9.547-6.954-13.523l-.071-.157.149-.086,9.343-5.147,2.632-1.422.7-.361A.916.916,0,0,1,403.44,145.07Z" transform="translate(-237.994 -82.661)" fill="#263238"/>
        <path id="Path_427" data-name="Path 427" d="M338.794,205.848a24.146,24.146,0,0,1-3.324-9.178c.126,0,.668,2.09,1.572,4.613S338.9,205.793,338.794,205.848Z" transform="translate(-226.231 -93.715)" fill="#263238"/>
        <path id="Path_428" data-name="Path 428" d="M394.757,126.3a7.858,7.858,0,0,0,9.3-11.92c4.5-1.139,7.308-6.333,6.4-10.891s-4.974-8.109-9.516-9.091a10.215,10.215,0,0,0-5.265.134A6.475,6.475,0,0,0,391.74,97.9" transform="translate(-238.285 -71.745)" fill="#263238"/>
        <path id="Path_429" data-name="Path 429" d="M393.293,122.041c0,.047-.582.157-1.532.652a6.765,6.765,0,0,0-3.009,3.237,6.663,6.663,0,0,0,.5,6.333,6.349,6.349,0,0,0,1.257,1.43,6.238,6.238,0,0,0,1.682,1.045A6.6,6.6,0,0,0,399.807,133a6.4,6.4,0,0,0,1.061-1.674,6.512,6.512,0,0,0,.511-1.831,6.726,6.726,0,0,0-6.412-7.543c-1.077-.039-1.666.134-1.674.079a1.643,1.643,0,0,1,.424-.118,5.707,5.707,0,0,1,1.249-.126,6.9,6.9,0,0,1,6.828,7.748,6.205,6.205,0,0,1-.526,1.941,6.457,6.457,0,0,1-1.116,1.784,6.978,6.978,0,0,1-8.086,1.847,6.68,6.68,0,0,1-1.776-1.124,6.5,6.5,0,0,1-1.32-1.517,7.072,7.072,0,0,1-1.092-3.52,6.883,6.883,0,0,1,3.843-6.4,5.358,5.358,0,0,1,1.186-.432A1.729,1.729,0,0,1,393.293,122.041Z" transform="translate(-237.457 -77.674)" fill="#24d37d"/>
        <path id="Path_430" data-name="Path 430" d="M383.083,97.631a7.724,7.724,0,0,0,3.63-14.278,9.594,9.594,0,0,0-14.325-11.229A12.73,12.73,0,0,0,348.815,75.9a12.305,12.305,0,0,0-15.794,16.7,9.535,9.535,0,0,0,1.619,19,8.408,8.408,0,0,0,12.745,9.429,9.209,9.209,0,0,0,16.549-1.9" transform="translate(-223.837 -65.647)" fill="#263238"/>
        <path id="Path_431" data-name="Path 431" d="M380.564,138.688c.165-3.827.369-7.292.369-7.292s8.557-1.077,8.926-9.807-.5-28.83-.5-28.83L373.641,85.2,356.7,98.841l2.656,40.075a10.64,10.64,0,0,0,11.1,9.917h0A10.624,10.624,0,0,0,380.564,138.688Z" transform="translate(-230.779 -69.836)" fill="#ffcfba"/>
        <path id="Path_432" data-name="Path 432" d="M396.551,113.483c-.142.149-.959-.534-2.13-.581s-2.043.55-2.161.393.079-.338.456-.621a2.766,2.766,0,0,1,1.737-.5,2.813,2.813,0,0,1,1.689.652C396.5,113.145,396.614,113.42,396.551,113.483Z" transform="translate(-238.389 -75.614)" fill="#263238"/>
        <path id="Path_433" data-name="Path 433" d="M380.03,113.483c-.141.149-.951-.534-2.129-.581s-2.035.55-2.161.393.079-.338.456-.621a2.766,2.766,0,0,1,1.737-.5,2.813,2.813,0,0,1,1.689.652C379.975,113.145,380.093,113.42,380.03,113.483Z" transform="translate(-234.85 -75.614)" fill="#263238"/>
        <path id="Path_434" data-name="Path 434" d="M386.706,122.192a6.994,6.994,0,0,1,1.909-.291c.3,0,.581-.079.637-.291a1.752,1.752,0,0,0-.181-.959q-.409-1.179-.849-2.475a44.055,44.055,0,0,1-1.886-6.467A44.79,44.79,0,0,1,388.694,118l.786,2.491a2.058,2.058,0,0,1,.134,1.265.786.786,0,0,1-.5.448,1.721,1.721,0,0,1-.5.055,7.157,7.157,0,0,1-1.9-.063Z" transform="translate(-237.124 -75.515)" fill="#263238"/>
        <path id="Path_435" data-name="Path 435" d="M384.453,142.989a20.808,20.808,0,0,1-11.323-3.709s2.664,6.357,11.174,5.854Z" transform="translate(-234.298 -81.421)" fill="#995037"/>
        <path id="Path_436" data-name="Path 436" d="M371.52,85.446a11.535,11.535,0,0,0,.157,13.358,6.7,6.7,0,0,0,5.288,2.947c2.1-.079,4.125-2.059,3.677-4.11a4.337,4.337,0,1,0,8.314.149,7.922,7.922,0,0,0,.982,2.672,2.648,2.648,0,0,0,2.412,1.273c1.312-.173,2.075-1.572,2.357-2.884a11.842,11.842,0,0,0-3.339-10.907,14.317,14.317,0,0,0-10.907-3.827,18.222,18.222,0,0,0-10.71,4.715" transform="translate(-233.514 -69.595)" fill="#263238"/>
        <path id="Path_437" data-name="Path 437" d="M368.253,89.74a20.242,20.242,0,0,1,1.76,7.858,10.506,10.506,0,0,1-2.829,7.355,7.143,7.143,0,0,1-7.426,1.784,8.266,8.266,0,0,1-1.084,6.97,5.282,5.282,0,0,1-6.467,1.7c-1.933-1.053-2.766-3.395-3.033-5.579a17.869,17.869,0,0,1,19.432-19.935" transform="translate(-229.139 -70.808)" fill="#263238"/>
        <path id="Path_438" data-name="Path 438" d="M358.391,116.123a3.058,3.058,0,0,0-3.677.88,5.021,5.021,0,0,0,5,8.235" transform="translate(-230.073 -76.391)" fill="#ffcfba"/>
        <path id="Path_439" data-name="Path 439" d="M358.622,123.332c0,.047-.385.1-.99-.063a2.648,2.648,0,0,1-1.792-1.572,1.941,1.941,0,0,1,.047-1.4,2.1,2.1,0,0,1,.723-.857c.542-.354.951-.346.959-.3s-.354.165-.786.534a1.721,1.721,0,0,0-.558,1.886,2.624,2.624,0,0,0,1.5,1.454C358.3,123.214,358.63,123.269,358.622,123.332Z" transform="translate(-230.572 -77.102)" fill="#995037"/>
        <path id="Path_440" data-name="Path 440" d="M380.54,108.943c-.11.338-1.391.212-2.907.283s-2.782.259-2.915-.071,1.1-1.124,2.868-1.187S380.658,108.621,380.54,108.943Z" transform="translate(-234.636 -74.712)" fill="#263238"/>
        <path id="Path_441" data-name="Path 441" d="M396.649,108.525c-.134.118-.393,0-.7-.039a3.034,3.034,0,0,0-1.069-.063c-.456,0-.959.126-1.344.118s-.652-.086-.7-.259.126-.377.448-.6a3.417,3.417,0,0,1,1.485-.519,1.98,1.98,0,0,1,1.689.6C396.751,108.116,396.775,108.415,396.649,108.525Z" transform="translate(-238.519 -74.538)" fill="#263238"/>
        <path id="Path_442" data-name="Path 442" d="M384.05,127.774a2.656,2.656,0,0,1,2.208-.314,1.65,1.65,0,0,1,1.092,1.807,1.76,1.76,0,0,1-.707,1.006,2.287,2.287,0,0,1-1.815.44,1.784,1.784,0,0,1-1.359-1.234,1.462,1.462,0,0,1,.715-1.634" transform="translate(-236.504 -78.864)" fill="#995037"/>
        <path id="Path_443" data-name="Path 443" d="M388.286,128.5a2,2,0,0,1-.841.361,3.764,3.764,0,0,1-2.216-.212,3.85,3.85,0,0,1-1.713-1.422c-.314-.479-.377-.833-.33-.857s.22.275.566.684a4.541,4.541,0,0,0,1.634,1.21,4.471,4.471,0,0,0,2.012.306C387.932,128.531,388.262,128.436,388.286,128.5Z" transform="translate(-236.45 -78.655)" fill="#263238"/>
        <path id="Path_444" data-name="Path 444" d="M363.354,132.472a13.212,13.212,0,0,0-.3-1.65,6.742,6.742,0,0,0-2.483-3.646,6.616,6.616,0,0,0-2.805-1.226,6.758,6.758,0,0,0-3.481.3,6.286,6.286,0,0,0-1.674.911,6.066,6.066,0,0,0-1.391,1.407,6.585,6.585,0,0,0,0,7.8,6.066,6.066,0,0,0,1.391,1.407,6.285,6.285,0,0,0,1.674.911,6.711,6.711,0,0,0,8.769-4.573c.275-1.037.244-1.65.3-1.642a2.627,2.627,0,0,1,0,.432,5.394,5.394,0,0,1-.149,1.249A6.765,6.765,0,0,1,360.737,138a6.915,6.915,0,0,1-2.923,1.336,7,7,0,0,1-3.677-.283,6.584,6.584,0,0,1-1.776-.951,6.5,6.5,0,0,1-1.485-1.485,6.938,6.938,0,0,1,0-8.29,6.5,6.5,0,0,1,1.485-1.485,6.585,6.585,0,0,1,1.776-.951,6.9,6.9,0,0,1,6.6,1.053,6.766,6.766,0,0,1,2.467,3.842,5.394,5.394,0,0,1,.149,1.249,2.7,2.7,0,0,1,0,.44Z" transform="translate(-229.237 -78.463)" fill="#24d37d"/>
        <path id="Path_445" data-name="Path 445" d="M392.554,84.66a.644.644,0,0,1,.22.055,1.681,1.681,0,0,1,.55.354,2.538,2.538,0,0,1,.7,2.294,3.284,3.284,0,0,1-2.719,2.4,6.828,6.828,0,0,1-4.6-1.1l-1.619-.935,1.776.581a1.925,1.925,0,0,1,1.234,1.383,2.444,2.444,0,0,1-.251,1.878,2.617,2.617,0,0,1-1.572,1.132,3.716,3.716,0,0,1-1.988-.047,6.781,6.781,0,0,1-3.426-2.955l-1.194-1.634,1.446,1.407a3.143,3.143,0,0,1,.786,2.97,3.222,3.222,0,0,1-1.745,2.208,4.212,4.212,0,0,1-4.471-.542,5.336,5.336,0,0,1-1.729-2.554,5.4,5.4,0,0,1-.189-.786,1.521,1.521,0,0,1,0-.283c.039,0,.086.377.338,1.029a5.43,5.43,0,0,0,1.721,2.357,3.976,3.976,0,0,0,4.157.432,2.884,2.884,0,0,0,1.532-1.98,2.774,2.774,0,0,0-.684-2.593l.307-.259a6.443,6.443,0,0,0,3.2,2.782,2.766,2.766,0,0,0,3.143-.9,1.881,1.881,0,0,0-.731-2.68l.157-.354a6.561,6.561,0,0,0,4.337,1.124,3.041,3.041,0,0,0,2.562-2.169,2.483,2.483,0,0,0-.558-2.161A2.987,2.987,0,0,0,392.554,84.66Z" transform="translate(-234.432 -69.72)" fill="#455a64"/>
        <path id="Path_446" data-name="Path 446" d="M364.152,98.845s0,.055-.1.149a3.621,3.621,0,0,1-.369.393,5.123,5.123,0,0,1-1.752,1.045,5,5,0,0,1-3.143.047,5.249,5.249,0,0,1-3.143-2.7l.33-.047a5.084,5.084,0,1,1-8.549-4.463l.275.291a5.21,5.21,0,0,1-3.3,1.2,5.7,5.7,0,0,1-3.1-.849,4.715,4.715,0,0,1-1.862-2.184,5.547,5.547,0,0,1-.385-2.428,5.343,5.343,0,0,1,1.289-3.19,3.409,3.409,0,0,1,.959-.786,5.606,5.606,0,0,0-2,4.031,5.32,5.32,0,0,0,.416,2.294,4.432,4.432,0,0,0,1.76,2,5.335,5.335,0,0,0,2.915.786,4.911,4.911,0,0,0,3.049-1.116l.267.291a4.864,4.864,0,0,0-1,5.288,4.809,4.809,0,0,0,5.249,2.664,4.887,4.887,0,0,0,3.677-3.827l.086-.55.244.5a5,5,0,0,0,2.892,2.577,4.793,4.793,0,0,0,3.025,0,5.234,5.234,0,0,0,1.744-.927C364,99.018,364.152,98.83,364.152,98.845Z" transform="translate(-226.994 -69.864)" fill="#455a64"/>
        <path id="Path_447" data-name="Path 447" d="M346.4,117.662a1.964,1.964,0,0,1-.684.409,4.628,4.628,0,0,1-2.177.338,4.487,4.487,0,0,1-2.994-1.462,4.848,4.848,0,0,1-1.187-4.031l.361.157a8.077,8.077,0,0,1-2.947,2.412,6.286,6.286,0,0,1-2.868.605,5.744,5.744,0,0,1-2.632-.723,4.66,4.66,0,0,1-2.507-3.717,4.448,4.448,0,0,1,.786-2.947,3.229,3.229,0,0,1,.589-.6.786.786,0,0,1,.251-.157,4.9,4.9,0,0,0-.707.849,4.432,4.432,0,0,0-.644,2.829,4.361,4.361,0,0,0,2.42,3.434,5.634,5.634,0,0,0,5.131.071,7.732,7.732,0,0,0,2.805-2.271l.511-.66-.149.786a4.534,4.534,0,0,0,1.045,3.725,4.313,4.313,0,0,0,2.766,1.446,4.887,4.887,0,0,0,2.1-.212C346.139,117.78,346.382,117.639,346.4,117.662Z" transform="translate(-224.791 -74.709)" fill="#455a64"/>
        <path id="Path_448" data-name="Path 448" d="M406.238,98.65a2.712,2.712,0,0,1,.173,1.454,5.241,5.241,0,0,1-4.6,4.8,2.6,2.6,0,0,1-1.454-.11c0-.071.558,0,1.407-.181a5.4,5.4,0,0,0,4.345-4.55C406.253,99.208,406.167,98.658,406.238,98.65Z" transform="translate(-240.132 -72.717)" fill="#455a64"/>
        <path id="Path_449" data-name="Path 449" d="M411.3,109.12a1.5,1.5,0,0,1,.2.6,3.4,3.4,0,0,1-.165,1.721,2.687,2.687,0,0,1-1.9,1.752,2.742,2.742,0,0,1-1.572-.141,2.192,2.192,0,0,1-1.249-1.21l.393-.134a2.758,2.758,0,0,1,.1.786,3.143,3.143,0,0,1-1.972,2.8,2.609,2.609,0,0,1-1.571.071,3,3,0,0,1-1.179-.652,2.82,2.82,0,0,1-.951-1.65,1.724,1.724,0,0,1,0-.691,2.36,2.36,0,0,0,.134.66,2.938,2.938,0,0,0,.982,1.454,2.452,2.452,0,0,0,2.42.448,2.774,2.774,0,0,0,1.689-2.444,2.129,2.129,0,0,0-.086-.644l.4-.134a2.13,2.13,0,0,0,2.357,1.132,2.42,2.42,0,0,0,1.713-1.485,3.591,3.591,0,0,0,.275-1.572C411.3,109.34,411.23,109.128,411.3,109.12Z" transform="translate(-240.354 -74.96)" fill="#455a64"/>
        <path id="Path_450" data-name="Path 450" d="M382.914,124c.055,0,.086.181,0,.448a1.847,1.847,0,0,1-1.572,1.289c-.275,0-.44-.047-.432-.1a4.889,4.889,0,0,0,1.139-.637C382.584,124.534,382.8,124,382.914,124Z" transform="translate(-235.965 -78.147)" fill="#263238"/>
        <g id="Group_154" data-name="Group 154" transform="translate(114.657 250.437)">
          <text id="Component_Flap_Global_Title" data-name="Component/Flap/Global/Title" transform="translate(0 13)" font-size="13" font-family="Lato-Thin, Lato" font-weight="200"><tspan x="0" y="0">Your Score</tspan></text>
          <g id="Group_72" data-name="Group 72" transform="translate(5.581 20.771)">
            <text id="_123" data-name="123" transform="translate(4)" font-size="26" font-family="BebasNeue-Regular, Bebas Neue"><tspan x="0" y="23">7.5</tspan></text>
            <g id="star_copy_4" data-name="star copy 4" transform="translate(34.14)">
              <path id="Path" d="M7.636,0,10,4.712l5.276.76L11.454,9.138l.9,5.179L7.636,11.871,2.917,14.317l.9-5.179L0,5.472l5.276-.76L7.636,0Z" fill="#fed44a" stroke="#e67100" stroke-linecap="round" stroke-linejoin="round" stroke-width="2"/>
            </g>
          </g>
        </g>
      </g>
      <g id="freepik--Floor--inject-4" transform="translate(92.9 373.957)">
        <path id="Path_451" data-name="Path 451" d="M545.729,464.764c0,.118-101.366.2-226.4.2s-226.43-.063-226.43-.2,101.366-.2,226.43-.2S545.729,464.654,545.729,464.764Z" transform="translate(-92.9 -464.56)" fill="#263238"/>
      </g>
      <g id="freepik--Plant--inject-4" transform="translate(484.293 302.635)">
        <path id="Path_452" data-name="Path 452" d="M618.234,402.865c-1.965,2.8-5.775,1.87-7.543.165s-2.514-4.188-3.2-6.553c-1.571-5.4-3.143-11.064-1.964-16.564a9.183,9.183,0,0,1,2.122-4.5,4.778,4.778,0,0,1,4.55-1.517c1.925.5,3.143,2.357,3.984,4.18a39.549,39.549,0,0,1,3.929,16.941c0,2.734-.314,5.595-1.854,7.858" transform="translate(-594.02 -373.794)" fill="#24d37d"/>
        <g id="Group_151" data-name="Group 151" transform="translate(11.096)" opacity="0.2">
          <path id="Path_453" data-name="Path 453" d="M618.234,402.865c-1.965,2.8-5.775,1.87-7.543.165s-2.514-4.188-3.2-6.553c-1.571-5.4-3.143-11.064-1.964-16.564a9.183,9.183,0,0,1,2.122-4.5,4.778,4.778,0,0,1,4.55-1.517c1.925.5,3.143,2.357,3.984,4.18a39.549,39.549,0,0,1,3.929,16.941c0,2.734-.314,5.595-1.854,7.858" transform="translate(-605.116 -373.794)"/>
        </g>
        <path id="Path_454" data-name="Path 454" d="M607.862,428.409a17,17,0,0,0-10.577-1.289c-1.909.322-3.929.9-5.21,2.357s-1.572,3.968-.055,5.2a4.975,4.975,0,0,0,3.285.833c2.79,0,5.885-.519,8.109,1.155,1.273.959,2.122,2.554,3.638,3.025a3.607,3.607,0,0,0,3.929-1.76,6.152,6.152,0,0,0,.448-4.534A6.907,6.907,0,0,0,607.862,428.409Z" transform="translate(-590.995 -385.146)" fill="#24d37d"/>
        <path id="Path_455" data-name="Path 455" d="M628.106,409.329a10.1,10.1,0,0,1-1.572-9.374,18.072,18.072,0,0,1,5.556-8.062,29.86,29.86,0,0,1,9.948-5.87,10.465,10.465,0,0,1,4.479-.786,4.715,4.715,0,0,1,3.748,2.271c1.053,2,.047,4.416-1.037,6.4a75.9,75.9,0,0,1-6.553,10c-1.957,2.53-4.2,5.021-7.19,6.161s-6.082,1.006-7.669-1.061" transform="translate(-598.502 -376.243)" fill="#24d37d"/>
        <path id="Path_456" data-name="Path 456" d="M618.007,457.546a6,6,0,0,1-.181-1.273c-.086-.919-.2-2.09-.338-3.473a50.212,50.212,0,0,0-.786-5.092,39.492,39.492,0,0,0-1.854-6.019,22,22,0,0,0-3.072-5.437,11.464,11.464,0,0,0-3.882-3.23A10.874,10.874,0,0,0,604.625,432a6.112,6.112,0,0,1-1.265-.181,5.382,5.382,0,0,1,1.289,0,9.995,9.995,0,0,1,3.41.888,11.527,11.527,0,0,1,4.094,3.261,21.763,21.763,0,0,1,3.182,5.548,37.03,37.03,0,0,1,1.839,6.113,42.194,42.194,0,0,1,.676,5.163c.11,1.477.157,2.672.173,3.5a5.983,5.983,0,0,1-.016,1.257Z" transform="translate(-593.644 -386.216)" fill="#263238"/>
        <path id="Path_457" data-name="Path 457" d="M619.894,445.511a3.147,3.147,0,0,1,0-.589v-1.689c0-1.462,0-3.583-.078-6.208-.126-5.241-.582-12.47-1.454-20.43s-2.043-15.1-3.1-20.234c-.252-1.289-.5-2.444-.786-3.457s-.416-1.894-.605-2.6-.291-1.21-.393-1.642a2.031,2.031,0,0,1-.1-.589,2.922,2.922,0,0,1,.2.558l.487,1.619c.22.7.44,1.572.7,2.585s.542,2.161.786,3.45a192.035,192.035,0,0,1,3.261,20.257c.872,7.968,1.265,15.221,1.3,20.47,0,2.625,0,4.754-.086,6.223-.047.684-.079,1.242-.11,1.689A1.889,1.889,0,0,1,619.894,445.511Z" transform="translate(-595.79 -376.852)" fill="#263238"/>
        <path id="Path_458" data-name="Path 458" d="M621.62,432.693a10.877,10.877,0,0,1,0-1.768c.071-1.132.228-2.774.542-4.778a64.023,64.023,0,0,1,1.572-6.97,62.147,62.147,0,0,1,2.892-8.243,44,44,0,0,1,8.549-13.319,22.106,22.106,0,0,1,2.019-1.87c.306-.259.581-.519.857-.723l.786-.542a11.444,11.444,0,0,1,1.485-.951,54.957,54.957,0,0,0-4.864,4.345,46.14,46.14,0,0,0-8.337,13.311,71.787,71.787,0,0,0-4.581,15.063c-.385,1.98-.574,3.607-.707,4.715A10.857,10.857,0,0,1,621.62,432.693Z" transform="translate(-597.548 -378.022)" fill="#263238"/>
      </g>
      <g id="freepik--speech-bubble--inject-4" transform="translate(202.496 41.617)">
        <path id="Path_459" data-name="Path 459" d="M262.254,41.619a5.223,5.223,0,0,1-.55.071l-1.571.134a17.42,17.42,0,0,0-2.577.369c-.511.11-1.069.157-1.634.33s-1.179.346-1.815.526a30.26,30.26,0,0,0-8.644,4.408,30.827,30.827,0,0,0-8.431,9.6,33,33,0,0,0-4,19.126c.047.723.2,1.438.306,2.169a16.441,16.441,0,0,0,.44,2.177,30.747,30.747,0,0,0,3.379,8.534,30.339,30.339,0,0,0,14.482,12.863,28.1,28.1,0,0,0,10.137,2.161,27.337,27.337,0,0,0,10.537-1.666l1.029-.393.134-.047.126.055,14.93,7.371-.432.385-4.762-14.215-.055-.181.126-.134a31.651,31.651,0,0,0,7.646-13.044,32.555,32.555,0,0,0,.974-13.806A31.753,31.753,0,0,0,281.2,48.628a33,33,0,0,0-7.347-4.558,31.878,31.878,0,0,0-6.184-1.87l-2.31-.361-1.705-.1-1.045-.071a1.753,1.753,0,0,1-.354-.039,1.5,1.5,0,0,1,.354,0h1.045l1.721.047,2.357.322a31.2,31.2,0,0,1,6.286,1.8,32.413,32.413,0,0,1,7.473,4.542,31.824,31.824,0,0,1,6.938,8.188,32.3,32.3,0,0,1,4.157,11.787,33,33,0,0,1-.943,14.042,32.123,32.123,0,0,1-7.756,13.311l.055-.314c1.572,4.558,3.143,9.312,4.778,14.207l.244.715-.676-.33-14.93-7.363h.259l-1.053.4a27.777,27.777,0,0,1-10.773,1.674,28.649,28.649,0,0,1-10.357-2.208,30.936,30.936,0,0,1-14.749-13.154,31.267,31.267,0,0,1-3.434-8.644,15.335,15.335,0,0,1-.432-2.216c-.1-.739-.267-1.462-.306-2.2a32.144,32.144,0,0,1-.11-4.338,33.324,33.324,0,0,1,1.249-8.1,32.738,32.738,0,0,1,2.97-6.946,31.021,31.021,0,0,1,8.644-9.673,29.952,29.952,0,0,1,8.761-4.353l1.847-.5a16.3,16.3,0,0,1,1.642-.3,16.022,16.022,0,0,1,2.6-.314l1.611-.079Z" transform="translate(-232.374 -41.617)" fill="#263238"/>
        <path id="Path_460" data-name="Path 460" d="M274.365,73.526h-2.177l-4.825-6.561-.047-4.345s-3.363-.165-2.907,5.5,0,4.235,0,4.235-7.135.11-7.724.739c-.424.456-.542,7.551-.566,11.394a4.165,4.165,0,0,0,3.049,4.2,3.278,3.278,0,0,0,.786.094c1.784,0,10.859-1.572,10.859-1.572l3.764-.047Z" transform="translate(-237.459 -46.116)" fill="#24d37d"/>
        <path id="Path_461" data-name="Path 461" d="M285.87,74.89,284.7,89.781l-3.725.047-.165-14.576Z" transform="translate(-242.75 -48.745)" fill="#24d37d"/>
      </g>
    </g>
  </g>
</svg>
