<svg xmlns="http://www.w3.org/2000/svg" width="452.829" height="332.749" viewBox="0 0 452.829 332.749">
  <g id="Customer_Survey-pana" data-name="Customer Survey-pana" transform="translate(-92.9 -41.617)">
    <g id="freepik--background-simple--inject-4" transform="translate(133.194 44.994)">
      <path id="Path_380" data-name="Path 380" d="M510.275,105.528c18.859,53.865,2.562,116.688-35.234,159.458s-94.482,66.288-151.451,70.162c-40.648,2.766-94.616-4.455-128.506-27.07s-57.448-55.845-49.276-98.655c2.884-15.118,12.643-35.36,24.288-45.387,18.584-16.077,46.361-13.13,70.649-9.233s52.034,6.915,70.72-9.068c14.333-12.29,18.788-32.217,27.659-48.883,15.087-28.343,45.2-48.1,77.2-50.651a92.226,92.226,0,0,1,13.358-.086c34.535,2.294,64.756,24.123,78.947,55.7Z" transform="translate(-144.179 -45.914)" fill="#f5f5f5"/>
    </g>
    <g id="freepik--Character--inject-4" transform="translate(174.268 60.499)">
      <rect id="Rectangle_180" data-name="Rectangle 180" width="202.81" height="291.053" rx="11.55" transform="translate(0 313.662) rotate(-90)" fill="#263238"/>
      <rect id="Rectangle_181" data-name="Rectangle 181" width="190.025" height="243.065" transform="translate(19.912 307.274) rotate(-90)" fill="#fff"/>
      <circle id="Ellipse_20" data-name="Ellipse 20" cx="7.779" cy="7.779" r="7.779" transform="matrix(0.229, -0.973, 0.973, 0.229, 267.099, 218.077)" fill="#455a64"/>
      <rect id="Rectangle_182" data-name="Rectangle 182" width="61.087" height="3.214" rx="1.22" transform="translate(8.376 242.8) rotate(-90)" fill="#455a64"/>
      <g id="Group_158" data-name="Group 158">
        <circle id="Ellipse_21" data-name="Ellipse 21" cx="19.637" cy="19.637" r="19.637" transform="matrix(0.55, -0.835, 0.835, 0.55, 45.261, 223.554)" fill="#24d37d"/>
        <circle id="Ellipse_22" data-name="Ellipse 22" cx="19.637" cy="19.637" r="19.637" transform="matrix(0.55, -0.835, 0.835, 0.55, 45.261, 223.554)" fill="#fff" opacity="0.3"/>
        <path id="Path_381" data-name="Path 381" d="M279.674,336.739c.739-.063,1.414.786,1.509,1.839s-.448,1.988-1.194,2.051-1.414-.786-1.5-1.831S278.959,336.8,279.674,336.739Z" transform="translate(-214.022 -123.721)" fill="#263238"/>
        <path id="Path_382" data-name="Path 382" d="M295.529,336.41c-.739,0-1.383.786-1.43,1.9s.527,1.972,1.273,2,1.391-.786,1.43-1.894S296.276,336.441,295.529,336.41Z" transform="translate(-217.367 -123.65)" fill="#263238"/>
        <path id="Path_383" data-name="Path 383" d="M294.192,347.884c0,.228-3.662.416-8.172.416s-8.18-.189-8.18-.416,3.662-.424,8.18-.424S294.192,347.641,294.192,347.884Z" transform="translate(-213.885 -126.018)" fill="#263238"/>
        <path id="Path_384" data-name="Path 384" d="M280.859,333.74c-.047.236-.982.228-2.074.4s-1.98.456-2.1.251.707-.88,1.972-1.077S280.859,333.52,280.859,333.74Z" transform="translate(-213.636 -122.977)" fill="#263238"/>
        <path id="Path_385" data-name="Path 385" d="M299.3,334.648c-.142.189-.99-.251-2.082-.582s-2.035-.448-2.059-.692,1.045-.5,2.3-.11S299.45,334.483,299.3,334.648Z" transform="translate(-217.596 -122.934)" fill="#263238"/>
      </g>
      <g id="Group_157" data-name="Group 157">
        <circle id="Ellipse_23" data-name="Ellipse 23" cx="20.352" cy="20.352" r="20.352" transform="translate(191.327 233.248) rotate(-80.95)" fill="#24d37d"/>
        <circle id="Ellipse_24" data-name="Ellipse 24" cx="20.352" cy="20.352" r="20.352" transform="translate(191.327 233.248) rotate(-80.95)" opacity="0.3"/>
        <path id="Path_386" data-name="Path 386" d="M460.293,334.439c.786-.063,1.477.786,1.572,1.9s-.456,2.067-1.226,2.129-1.477-.786-1.572-1.9S459.523,334.5,460.293,334.439Z" transform="translate(-252.705 -123.228)" fill="#263238"/>
        <path id="Path_387" data-name="Path 387" d="M476.694,334.1c-.786,0-1.438.849-1.485,1.965s.55,2.043,1.32,2.074,1.438-.849,1.485-1.964S477.472,334.131,476.694,334.1Z" transform="translate(-256.165 -123.155)" fill="#263238"/>
        <path id="Path_388" data-name="Path 388" d="M475.317,345.125a14.057,14.057,0,0,1-2.357-1.241,13.145,13.145,0,0,0-6.058-1.493,15.119,15.119,0,0,0-6.074,1.572,13.39,13.39,0,0,1-2.428,1.163c-.071-.11.7-.786,2.153-1.682a13.193,13.193,0,0,1,6.333-1.894,11.951,11.951,0,0,1,6.365,1.815A6.083,6.083,0,0,1,475.317,345.125Z" transform="translate(-252.563 -124.752)" fill="#263238"/>
        <path id="Path_389" data-name="Path 389" d="M461.436,331.45c.071.086-.063.346-.4.636a3.292,3.292,0,0,1-1.572.786,3.017,3.017,0,0,1-1.768-.2c-.417-.189-.605-.409-.558-.511s1.061.1,2.177-.118S461.287,331.261,461.436,331.45Z" transform="translate(-252.293 -122.58)" fill="#263238"/>
        <path id="Path_390" data-name="Path 390" d="M480.6,332.358c0,.1-.189.3-.644.44a2.986,2.986,0,0,1-1.823-.063,3.671,3.671,0,0,1-1.5-1c-.3-.346-.409-.621-.33-.7s1,.519,2.1.9S480.523,332.122,480.6,332.358Z" transform="translate(-256.395 -122.498)" fill="#263238"/>
      </g>
      <path id="Path_396" data-name="Path 396" d="M410.294,265.454c0,.118-21.106.212-47.147.212S316,265.572,316,265.454s21.1-.2,47.147-.2S410.294,265.344,410.294,265.454Z" transform="translate(-222.06 -108.406)" fill="#263238"/>
      <path id="Path_397" data-name="Path 397" d="M393.807,258.252c0,.118-10.419.212-23.275.212s-23.283-.094-23.283-.212,10.419-.212,23.283-.212S393.807,258.134,393.807,258.252Z" transform="translate(-228.754 -106.862)" fill="#263238"/>
      <g id="Group_156" data-name="Group 156">
        <circle id="Ellipse_25" data-name="Ellipse 25" cx="26.811" cy="26.811" r="26.811" transform="matrix(0.307, -0.952, 0.952, 0.307, 111.396, 228.97)" fill="#24d37d"/>
        <path id="Path_398" data-name="Path 398" d="M368.915,326.4c1.014-.079,1.933,1.037,2.059,2.507s-.605,2.719-1.619,2.805-1.941-1.037-2.059-2.5S367.9,326.485,368.915,326.4Z" transform="translate(-233.046 -121.505)" fill="#263238"/>
        <path id="Path_399" data-name="Path 399" d="M390.518,326c-1.014-.047-1.894,1.116-1.949,2.585s.715,2.7,1.729,2.734,1.894-1.116,1.957-2.585S391.539,326,390.518,326Z" transform="translate(-237.605 -121.42)" fill="#263238"/>
        <path id="Path_400" data-name="Path 400" d="M388.683,337.146c.047.047-.173.322-.605.786a15.281,15.281,0,0,1-2.012,1.815,14.316,14.316,0,0,1-3.544,1.941,12.5,12.5,0,0,1-4.919.786,14.351,14.351,0,0,1-4.832-1.116,20.635,20.635,0,0,1-3.56-1.862,10.773,10.773,0,0,1-2.852-2.357,30.971,30.971,0,0,1,3.143,1.823,24.934,24.934,0,0,0,3.528,1.658,15.026,15.026,0,0,0,4.6,1,12.634,12.634,0,0,0,4.62-.668,16,16,0,0,0,3.465-1.7c.912-.629,1.65-1.155,2.13-1.572S388.644,337.107,388.683,337.146Z" transform="translate(-232.848 -123.805)" fill="#263238"/>
        <path id="Path_401" data-name="Path 401" d="M369.347,318.592c-.047.236-1.328.149-2.852.393s-2.719.707-2.837.495,1.014-1.061,2.711-1.32S369.425,318.372,369.347,318.592Z" transform="translate(-232.268 -119.725)" fill="#263238"/>
        <path id="Path_402" data-name="Path 402" d="M396.83,319.767c-.149.189-1.281-.487-2.805-.943s-2.837-.55-2.845-.786,1.407-.534,3.1,0S396.979,319.6,396.83,319.767Z" transform="translate(-238.165 -119.65)" fill="#263238"/>
        <path id="Path_403" data-name="Path 403" d="M366.189,334.7c.1,0,.275.259.3.786a3.064,3.064,0,0,1-.581,1.854,3.033,3.033,0,0,1-1.572,1.163c-.487.142-.786.071-.825,0,0-.236.99-.581,1.7-1.619S365.954,334.739,366.189,334.7Z" transform="translate(-232.237 -123.284)" fill="#263238"/>
        <path id="Path_404" data-name="Path 404" d="M396.819,337.247c0,.1-.2.267-.621.3a2.423,2.423,0,0,1-2.428-1.8c-.086-.409,0-.668.11-.676.236,0,.5.786,1.289,1.328S396.764,337.011,396.819,337.247Z" transform="translate(-238.712 -123.363)" fill="#263238"/>
        <path id="Path_405" data-name="Path 405" d="M404.626,325.581a4.727,4.727,0,0,0-.047-.542l-.1-1.572c0-.346-.039-.739-.063-1.163s-.141-.888-.212-1.391-.165-1.045-.259-1.619a18.359,18.359,0,0,0-.432-1.823,31.8,31.8,0,0,0-3.693-8.832,33.127,33.127,0,0,0-8.431-9.429l-1.438-1.061c-.5-.33-1.029-.636-1.572-.959a16.661,16.661,0,0,0-1.619-.935l-1.721-.825-.872-.417-.919-.33-1.87-.684c-.629-.212-1.3-.346-1.949-.519a15.438,15.438,0,0,0-2-.456,30.653,30.653,0,0,0-4.188-.487c-.715,0-1.438-.094-2.161-.079l-2.192.11a5.835,5.835,0,0,0-1.108.071l-1.108.173c-.731.118-1.485.2-2.224.361a33.632,33.632,0,0,0-4.416,1.3,34.832,34.832,0,0,0-4.322,1.894c-.7.385-1.367.825-2.059,1.234-.338.22-.7.4-1.022.644l-.974.731a37.869,37.869,0,0,0-3.756,3.19l-1.682,1.854-.424.471-.385.5-.786,1.014-.786,1.014-.668,1.092-.668,1.1-.33.55-.283.574-1.124,2.357-.9,2.452a32.783,32.783,0,0,0,0,20.894c.306.786.605,1.634.9,2.452s.746,1.572,1.124,2.357l.283.581.33.55.668,1.092.668,1.092.786,1.022.786,1.014.377.5.424.464,1.682,1.854a37.785,37.785,0,0,0,3.756,3.2l.982.723c.322.251.684.432,1.021.652.692.409,1.359.849,2.059,1.234a36.6,36.6,0,0,0,8.738,3.19c.739.157,1.493.244,2.232.361l1.1.173c.369.047.739.047,1.108.071l2.192.11c.723,0,1.446-.055,2.161-.079a30.485,30.485,0,0,0,4.188-.487,16.851,16.851,0,0,0,2-.456c.66-.173,1.32-.314,1.957-.519l1.862-.684.919-.33.872-.416,1.721-.825a18.011,18.011,0,0,0,1.619-.935c.527-.322,1.061-.629,1.572-.959l1.43-1.069a33.137,33.137,0,0,0,8.439-9.429,31.924,31.924,0,0,0,3.685-8.872,18.221,18.221,0,0,0,.432-1.815c.094-.574.181-1.116.259-1.619s.165-.966.212-1.391.047-.786.063-1.163c.047-.684.079-1.21.1-1.572s.047-.542.047-.542v.542c0,.361-.039.9-.063,1.572a9.982,9.982,0,0,1-.047,1.171c-.047.385-.126.9-.189,1.4s-.157,1.053-.244,1.634a18.6,18.6,0,0,1-.417,1.823,31.54,31.54,0,0,1-3.638,8.934,33.2,33.2,0,0,1-8.455,9.524l-1.446,1.084c-.5.338-1.037.644-1.572.974a14.009,14.009,0,0,1-1.634.943l-1.729.841-.88.448-.927.338-1.878.691c-.644.22-1.312.354-1.972.534a17.286,17.286,0,0,1-2.027.471,31.044,31.044,0,0,1-4.235.5c-.715,0-1.446.1-2.177.094l-2.216-.11a5.8,5.8,0,0,1-1.124-.071l-1.116-.173c-.747-.118-1.509-.2-2.255-.361a36.106,36.106,0,0,1-4.471-1.3,35.564,35.564,0,0,1-4.369-1.909c-.715-.385-1.391-.833-2.09-1.249a10.918,10.918,0,0,1-1.037-.652l-.99-.739a37.519,37.519,0,0,1-3.8-3.222l-1.705-1.878-.432-.471-.385-.511-.786-1.022-.786-1.037-.676-1.1-.676-1.108-.338-.558-.283-.589-1.139-2.357c-.306-.825-.605-1.658-.912-2.483a33.222,33.222,0,0,1,0-21.153l.912-2.483,1.139-2.357.291-.589.338-.558.676-1.108.676-1.1.786-1.029.786-1.029.385-.511.424-.471c.574-.621,1.139-1.249,1.705-1.87a38.624,38.624,0,0,1,3.8-3.23l.99-.739c.33-.244.692-.432,1.037-.652.7-.409,1.383-.857,2.09-1.241a35.574,35.574,0,0,1,4.369-1.91,36.106,36.106,0,0,1,4.471-1.3c.746-.157,1.509-.244,2.255-.361l1.116-.173c.369-.047.746-.047,1.116-.071l2.216-.11c.739,0,1.462.063,2.184.094a31.014,31.014,0,0,1,4.235.495,19.455,19.455,0,0,1,2.027.464c.66.189,1.328.322,1.965.534l1.886.692.927.346.88.424,1.737.833c.581.267,1.092.644,1.627.951s1.069.636,1.572.974l1.446,1.084a33.2,33.2,0,0,1,8.455,9.508,31.6,31.6,0,0,1,3.646,8.911c.141.652.354,1.249.416,1.831s.165,1.124.244,1.634.149.966.189,1.4,0,.786.047,1.163c0,.691.047,1.218.063,1.572A3.588,3.588,0,0,1,404.626,325.581Z" transform="translate(-226.726 -114.165)" fill="#24d37d"/>
      </g>
      <rect id="Rectangle_183" data-name="Rectangle 183" width="243.065" height="12.125" transform="translate(19.912 117.248)" fill="#e0e0e0"/>
      <path id="Path_406" data-name="Path 406" d="M230.875,221.7a1.642,1.642,0,1,1-1.642-1.642A1.642,1.642,0,0,1,230.875,221.7Z" transform="translate(-203.121 -98.725)" fill="#fff"/>
      <path id="Path_407" data-name="Path 407" d="M237.815,221.7a1.642,1.642,0,1,1-1.642-1.642A1.642,1.642,0,0,1,237.815,221.7Z" transform="translate(-204.608 -98.725)" fill="#fff"/>
      <path id="Path_408" data-name="Path 408" d="M244.765,221.7a1.642,1.642,0,1,1-1.642-1.642A1.642,1.642,0,0,1,244.765,221.7Z" transform="translate(-206.096 -98.725)" fill="#fff"/>
      <path id="Path_409" data-name="Path 409" d="M445.641,277.624c0,.118-42.173.212-94.191.212s-94.2-.094-94.2-.212,42.173-.2,94.2-.2S445.641,277.514,445.641,277.624Z" transform="translate(-209.475 -111.013)" fill="#e0e0e0"/>
      <path id="Path_410" data-name="Path 410" d="M445.641,283.572c0,.11-42.173.2-94.191.2s-94.2-.094-94.2-.2,42.173-.212,94.2-.212S445.641,283.454,445.641,283.572Z" transform="translate(-209.475 -112.286)" fill="#e0e0e0"/>
      <path id="Path_413" data-name="Path 413" d="M356.894,267c-.4-1.3-.126-2.145,1.776-1.5,4.2,1.407,7.944.943,8.856.134s.078-2.357-1.289-2.239a16.559,16.559,0,0,1-4.416-.613,10.8,10.8,0,0,1-3.292-1.391c-.88-.558-1.634-1.084-2.3-1.572,0,0-3.874-2.8-5.084-5.045l-13.272,5.681,2.137,6.648a7.072,7.072,0,0,0,4.487,5.139c3.8,1.234,9.83.786,9.83.786,1.108-.723,5.375,5.453,6.671,7.63s2.829,2.452,3.332,1.124c.338-.911-3.457-7.677-4.778-9.806a25.779,25.779,0,0,1-2.656-4.99" transform="translate(-226.745 -106.161)" fill="#b77153"/>
      <path id="Path_414" data-name="Path 414" d="M349.927,276.85c0,.047-.33,0-.786-.189a3.277,3.277,0,0,1-1.391-1.352,3.4,3.4,0,0,1-.432-1.894c.047-.5.2-.786.251-.786a4.385,4.385,0,0,0,2.357,4.2Z" transform="translate(-228.768 -109.987)" fill="#995037"/>
      <path id="Path_415" data-name="Path 415" d="M355.332,277.134c0,.047-.314,0-.739-.212a3.292,3.292,0,0,1-1.3-1.328,3.371,3.371,0,0,1-.409-1.815c.047-.479.181-.786.236-.731a6.2,6.2,0,0,0,.542,2.357,6.381,6.381,0,0,0,1.666,1.729Z" transform="translate(-229.961 -110.075)" fill="#995037"/>
      <path id="Path_417" data-name="Path 417" d="M314.84,199.92a3.3,3.3,0,0,1,.3.283l.786.88,2.829,3.269c2.357,2.766,5.634,6.616,9.217,10.883s6.813,8.148,9.131,11l2.727,3.355.731.927c.157.212.244.33.228.338a1.613,1.613,0,0,1-.291-.283l-.786-.88c-.715-.786-1.666-1.925-2.829-3.269-2.357-2.766-5.642-6.616-9.225-10.883s-6.8-8.148-9.131-11l-2.727-3.355c-.291-.369-.534-.676-.723-.927a1.746,1.746,0,0,1-.236-.338Z" transform="translate(-221.811 -94.411)" fill="#263238"/>
      <path id="Path_418" data-name="Path 418" d="M407.643,201.807a14.221,14.221,0,0,0,.5-3.143,9.28,9.28,0,0,0-2.75-6.789c-1.022-1.076-2.122-2-3.01-2.978a9.067,9.067,0,0,1-1.886-2.939,5.194,5.194,0,0,1-.346-2.357,2.169,2.169,0,0,1,.22-.841,5.909,5.909,0,0,0,.4,3.065,9.493,9.493,0,0,0,1.894,2.79c.88.935,1.98,1.847,3.025,2.947a9.627,9.627,0,0,1,2.271,3.63,9.307,9.307,0,0,1,.479,3.457,8.12,8.12,0,0,1-.448,2.31,2.78,2.78,0,0,1-.354.849Z" transform="translate(-240.084 -90.735)" fill="#263238"/>
      <path id="Path_419" data-name="Path 419" d="M333.488,159.157s.212-.11.613-.291a17.5,17.5,0,0,1,1.823-.66,15.718,15.718,0,0,1,3.017-.613,10.263,10.263,0,0,1,4.07.377,9.484,9.484,0,0,1,4.157,2.672,11,11,0,0,1,2.53,5.115,19.408,19.408,0,0,1,.4,6.286,13.659,13.659,0,0,1-2.357,6.286,17.287,17.287,0,0,1-5.037,4.471c-1.847,1.163-3.7,2.106-5.461,3.033l-9.359,4.919L321.6,194.03l-1.729.872a3.358,3.358,0,0,1-.621.275,5.135,5.135,0,0,1,.581-.354l1.689-.943,6.286-3.395,9.3-4.99c1.752-.935,3.615-1.894,5.43-3.049a17.075,17.075,0,0,0,4.919-4.361,13.225,13.225,0,0,0,2.263-6.121,19.305,19.305,0,0,0-.369-6.129A10.7,10.7,0,0,0,347,160.894,9.122,9.122,0,0,0,343,158.269a10.216,10.216,0,0,0-3.929-.432,16.2,16.2,0,0,0-2.994.542c-.786.228-1.422.432-1.839.581A3.211,3.211,0,0,1,333.488,159.157Z" transform="translate(-222.756 -85.331)" fill="#263238"/>
      <path id="Path_420" data-name="Path 420" d="M318.961,202.828a21.532,21.532,0,0,0-2.357-5.618,23.846,23.846,0,0,0-4.165-4.44,5.4,5.4,0,0,1,1.572.959,13.5,13.5,0,0,1,4.715,7.292A5.312,5.312,0,0,1,318.961,202.828Z" transform="translate(-221.297 -92.879)" fill="#263238"/>
      <path id="Path_421" data-name="Path 421" d="M392.359,194.694a5.093,5.093,0,0,1-.9.244,9.123,9.123,0,0,1-2.656.118,9.87,9.87,0,0,1-3.992-1.312,9.186,9.186,0,0,1-3.685-4.141,9.768,9.768,0,0,1-.511-6.687,5.5,5.5,0,0,1,2.224-3.08,2.758,2.758,0,0,1,2.012-.416,2.97,2.97,0,0,1,1.744,1.163,9.728,9.728,0,0,1,.943,8.384,9.949,9.949,0,0,1-2.357,3.929,9.092,9.092,0,0,1-4.094,2.357,9.367,9.367,0,0,1-8.8-2.106,9.186,9.186,0,0,1-2.632-7.984,7.961,7.961,0,0,1,1.572-3.693,4,4,0,0,1,1.572-1.2,2.531,2.531,0,0,1,1.933,0,3.6,3.6,0,0,1,2.051,2.86,6.035,6.035,0,0,1-.636,3.206A15.363,15.363,0,0,1,372.8,190.8a15.864,15.864,0,0,1-3.434,2.428,14.812,14.812,0,0,1-2.452,1.029c-.283.094-.511.141-.66.181a.928.928,0,0,1-.236.047.786.786,0,0,1,.22-.086c.149-.055.369-.118.652-.228a16.5,16.5,0,0,0,2.4-1.084,16.243,16.243,0,0,0,3.355-2.459,15.246,15.246,0,0,0,3.237-4.408,5.816,5.816,0,0,0,.581-3.049,3.284,3.284,0,0,0-1.862-2.577,2.184,2.184,0,0,0-1.666,0,3.606,3.606,0,0,0-1.414,1.1,7.511,7.511,0,0,0-1.509,3.528,8.793,8.793,0,0,0,2.53,7.622,8.95,8.95,0,0,0,8.392,1.957,8.581,8.581,0,0,0,3.929-2.2,9.516,9.516,0,0,0,2.287-3.732,10.214,10.214,0,0,0,.464-4.22,8.336,8.336,0,0,0-.432-2.019,5.823,5.823,0,0,0-.88-1.784,2.624,2.624,0,0,0-1.524-1.029,2.357,2.357,0,0,0-1.737.361,5.1,5.1,0,0,0-2.106,2.837,9.484,9.484,0,0,0,.44,6.467,8.926,8.926,0,0,0,3.544,4.062,9.7,9.7,0,0,0,3.89,1.352A10.743,10.743,0,0,0,392.359,194.694Z" transform="translate(-232.775 -90.01)" fill="#fafafa"/>
      <path id="Path_422" data-name="Path 422" d="M403.035,137.268a9.525,9.525,0,0,1-1.878-3.732,2.5,2.5,0,0,1-.047-1.359,1.037,1.037,0,0,1,1.014-.786c.471,0,.786.479,1.045.88a20.3,20.3,0,0,1,1.933,3.677,2.783,2.783,0,0,1,.228,1.116,1.124,1.124,0,0,1-.542.951,1.163,1.163,0,0,1-1.187-.157,3.512,3.512,0,0,1-.786-.951" transform="translate(-240.277 -79.731)" fill="#995037"/>
      <path id="Path_423" data-name="Path 423" d="M405.465,135.875l-2.074-4.353a3.5,3.5,0,0,1-.432-1.352,1.179,1.179,0,0,1,.668-1.163,1.163,1.163,0,0,1,1.147.3,3.286,3.286,0,0,1,.7,1.022l.982,1.909a6.115,6.115,0,0,1,.644,1.619,2.09,2.09,0,0,1-.322,1.674,1.281,1.281,0,0,1-1.572.369" transform="translate(-240.687 -79.21)" fill="#995037"/>
      <path id="Path_424" data-name="Path 424" d="M393.538,148.985s-2.892-3.748-3.143-5.72,2.161-5.5,7.355-6.286a12.7,12.7,0,0,0,5.343-1.823,1.674,1.674,0,0,0,.6-2.027c-.684-1.658-1.909-4.715-1.815-5.147.244-1.061.935-1.037,2.727,1.572s3.874,5.3,3.473,6.506-6.734,4.958-6.734,4.958l1.729,2.79Z" transform="translate(-237.993 -78.859)" fill="#b77153"/>
      <g id="Group_152" data-name="Group 152" transform="translate(64.582 62.409)">
        <path id="Path_411" data-name="Path 411" d="M337.751,196.752s-1.658-3.764-1.972-4.589c-.841-2.255-6.286-17.366-4.974-19.644,6.027-10.584,10.7-18.073,22.591-18.073l21-.141s19.9-4.055,33.922,41.206Z" transform="translate(-289.769 -147.028)" fill="#0648fa"/>
        <path id="Path_412" data-name="Path 412" d="M282.317,200.518l27.5-5.925,32.327-17,.118-23.2c-4.848-1.336-14.144,2.027-30.842,10.537L286.6,177.746a14.694,14.694,0,0,0-4.283,22.788Z" transform="translate(-278.637 -147.006)" fill="#0648fa"/>
        <path id="Path_416" data-name="Path 416" d="M282.32,207.5s42.134,48.42,42.079,47.618,18.859-14.93,18.859-14.93L301.98,191Z" transform="translate(-279.426 -154.909)" fill="#0648fa"/>
        <path id="Path_425" data-name="Path 425" d="M410.825,191.321,390.89,152.26l12.84-7.19L430.7,187.816s1.422,2.735,3.41,5.933H411.5" transform="translate(-302.684 -145.07)" fill="#0648fa"/>
      </g>
      <path id="Path_426" data-name="Path 426" d="M403.44,145.07a1.86,1.86,0,0,1-.22.157l-.676.409-2.577,1.5-9.272,5.28.071-.236c1.941,3.929,4.463,8.526,7,13.5,3.78,7.347,7.072,14.081,9.351,18.984,1.147,2.452,2.059,4.447,2.68,5.823.291.668.527,1.194.7,1.572a2.869,2.869,0,0,1,.22.566,2.971,2.971,0,0,1-.3-.534c-.189-.393-.448-.912-.786-1.572l-2.8-5.768c-2.357-4.864-5.673-11.575-9.429-18.922-2.538-4.966-5.045-9.547-6.954-13.523l-.071-.157.149-.086,9.343-5.147,2.632-1.422.7-.361A.916.916,0,0,1,403.44,145.07Z" transform="translate(-237.994 -82.661)" fill="#263238"/>
      <path id="Path_427" data-name="Path 427" d="M338.794,205.848a24.146,24.146,0,0,1-3.324-9.178c.126,0,.668,2.09,1.572,4.613S338.9,205.793,338.794,205.848Z" transform="translate(-226.231 -93.715)" fill="#263238"/>
      <path id="Path_428" data-name="Path 428" d="M394.757,126.3a7.858,7.858,0,0,0,9.3-11.92c4.5-1.139,7.308-6.333,6.4-10.891s-4.974-8.109-9.516-9.091a10.215,10.215,0,0,0-5.265.134A6.475,6.475,0,0,0,391.74,97.9" transform="translate(-238.285 -71.745)" fill="#263238"/>
      <path id="Path_429" data-name="Path 429" d="M393.293,122.041c0,.047-.582.157-1.532.652a6.765,6.765,0,0,0-3.009,3.237,6.663,6.663,0,0,0,.5,6.333,6.349,6.349,0,0,0,1.257,1.43,6.238,6.238,0,0,0,1.682,1.045A6.6,6.6,0,0,0,399.807,133a6.4,6.4,0,0,0,1.061-1.674,6.512,6.512,0,0,0,.511-1.831,6.726,6.726,0,0,0-6.412-7.543c-1.077-.039-1.666.134-1.674.079a1.643,1.643,0,0,1,.424-.118,5.707,5.707,0,0,1,1.249-.126,6.9,6.9,0,0,1,6.828,7.748,6.205,6.205,0,0,1-.526,1.941,6.457,6.457,0,0,1-1.116,1.784,6.978,6.978,0,0,1-8.086,1.847,6.68,6.68,0,0,1-1.776-1.124,6.5,6.5,0,0,1-1.32-1.517,7.072,7.072,0,0,1-1.092-3.52,6.883,6.883,0,0,1,3.843-6.4,5.358,5.358,0,0,1,1.186-.432A1.729,1.729,0,0,1,393.293,122.041Z" transform="translate(-237.457 -77.674)" fill="#24d37d"/>
      <path id="Path_430" data-name="Path 430" d="M383.083,97.631a7.724,7.724,0,0,0,3.63-14.278,9.594,9.594,0,0,0-14.325-11.229A12.73,12.73,0,0,0,348.815,75.9a12.305,12.305,0,0,0-15.794,16.7,9.535,9.535,0,0,0,1.619,19,8.408,8.408,0,0,0,12.745,9.429,9.209,9.209,0,0,0,16.549-1.9" transform="translate(-223.837 -65.647)" fill="#263238"/>
      <path id="Path_431" data-name="Path 431" d="M380.564,138.688c.165-3.827.369-7.292.369-7.292s8.557-1.077,8.926-9.807-.5-28.83-.5-28.83L373.641,85.2,356.7,98.841l2.656,40.075a10.64,10.64,0,0,0,11.1,9.917h0A10.624,10.624,0,0,0,380.564,138.688Z" transform="translate(-230.779 -69.836)" fill="#ffcfba"/>
      <path id="Path_432" data-name="Path 432" d="M396.551,113.483c-.142.149-.959-.534-2.13-.581s-2.043.55-2.161.393.079-.338.456-.621a2.766,2.766,0,0,1,1.737-.5,2.813,2.813,0,0,1,1.689.652C396.5,113.145,396.614,113.42,396.551,113.483Z" transform="translate(-238.389 -75.614)" fill="#263238"/>
      <path id="Path_433" data-name="Path 433" d="M380.03,113.483c-.141.149-.951-.534-2.129-.581s-2.035.55-2.161.393.079-.338.456-.621a2.766,2.766,0,0,1,1.737-.5,2.813,2.813,0,0,1,1.689.652C379.975,113.145,380.093,113.42,380.03,113.483Z" transform="translate(-234.85 -75.614)" fill="#263238"/>
      <path id="Path_434" data-name="Path 434" d="M386.706,122.192a6.994,6.994,0,0,1,1.909-.291c.3,0,.581-.079.637-.291a1.752,1.752,0,0,0-.181-.959q-.409-1.179-.849-2.475a44.055,44.055,0,0,1-1.886-6.467A44.79,44.79,0,0,1,388.694,118l.786,2.491a2.058,2.058,0,0,1,.134,1.265.786.786,0,0,1-.5.448,1.721,1.721,0,0,1-.5.055,7.157,7.157,0,0,1-1.9-.063Z" transform="translate(-237.124 -75.515)" fill="#263238"/>
      <path id="Path_435" data-name="Path 435" d="M384.453,142.989a20.808,20.808,0,0,1-11.323-3.709s2.664,6.357,11.174,5.854Z" transform="translate(-234.298 -81.421)" fill="#995037"/>
      <path id="Path_436" data-name="Path 436" d="M371.52,85.446a11.535,11.535,0,0,0,.157,13.358,6.7,6.7,0,0,0,5.288,2.947c2.1-.079,4.125-2.059,3.677-4.11a4.337,4.337,0,1,0,8.314.149,7.922,7.922,0,0,0,.982,2.672,2.648,2.648,0,0,0,2.412,1.273c1.312-.173,2.075-1.572,2.357-2.884a11.842,11.842,0,0,0-3.339-10.907,14.317,14.317,0,0,0-10.907-3.827,18.222,18.222,0,0,0-10.71,4.715" transform="translate(-233.514 -69.595)" fill="#263238"/>
      <path id="Path_437" data-name="Path 437" d="M368.253,89.74a20.242,20.242,0,0,1,1.76,7.858,10.506,10.506,0,0,1-2.829,7.355,7.143,7.143,0,0,1-7.426,1.784,8.266,8.266,0,0,1-1.084,6.97,5.282,5.282,0,0,1-6.467,1.7c-1.933-1.053-2.766-3.395-3.033-5.579a17.869,17.869,0,0,1,19.432-19.935" transform="translate(-229.139 -70.808)" fill="#263238"/>
      <path id="Path_438" data-name="Path 438" d="M358.391,116.123a3.058,3.058,0,0,0-3.677.88,5.021,5.021,0,0,0,5,8.235" transform="translate(-230.073 -76.391)" fill="#ffcfba"/>
      <path id="Path_439" data-name="Path 439" d="M358.622,123.332c0,.047-.385.1-.99-.063a2.648,2.648,0,0,1-1.792-1.572,1.941,1.941,0,0,1,.047-1.4,2.1,2.1,0,0,1,.723-.857c.542-.354.951-.346.959-.3s-.354.165-.786.534a1.721,1.721,0,0,0-.558,1.886,2.624,2.624,0,0,0,1.5,1.454C358.3,123.214,358.63,123.269,358.622,123.332Z" transform="translate(-230.572 -77.102)" fill="#995037"/>
      <path id="Path_440" data-name="Path 440" d="M380.54,108.943c-.11.338-1.391.212-2.907.283s-2.782.259-2.915-.071,1.1-1.124,2.868-1.187S380.658,108.621,380.54,108.943Z" transform="translate(-234.636 -74.712)" fill="#263238"/>
      <path id="Path_441" data-name="Path 441" d="M396.649,108.525c-.134.118-.393,0-.7-.039a3.034,3.034,0,0,0-1.069-.063c-.456,0-.959.126-1.344.118s-.652-.086-.7-.259.126-.377.448-.6a3.417,3.417,0,0,1,1.485-.519,1.98,1.98,0,0,1,1.689.6C396.751,108.116,396.775,108.415,396.649,108.525Z" transform="translate(-238.519 -74.538)" fill="#263238"/>
      <path id="Path_442" data-name="Path 442" d="M384.05,127.774a2.656,2.656,0,0,1,2.208-.314,1.65,1.65,0,0,1,1.092,1.807,1.76,1.76,0,0,1-.707,1.006,2.287,2.287,0,0,1-1.815.44,1.784,1.784,0,0,1-1.359-1.234,1.462,1.462,0,0,1,.715-1.634" transform="translate(-236.504 -78.864)" fill="#995037"/>
      <path id="Path_443" data-name="Path 443" d="M388.286,128.5a2,2,0,0,1-.841.361,3.764,3.764,0,0,1-2.216-.212,3.85,3.85,0,0,1-1.713-1.422c-.314-.479-.377-.833-.33-.857s.22.275.566.684a4.541,4.541,0,0,0,1.634,1.21,4.471,4.471,0,0,0,2.012.306C387.932,128.531,388.262,128.436,388.286,128.5Z" transform="translate(-236.45 -78.655)" fill="#263238"/>
      <path id="Path_444" data-name="Path 444" d="M363.354,132.472a13.212,13.212,0,0,0-.3-1.65,6.742,6.742,0,0,0-2.483-3.646,6.616,6.616,0,0,0-2.805-1.226,6.758,6.758,0,0,0-3.481.3,6.286,6.286,0,0,0-1.674.911,6.066,6.066,0,0,0-1.391,1.407,6.585,6.585,0,0,0,0,7.8,6.066,6.066,0,0,0,1.391,1.407,6.285,6.285,0,0,0,1.674.911,6.711,6.711,0,0,0,8.769-4.573c.275-1.037.244-1.65.3-1.642a2.627,2.627,0,0,1,0,.432,5.394,5.394,0,0,1-.149,1.249A6.765,6.765,0,0,1,360.737,138a6.915,6.915,0,0,1-2.923,1.336,7,7,0,0,1-3.677-.283,6.584,6.584,0,0,1-1.776-.951,6.5,6.5,0,0,1-1.485-1.485,6.938,6.938,0,0,1,0-8.29,6.5,6.5,0,0,1,1.485-1.485,6.585,6.585,0,0,1,1.776-.951,6.9,6.9,0,0,1,6.6,1.053,6.766,6.766,0,0,1,2.467,3.842,5.394,5.394,0,0,1,.149,1.249,2.7,2.7,0,0,1,0,.44Z" transform="translate(-229.237 -78.463)" fill="#24d37d"/>
      <path id="Path_445" data-name="Path 445" d="M392.554,84.66a.644.644,0,0,1,.22.055,1.681,1.681,0,0,1,.55.354,2.538,2.538,0,0,1,.7,2.294,3.284,3.284,0,0,1-2.719,2.4,6.828,6.828,0,0,1-4.6-1.1l-1.619-.935,1.776.581a1.925,1.925,0,0,1,1.234,1.383,2.444,2.444,0,0,1-.251,1.878,2.617,2.617,0,0,1-1.572,1.132,3.716,3.716,0,0,1-1.988-.047,6.781,6.781,0,0,1-3.426-2.955l-1.194-1.634,1.446,1.407a3.143,3.143,0,0,1,.786,2.97,3.222,3.222,0,0,1-1.745,2.208,4.212,4.212,0,0,1-4.471-.542,5.336,5.336,0,0,1-1.729-2.554,5.4,5.4,0,0,1-.189-.786,1.521,1.521,0,0,1,0-.283c.039,0,.086.377.338,1.029a5.43,5.43,0,0,0,1.721,2.357,3.976,3.976,0,0,0,4.157.432,2.884,2.884,0,0,0,1.532-1.98,2.774,2.774,0,0,0-.684-2.593l.307-.259a6.443,6.443,0,0,0,3.2,2.782,2.766,2.766,0,0,0,3.143-.9,1.881,1.881,0,0,0-.731-2.68l.157-.354a6.561,6.561,0,0,0,4.337,1.124,3.041,3.041,0,0,0,2.562-2.169,2.483,2.483,0,0,0-.558-2.161A2.987,2.987,0,0,0,392.554,84.66Z" transform="translate(-234.432 -69.72)" fill="#455a64"/>
      <path id="Path_446" data-name="Path 446" d="M364.152,98.845s0,.055-.1.149a3.621,3.621,0,0,1-.369.393,5.123,5.123,0,0,1-1.752,1.045,5,5,0,0,1-3.143.047,5.249,5.249,0,0,1-3.143-2.7l.33-.047a5.084,5.084,0,1,1-8.549-4.463l.275.291a5.21,5.21,0,0,1-3.3,1.2,5.7,5.7,0,0,1-3.1-.849,4.715,4.715,0,0,1-1.862-2.184,5.547,5.547,0,0,1-.385-2.428,5.343,5.343,0,0,1,1.289-3.19,3.409,3.409,0,0,1,.959-.786,5.606,5.606,0,0,0-2,4.031,5.32,5.32,0,0,0,.416,2.294,4.432,4.432,0,0,0,1.76,2,5.335,5.335,0,0,0,2.915.786,4.911,4.911,0,0,0,3.049-1.116l.267.291a4.864,4.864,0,0,0-1,5.288,4.809,4.809,0,0,0,5.249,2.664,4.887,4.887,0,0,0,3.677-3.827l.086-.55.244.5a5,5,0,0,0,2.892,2.577,4.793,4.793,0,0,0,3.025,0,5.234,5.234,0,0,0,1.744-.927C364,99.018,364.152,98.83,364.152,98.845Z" transform="translate(-226.994 -69.864)" fill="#455a64"/>
      <path id="Path_447" data-name="Path 447" d="M346.4,117.662a1.964,1.964,0,0,1-.684.409,4.628,4.628,0,0,1-2.177.338,4.487,4.487,0,0,1-2.994-1.462,4.848,4.848,0,0,1-1.187-4.031l.361.157a8.077,8.077,0,0,1-2.947,2.412,6.286,6.286,0,0,1-2.868.605,5.744,5.744,0,0,1-2.632-.723,4.66,4.66,0,0,1-2.507-3.717,4.448,4.448,0,0,1,.786-2.947,3.229,3.229,0,0,1,.589-.6.786.786,0,0,1,.251-.157,4.9,4.9,0,0,0-.707.849,4.432,4.432,0,0,0-.644,2.829,4.361,4.361,0,0,0,2.42,3.434,5.634,5.634,0,0,0,5.131.071,7.732,7.732,0,0,0,2.805-2.271l.511-.66-.149.786a4.534,4.534,0,0,0,1.045,3.725,4.313,4.313,0,0,0,2.766,1.446,4.887,4.887,0,0,0,2.1-.212C346.139,117.78,346.382,117.639,346.4,117.662Z" transform="translate(-224.791 -74.709)" fill="#455a64"/>
      <path id="Path_448" data-name="Path 448" d="M406.238,98.65a2.712,2.712,0,0,1,.173,1.454,5.241,5.241,0,0,1-4.6,4.8,2.6,2.6,0,0,1-1.454-.11c0-.071.558,0,1.407-.181a5.4,5.4,0,0,0,4.345-4.55C406.253,99.208,406.167,98.658,406.238,98.65Z" transform="translate(-240.132 -72.717)" fill="#455a64"/>
      <path id="Path_449" data-name="Path 449" d="M411.3,109.12a1.5,1.5,0,0,1,.2.6,3.4,3.4,0,0,1-.165,1.721,2.687,2.687,0,0,1-1.9,1.752,2.742,2.742,0,0,1-1.572-.141,2.192,2.192,0,0,1-1.249-1.21l.393-.134a2.758,2.758,0,0,1,.1.786,3.143,3.143,0,0,1-1.972,2.8,2.609,2.609,0,0,1-1.571.071,3,3,0,0,1-1.179-.652,2.82,2.82,0,0,1-.951-1.65,1.724,1.724,0,0,1,0-.691,2.36,2.36,0,0,0,.134.66,2.938,2.938,0,0,0,.982,1.454,2.452,2.452,0,0,0,2.42.448,2.774,2.774,0,0,0,1.689-2.444,2.129,2.129,0,0,0-.086-.644l.4-.134a2.13,2.13,0,0,0,2.357,1.132,2.42,2.42,0,0,0,1.713-1.485,3.591,3.591,0,0,0,.275-1.572C411.3,109.34,411.23,109.128,411.3,109.12Z" transform="translate(-240.354 -74.96)" fill="#455a64"/>
      <path id="Path_450" data-name="Path 450" d="M382.914,124c.055,0,.086.181,0,.448a1.847,1.847,0,0,1-1.572,1.289c-.275,0-.44-.047-.432-.1a4.889,4.889,0,0,0,1.139-.637C382.584,124.534,382.8,124,382.914,124Z" transform="translate(-235.965 -78.147)" fill="#263238"/>
      <g id="Group_154" data-name="Group 154" transform="translate(114.657 250.437)">
        <text id="Component_Flap_Global_Title" data-name="Component/Flap/📦Global/Title" transform="translate(0 13)" font-size="13" font-family="Lato-Thin, Lato" font-weight="200"><tspan x="0" y="0">Your Score</tspan></text>
        <g id="Group_72" data-name="Group 72" transform="translate(5.581 20.771)">
          <text id="_123" data-name="123" transform="translate(4)" font-size="26" font-family="BebasNeue-Regular, Bebas Neue"><tspan x="0" y="23">7.5</tspan></text>
          <g id="star_copy_4" data-name="star copy 4" transform="translate(34.14)">
            <path id="Path" d="M7.636,0,10,4.712l5.276.76L11.454,9.138l.9,5.179L7.636,11.871,2.917,14.317l.9-5.179L0,5.472l5.276-.76L7.636,0Z" fill="#fed44a" stroke="#e67100" stroke-linecap="round" stroke-linejoin="round" stroke-width="2"/>
          </g>
        </g>
      </g>
    </g>
    <g id="freepik--Floor--inject-4" transform="translate(92.9 373.957)">
      <path id="Path_451" data-name="Path 451" d="M545.729,464.764c0,.118-101.366.2-226.4.2s-226.43-.063-226.43-.2,101.366-.2,226.43-.2S545.729,464.654,545.729,464.764Z" transform="translate(-92.9 -464.56)" fill="#263238"/>
    </g>
    <g id="freepik--Plant--inject-4" transform="translate(484.293 302.635)">
      <path id="Path_452" data-name="Path 452" d="M618.234,402.865c-1.965,2.8-5.775,1.87-7.543.165s-2.514-4.188-3.2-6.553c-1.571-5.4-3.143-11.064-1.964-16.564a9.183,9.183,0,0,1,2.122-4.5,4.778,4.778,0,0,1,4.55-1.517c1.925.5,3.143,2.357,3.984,4.18a39.549,39.549,0,0,1,3.929,16.941c0,2.734-.314,5.595-1.854,7.858" transform="translate(-594.02 -373.794)" fill="#24d37d"/>
      <g id="Group_151" data-name="Group 151" transform="translate(11.096)" opacity="0.2">
        <path id="Path_453" data-name="Path 453" d="M618.234,402.865c-1.965,2.8-5.775,1.87-7.543.165s-2.514-4.188-3.2-6.553c-1.571-5.4-3.143-11.064-1.964-16.564a9.183,9.183,0,0,1,2.122-4.5,4.778,4.778,0,0,1,4.55-1.517c1.925.5,3.143,2.357,3.984,4.18a39.549,39.549,0,0,1,3.929,16.941c0,2.734-.314,5.595-1.854,7.858" transform="translate(-605.116 -373.794)"/>
      </g>
      <path id="Path_454" data-name="Path 454" d="M607.862,428.409a17,17,0,0,0-10.577-1.289c-1.909.322-3.929.9-5.21,2.357s-1.572,3.968-.055,5.2a4.975,4.975,0,0,0,3.285.833c2.79,0,5.885-.519,8.109,1.155,1.273.959,2.122,2.554,3.638,3.025a3.607,3.607,0,0,0,3.929-1.76,6.152,6.152,0,0,0,.448-4.534A6.907,6.907,0,0,0,607.862,428.409Z" transform="translate(-590.995 -385.146)" fill="#24d37d"/>
      <path id="Path_455" data-name="Path 455" d="M628.106,409.329a10.1,10.1,0,0,1-1.572-9.374,18.072,18.072,0,0,1,5.556-8.062,29.86,29.86,0,0,1,9.948-5.87,10.465,10.465,0,0,1,4.479-.786,4.715,4.715,0,0,1,3.748,2.271c1.053,2,.047,4.416-1.037,6.4a75.9,75.9,0,0,1-6.553,10c-1.957,2.53-4.2,5.021-7.19,6.161s-6.082,1.006-7.669-1.061" transform="translate(-598.502 -376.243)" fill="#24d37d"/>
      <path id="Path_456" data-name="Path 456" d="M618.007,457.546a6,6,0,0,1-.181-1.273c-.086-.919-.2-2.09-.338-3.473a50.212,50.212,0,0,0-.786-5.092,39.492,39.492,0,0,0-1.854-6.019,22,22,0,0,0-3.072-5.437,11.464,11.464,0,0,0-3.882-3.23A10.874,10.874,0,0,0,604.625,432a6.112,6.112,0,0,1-1.265-.181,5.382,5.382,0,0,1,1.289,0,9.995,9.995,0,0,1,3.41.888,11.527,11.527,0,0,1,4.094,3.261,21.763,21.763,0,0,1,3.182,5.548,37.03,37.03,0,0,1,1.839,6.113,42.194,42.194,0,0,1,.676,5.163c.11,1.477.157,2.672.173,3.5a5.983,5.983,0,0,1-.016,1.257Z" transform="translate(-593.644 -386.216)" fill="#263238"/>
      <path id="Path_457" data-name="Path 457" d="M619.894,445.511a3.147,3.147,0,0,1,0-.589v-1.689c0-1.462,0-3.583-.078-6.208-.126-5.241-.582-12.47-1.454-20.43s-2.043-15.1-3.1-20.234c-.252-1.289-.5-2.444-.786-3.457s-.416-1.894-.605-2.6-.291-1.21-.393-1.642a2.031,2.031,0,0,1-.1-.589,2.922,2.922,0,0,1,.2.558l.487,1.619c.22.7.44,1.572.7,2.585s.542,2.161.786,3.45a192.035,192.035,0,0,1,3.261,20.257c.872,7.968,1.265,15.221,1.3,20.47,0,2.625,0,4.754-.086,6.223-.047.684-.079,1.242-.11,1.689A1.889,1.889,0,0,1,619.894,445.511Z" transform="translate(-595.79 -376.852)" fill="#263238"/>
      <path id="Path_458" data-name="Path 458" d="M621.62,432.693a10.877,10.877,0,0,1,0-1.768c.071-1.132.228-2.774.542-4.778a64.023,64.023,0,0,1,1.572-6.97,62.147,62.147,0,0,1,2.892-8.243,44,44,0,0,1,8.549-13.319,22.106,22.106,0,0,1,2.019-1.87c.306-.259.581-.519.857-.723l.786-.542a11.444,11.444,0,0,1,1.485-.951,54.957,54.957,0,0,0-4.864,4.345,46.14,46.14,0,0,0-8.337,13.311,71.787,71.787,0,0,0-4.581,15.063c-.385,1.98-.574,3.607-.707,4.715A10.857,10.857,0,0,1,621.62,432.693Z" transform="translate(-597.548 -378.022)" fill="#263238"/>
    </g>
    <g id="freepik--speech-bubble--inject-4" transform="translate(202.496 41.617)">
      <path id="Path_459" data-name="Path 459" d="M262.254,41.619a5.223,5.223,0,0,1-.55.071l-1.571.134a17.42,17.42,0,0,0-2.577.369c-.511.11-1.069.157-1.634.33s-1.179.346-1.815.526a30.26,30.26,0,0,0-8.644,4.408,30.827,30.827,0,0,0-8.431,9.6,33,33,0,0,0-4,19.126c.047.723.2,1.438.306,2.169a16.441,16.441,0,0,0,.44,2.177,30.747,30.747,0,0,0,3.379,8.534,30.339,30.339,0,0,0,14.482,12.863,28.1,28.1,0,0,0,10.137,2.161,27.337,27.337,0,0,0,10.537-1.666l1.029-.393.134-.047.126.055,14.93,7.371-.432.385-4.762-14.215-.055-.181.126-.134a31.651,31.651,0,0,0,7.646-13.044,32.555,32.555,0,0,0,.974-13.806A31.753,31.753,0,0,0,281.2,48.628a33,33,0,0,0-7.347-4.558,31.878,31.878,0,0,0-6.184-1.87l-2.31-.361-1.705-.1-1.045-.071a1.753,1.753,0,0,1-.354-.039,1.5,1.5,0,0,1,.354,0h1.045l1.721.047,2.357.322a31.2,31.2,0,0,1,6.286,1.8,32.413,32.413,0,0,1,7.473,4.542,31.824,31.824,0,0,1,6.938,8.188,32.3,32.3,0,0,1,4.157,11.787,33,33,0,0,1-.943,14.042,32.123,32.123,0,0,1-7.756,13.311l.055-.314c1.572,4.558,3.143,9.312,4.778,14.207l.244.715-.676-.33-14.93-7.363h.259l-1.053.4a27.777,27.777,0,0,1-10.773,1.674,28.649,28.649,0,0,1-10.357-2.208,30.936,30.936,0,0,1-14.749-13.154,31.267,31.267,0,0,1-3.434-8.644,15.335,15.335,0,0,1-.432-2.216c-.1-.739-.267-1.462-.306-2.2a32.144,32.144,0,0,1-.11-4.338,33.324,33.324,0,0,1,1.249-8.1,32.738,32.738,0,0,1,2.97-6.946,31.021,31.021,0,0,1,8.644-9.673,29.952,29.952,0,0,1,8.761-4.353l1.847-.5a16.3,16.3,0,0,1,1.642-.3,16.022,16.022,0,0,1,2.6-.314l1.611-.079Z" transform="translate(-232.374 -41.617)" fill="#263238"/>
      <path id="Path_460" data-name="Path 460" d="M274.365,73.526h-2.177l-4.825-6.561-.047-4.345s-3.363-.165-2.907,5.5,0,4.235,0,4.235-7.135.11-7.724.739c-.424.456-.542,7.551-.566,11.394a4.165,4.165,0,0,0,3.049,4.2,3.278,3.278,0,0,0,.786.094c1.784,0,10.859-1.572,10.859-1.572l3.764-.047Z" transform="translate(-237.459 -46.116)" fill="#24d37d"/>
      <path id="Path_461" data-name="Path 461" d="M285.87,74.89,284.7,89.781l-3.725.047-.165-14.576Z" transform="translate(-242.75 -48.745)" fill="#24d37d"/>
    </g>
  </g>
</svg>
