<svg xmlns="http://www.w3.org/2000/svg" xmlns:xlink="http://www.w3.org/1999/xlink" width="1366" height="768" viewBox="0 0 1366 768">
  <defs>
    <clipPath id="clip-path">
      <rect id="Rectangle_185" data-name="Rectangle 185" width="1366" height="768" fill="#fff" stroke="#707070" stroke-width="1"/>
    </clipPath>
  </defs>
  <g id="Mask_Group_2" data-name="Mask Group 2" clip-path="url(#clip-path)">
    <g id="Group_15" data-name="Group 15" transform="translate(40.319 0.264)">
      <g id="Group_17" data-name="Group 17" transform="translate(132.681 77.736)">
        <path id="Path_63" data-name="Path 63" d="M206.481,185.686a14.616,14.616,0,1,1-14.617-14.616,14.617,14.617,0,0,1,14.617,14.616" transform="translate(-115.746 -42.269)" fill="#31346b"/>
        <g id="Group_16" data-name="Group 16" transform="translate(416.7)">
          <path id="Path_49" data-name="Path 49" d="M381.923,80.5l27.433,27.433a48.7,48.7,0,0,0,68.879,0l15.714-15.716a8.493,8.493,0,0,1,12.011,0l.156.156a8.757,8.757,0,0,1,.035,12.405l-49.868,49.865A44.424,44.424,0,1,0,519.1,217.465L671.3,65.27l33.51,4.566-55.4,55.4a61.925,61.925,0,0,0,87.575,87.574L821.7,128.1a9.423,9.423,0,1,1,13.326,13.327l-125.46,125.46a35,35,0,0,0,49.5,49.5l86.91-86.908a10.1,10.1,0,1,1,14.278,14.279l-1.522,1.521a73.91,73.91,0,0,0,0,104.521l64.823,64.822V38.652" transform="translate(-101.298 -101.148)" fill="#b8e3db"/>
          <path id="Path_53" data-name="Path 53" d="M844.827,373.079A18.374,18.374,0,1,1,826.452,354.7a18.374,18.374,0,0,1,18.374,18.374" transform="translate(-81.637 -86.567)" fill="#ffcf54"/>
          <path id="Path_62" data-name="Path 62" d="M553.878,190.661A19.964,19.964,0,1,1,533.914,170.7a19.964,19.964,0,0,1,19.963,19.963" transform="translate(-95.207 -95.056)" fill="#0648fa"/>
          <path id="Path_93" data-name="Path 93" d="M793.625,262.47a8.154,8.154,0,1,1-8.154-8.154,8.154,8.154,0,0,1,8.154,8.154" transform="translate(-83.056 -91.199)" fill="#0648fa"/>
          <line id="Line_1" data-name="Line 1" y1="133.049" x2="133.049" transform="translate(695.583 -12.777)" fill="none" stroke="#fff" stroke-linecap="round" stroke-width="3"/>
          <line id="Line_2" data-name="Line 2" y1="69.665" x2="69.665" transform="translate(457.828 -30.991)" fill="none" stroke="#fff" stroke-linecap="round" stroke-width="3"/>
          <path id="Path_96" data-name="Path 96" d="M862.545,203.331a8.708,8.708,0,1,1-8.708-8.708,8.708,8.708,0,0,1,8.708,8.708" transform="translate(-79.928 -93.952)" fill="#f7f3ea"/>
          <path id="Path_100" data-name="Path 100" d="M766.6,68.95l-63.7,63.7a15.139,15.139,0,0,0,21.41,21.41l34.045-34.045a5.212,5.212,0,0,1,7.371,7.37l-11.583,11.583a8.19,8.19,0,1,0,11.583,11.583l31.217-31.216a22.1,22.1,0,0,1,31.282,0l.856.855,60.721-60.721S766.6,68.248,766.6,68.95" transform="translate(-86.695 -100.188)" fill="#cef0e6"/>
          <path id="Path_101" data-name="Path 101" d="M827.3,123.994l-4.806-4.664s51.541-58.3,52.75-59.509,37.133,3.914,37.133,3.914L855.111,123.49a19.608,19.608,0,0,1-27.811.5" transform="translate(-80.972 -100.18)" fill="#cef0e6"/>
        </g>
        <g id="Group_18" data-name="Group 18" transform="translate(-166 137.083)">
          <path id="Path_51" data-name="Path 51" d="M843.288,583.965a46.824,46.824,0,1,1-46.824-46.824,46.823,46.823,0,0,1,46.824,46.824" transform="translate(-71.217 -9.168)" fill="#ffcf54"/>
          <path id="Path_54" data-name="Path 54" d="M359.85,411.953a9.674,9.674,0,1,1-9.674-9.674,9.675,9.675,0,0,1,9.674,9.674" transform="translate(-132.28 -29.296)" fill="#ffcf54"/>
          <path id="Path_55" data-name="Path 55" d="M377.873,393.929a9.674,9.674,0,1,1-9.674-9.674,9.675,9.675,0,0,1,9.674,9.674" transform="translate(-129.59 -31.986)" fill="#ffcf54"/>
          <path id="Path_56" data-name="Path 56" d="M159.174,282.807a20.185,20.185,0,1,1-20.185-20.185,20.185,20.185,0,0,1,20.185,20.185" transform="translate(99.619 -273.139)" fill="#ffcf54"/>
          <path id="Path_103" data-name="Path 103" d="M159.174,282.807a20.185,20.185,0,1,1-20.185-20.185,20.185,20.185,0,0,1,20.185,20.185" transform="translate(1028.056 102.02)" fill="#ffcf54"/>
          <path id="Path_57" data-name="Path 57" d="M136.176,406.242l94.2-94.2a54.081,54.081,0,0,1,76.481,76.483l-42.9,42.9A23.743,23.743,0,0,0,297.534,465l9.327-9.327a48.8,48.8,0,1,1,69.02,69.02l-38.241,38.24a10.553,10.553,0,0,0,14.924,14.924l93.271-93.271a42.209,42.209,0,1,1,59.693,59.693l-25.184,25.182A9.234,9.234,0,1,0,493.4,582.524l2.088-2.088a113.121,113.121,0,0,1,159.98,0L698.6,623.563H0S144.57,414.636,136.176,406.242" transform="translate(-183.1 -45.128)" fill="#cef0e6"/>
          <path id="Path_92" data-name="Path 92" d="M375.286,483.32a8.958,8.958,0,1,1-8.957-8.957,8.957,8.957,0,0,1,8.957,8.957" transform="translate(-129.763 -18.537)" fill="#0648fa" stroke="#0648fa" stroke-width="1"/>
          <line id="Line_3" data-name="Line 3" y1="148.548" x2="148.548" transform="translate(-46.102 330.739)" fill="none" stroke="#fff" stroke-linecap="round" stroke-width="3"/>
          <line id="Line_4" data-name="Line 4" y1="133.146" x2="133.146" transform="translate(115.402 528.195)" fill="none" stroke="#fff" stroke-linecap="round" stroke-width="3"/>
          <line id="Line_5" data-name="Line 5" y1="133.146" x2="133.146" transform="translate(-119.052 377.024)" fill="none" stroke="#fff" stroke-linecap="round" stroke-width="3"/>
          <path id="Path_94" data-name="Path 94" d="M316.726,280.3a18.1,18.1,0,1,1-18.1-18.1,18.1,18.1,0,0,1,18.1,18.1" transform="translate(-141.231 -50.202)" fill="#cef0e6"/>
          <path id="Path_97" data-name="Path 97" d="M232.974,472.86a23.507,23.507,0,1,1-23.507-23.507,23.507,23.507,0,0,1,23.507,23.507" transform="translate(-155.346 -22.27)" fill="#fff"/>
          <path id="Path_98" data-name="Path 98" d="M625.54,508.023a80.4,80.4,0,1,0,80.4,80.4,80.5,80.5,0,0,0-80.4-80.4m0,144.949a64.552,64.552,0,1,1,64.552-64.552,64.556,64.556,0,0,1-64.552,64.552" transform="translate(601.733 -27.294)" fill="#b8e3db"/>
          <path id="Path_99" data-name="Path 99" d="M163.34,596.8c1.626-.542,63.055-62.64,86.553-86.434a12.761,12.761,0,1,1,18.1,18L248.68,547.676a6.4,6.4,0,0,0,9.054,9.054l8.048-8.048a13.99,13.99,0,1,1,19.784,19.784,5.926,5.926,0,0,0,0,8.383L308.2,599.483H161.328" transform="translate(-159.022 -13.73)" fill="#b8e3db"/>
          <line id="Line_6" data-name="Line 6" y1="166.272" x2="166.272" transform="translate(110.288 528.195)" fill="none" stroke="#0648fa" stroke-linecap="round" stroke-width="3"/>
          <line id="Line_7" data-name="Line 7" y1="166.272" x2="166.272" transform="translate(-136.456 516.482)" fill="none" stroke="#0648fa" stroke-linecap="round" stroke-width="3"/>
          <rect id="Rectangle_92" data-name="Rectangle 92" width="861" height="574" transform="translate(-30 -0.083)" fill="none"/>
        </g>
        <path id="Path_102" data-name="Path 102" d="M366.565,121.3A39.037,39.037,0,1,0,405.6,160.335,39.082,39.082,0,0,0,366.565,121.3m0,70.373a31.341,31.341,0,1,1,31.34-31.34,31.342,31.342,0,0,1-31.34,31.34" transform="translate(-415.809 -73.891)" fill="#b8e3db"/>
        <line id="Line_9" data-name="Line 9" x1="34" y1="22" transform="translate(1182.5 563.058)" fill="none" stroke="#0648fa" stroke-linecap="round" stroke-width="8"/>
      </g>
    </g>
  </g>
</svg>
