<svg xmlns="http://www.w3.org/2000/svg" xmlns:xlink="http://www.w3.org/1999/xlink" width="837.37" height="525.093" viewBox="0 0 837.37 525.093">
  <defs>
    <clipPath id="clip-path">
      <rect id="Rectangle_91" data-name="Rectangle 91" width="837.37" height="525.093" fill="none"/>
    </clipPath>
  </defs>
  <g id="Group_8" data-name="Group 8" transform="translate(-327.951 -259.972)">
    <g id="Group_5" data-name="Group 5" transform="translate(597.612 338.546)">
      <g id="Group_9" data-name="Group 9">
        <path id="Path_1" data-name="Path 1" d="M1147.9,522.876c30.508-23.549,45.093-62.931,39.9-101.246-2.723-20.094-10.84-39.559-24.238-54.7a77.63,77.63,0,0,0-21.523-17.205c-7.111-3.775-12.823-6.612-19.36-6.676-4.526-.044-8.824-.082-11.9.121-11.118.734-11.987,3.864-20.044,8.562a194.225,194.225,0,0,0-21.573,14.375c-16.214,12.618-32.036,28.208-41.524,47.02-18.273,36.232-1.337,77,23.023,105.625,12.007,14.113,27.826,22.42,46.346,22.479,18.449.06,36.309-7.1,50.9-18.356" transform="translate(-634.855 -343.015)" fill="#e8aca6"/>
        <path id="Path_2" data-name="Path 2" d="M897.634,585.221c16.237.56,32.624-6.711,46.244-17.091,13.193-10.055,24.775-24.037,31.045-40.779a72.882,72.882,0,0,0,.73-49.169,88.1,88.1,0,0,0-25.3-36.983,27.948,27.948,0,0,0-7.033-6.946c-7.19-4.778-15.863-5.62-24.126-6.094-8.134-.466-16.329-.866-24.5-.1-16.3,1.523-31.13,9.152-40.629,25.262-9.8,16.628-11.921,36.841-9.852,55.9,3.695,34.042,18.9,74.807,53.426,76" transform="translate(-625.358 -347.569)" fill="#ffe67d"/>
        <path id="Path_3" data-name="Path 3" d="M640.843,662.472c12.472,4.181,26.577,2.812,39.139-1.419,12.168-4.1,23.847-11.375,31.945-21.857a49.452,49.452,0,0,0,10.079-34.9c-1.093-11.761-5.857-22.864-12.452-32.273a22.664,22.664,0,0,0-4.1-6.593c-4.647-5.083-11.2-7.7-17.516-9.966a144.336,144.336,0,0,0-18.965-5.779c-12.925-2.71-25.891-.722-36.368,8.556-10.814,9.576-16.365,23.5-18.45,37.579-3.723,25.143.17,57.761,26.693,66.654" transform="translate(-612.951 -354.077)" fill="#c7e598"/>
      </g>
    </g>
    <g id="Group_7" data-name="Group 7" transform="translate(327.951 259.972)">
      <g id="Group_6" data-name="Group 6" clip-path="url(#clip-path)">
        <path id="Path_4" data-name="Path 4" d="M754.884,550.487c1.8-4.078.646-8.452-2.05-11.848-2.933-3.692-7.375-5.481-11.864-6.476-4.762-1.055-9.607-1.548-14.331-2.808A71.963,71.963,0,0,1,714,524.71a61.549,61.549,0,0,1-21.248-16.444c-6.442-7.938-10.093-17.682-12.192-27.594a104.642,104.642,0,0,1,3.315-54.514,97.587,97.587,0,0,1,30.443-44.77A96.559,96.559,0,0,1,763.7,360.6a87.179,87.179,0,0,1,51.45,9.389A90.049,90.049,0,0,1,851.1,405.575a82.084,82.084,0,0,1,8.73,23.884c2.085,10.692,1.777,21.754.354,32.51a146.721,146.721,0,0,1-7.413,31.551c-3.407,9.214-8.325,17.949-15.3,24.935a45.605,45.605,0,0,1-23.819,13.025c-5.14.949-10.45,1.157-15.437,2.827a18.86,18.86,0,0,0-10.287,7.807,11.676,11.676,0,0,0-.987,11.257c.774,1.652,3.222.213,2.451-1.433-1.789-3.82.216-8.08,2.946-10.871,3.482-3.558,8.354-4.76,13.12-5.522,5.048-.808,10.134-1.227,15-2.9a46.884,46.884,0,0,0,12.2-6.37c16.683-12.063,24.261-31.967,28.214-51.463,2.282-11.254,3.766-22.794,3.142-34.3a83.267,83.267,0,0,0-5.916-26.811,92.423,92.423,0,0,0-31.656-40,88.44,88.44,0,0,0-49.773-16.569A99.49,99.49,0,0,0,724.48,370.9a97.335,97.335,0,0,0-37.271,39.956,108.464,108.464,0,0,0-11.54,53.654,95.094,95.094,0,0,0,5.619,28.986,58.664,58.664,0,0,0,16.2,23.752,69.9,69.9,0,0,0,23.686,13.418,83.425,83.425,0,0,0,13.478,3.233c4.745.765,10.162,1.414,14.032,4.545,2.978,2.411,5.438,6.772,3.749,10.607-.73,1.656,1.714,3.1,2.451,1.433" transform="translate(-346.659 -265.2)"/>
        <path id="Path_5" data-name="Path 5" d="M757.673,564.224a47.078,47.078,0,0,0,18.693,2.638c3.155-.116,6.3-.426,9.433-.806,1.546-.187,3.09-.394,4.634-.6,1.413-.191,2.688-.466,3.2-1.965.588-1.734-2.154-2.478-2.737-.754.166-.487.237-.174-.219-.158-.327.011-.667.1-.994.14q-1.086.146-2.172.287c-1.423.184-2.849.356-4.276.507-2.779.293-5.568.507-8.362.553a43.438,43.438,0,0,1-16.44-2.576c-1.707-.656-2.445,2.087-.755,2.737" transform="translate(-351.027 -276.194)"/>
        <path id="Path_6" data-name="Path 6" d="M755.682,560.869a38.276,38.276,0,0,0-.945,17.871,30.813,30.813,0,0,0,2.646,8.376c1.5,2.929,4.28,3.461,7.28,3.911a79.9,79.9,0,0,0,19.577.561c2.6-.252,5.362-.551,7.445-2.29,2.191-1.827,2.828-4.879,3.373-7.539a49.476,49.476,0,0,0-.327-21.206c-.416-1.778-3.155-1.026-2.737.754a46.434,46.434,0,0,1,.852,16.614c-.331,2.522-.7,5.491-1.89,7.775-1.152,2.214-3.512,2.7-5.8,2.96a77.353,77.353,0,0,1-17.159-.029q-2.089-.234-4.161-.592c-1.2-.208-2.567-.383-3.4-1.375a10.805,10.805,0,0,1-1.579-3.437,35.635,35.635,0,0,1-1.085-3.807,35.172,35.172,0,0,1,.653-17.791c.524-1.754-2.215-2.5-2.737-.755" transform="translate(-350.886 -276.095)"/>
        <path id="Path_7" data-name="Path 7" d="M756.178,573.872a80.246,80.246,0,0,0,37.9-.052c1.782-.4,1.027-3.138-.754-2.737a77.43,77.43,0,0,1-36.39.052c-1.779-.4-2.54,2.341-.754,2.737" transform="translate(-350.943 -276.714)"/>
        <path id="Path_8" data-name="Path 8" d="M756.25,583.134c12.631,3.5,26.436,5.131,38.618-.81,1.642-.8.2-3.249-1.433-2.451-11.451,5.583-24.6,3.8-36.432.523a1.421,1.421,0,0,0-.754,2.737" transform="translate(-350.948 -277.18)"/>
        <path id="Path_9" data-name="Path 9" d="M764.709,594.241q1.584,5.09,3.169,10.18c.849,2.729,1.478,6,4.429,7.19,2.849,1.149,6.439.491,9.156-.716a8.337,8.337,0,0,0,3.4-2.573,12.766,12.766,0,0,0,1.779-4.371,79.2,79.2,0,0,0,2.214-11.763c.206-1.812-2.634-1.8-2.839,0A74.185,74.185,0,0,1,783.9,603.2c-.432,1.6-.819,3.292-2.214,4.335a9.947,9.947,0,0,1-4.62,1.7c-1.365.171-3.355.3-4.46-.707-1.052-.956-1.343-2.777-1.743-4.063q-1.709-5.488-3.417-10.979c-.541-1.738-3.282-1-2.737.755" transform="translate(-351.453 -277.779)"/>
        <path id="Path_10" data-name="Path 10" d="M769.871,558.5a317.3,317.3,0,0,0-7.03-39.109q-2.345-9.5-5.268-18.846c-1.9-6.075-3.71-12.351-6.344-18.155-2.19-4.825-6.015-9.119-11.659-9.3a7.892,7.892,0,0,0-8.262,9.261c.837,5.628,5.757,8.855,10.927,10.106a51.692,51.692,0,0,0,9.118,1.189,41.422,41.422,0,0,0,9.678-.473,22.112,22.112,0,0,0,13.955-8.1c2.954-3.907,4.483-9.7,1.852-14.182-2.7-4.6-9.021-4.559-12.43-.757-3.777,4.214-2.747,10.8.232,15.146,5.4,7.872,16.273,10.058,25.226,9.273,5.322-.467,11.338-2.06,13.3-7.659a7.294,7.294,0,0,0-1.043-7.042,7.144,7.144,0,0,0-6.046-2.387c-5.488.394-8.739,4.825-9.942,9.842a67.5,67.5,0,0,0-1.2,9.166q-.5,5.155-1.007,10.309-2.082,21.322-4.165,42.642-.5,5.153-1.007,10.309c-.177,1.817,2.663,1.8,2.839,0l3.616-37.018q.9-9.254,1.807-18.508.446-4.569.892-9.137a45.208,45.208,0,0,1,1.152-7.731c1.068-3.849,4.114-7.876,8.641-6.954a3.783,3.783,0,0,1,3.093,3.953,6.645,6.645,0,0,1-3.3,5.293c-3.781,2.338-9.02,2.433-13.336,2.152a27.54,27.54,0,0,1-11.776-3.251,14.632,14.632,0,0,1-7.273-9,8.531,8.531,0,0,1,1.094-7.143,5.723,5.723,0,0,1,5.236-2.2c4.71.789,4.333,7.343,2.855,10.566a17.119,17.119,0,0,1-9.953,8.632c-5.384,1.888-11.213,1.722-16.807,1.1-4.51-.5-10.077-1.521-12.5-5.851a6.8,6.8,0,0,1-.589-5.9,5.036,5.036,0,0,1,4.652-2.8c4.907-.108,7.945,4,9.754,8.062a149.2,149.2,0,0,1,5.453,15.63q2.637,8.31,4.84,16.747A309.679,309.679,0,0,1,765.9,549.82q.629,4.33,1.133,8.676c.21,1.793,3.051,1.814,2.839,0" transform="translate(-349.654 -271.133)"/>
        <path id="Path_11" data-name="Path 11" d="M773.174,611.7c-4.008,12.48-7.962,25.051-10.079,38.017a110.98,110.98,0,0,0-1.57,19.349c.076,5.622.455,11.5,2.743,16.715,1.952,4.45,5.5,8.053,10.343,9.132,4.313.961,9.178-.165,11.641-4.093,2.407-3.84,1.422-8.95-1.258-12.368-3.122-3.981-8.375-5.108-13.165-4.119-11.616,2.4-16.781,15.369-19.18,25.645a66.731,66.731,0,0,0-1.677,18.509,88.319,88.319,0,0,0,1.142,9.567,32.661,32.661,0,0,1,.473,9.75,34.175,34.175,0,0,1-6.958,15.709c-2.916,3.737-7.592,7.429-12.594,5.716a7.977,7.977,0,0,1-4.731-4.146A4.82,4.82,0,0,1,730,749.33c4.667-3.549,10.142.026,13.581,3.455,3.31,3.3,6.507,6.706,8.674,10.888,2.459,4.744,3.685,10.126,5.112,15.245a98.391,98.391,0,0,1,2.655,11.5,74.643,74.643,0,0,1,.677,10.36c.027,2.259.024,4.52.024,6.78a1.42,1.42,0,0,0,2.839,0c0-7.639-.017-15.167-1.72-22.653-1.113-4.89-2.56-9.7-3.986-14.51a39.011,39.011,0,0,0-6.123-12.816,57.891,57.891,0,0,0-4.594-5.237,30.419,30.419,0,0,0-6.246-5.393c-4.309-2.506-10.255-2.771-13.81,1.231-3.323,3.743-2.074,8.912,1.635,11.843,4.053,3.2,9.261,3.1,13.563.422,4.563-2.837,7.7-7.68,9.982-12.429a30.757,30.757,0,0,0,3.04-17.666c-.418-3.239-1.069-6.437-1.345-9.695a64.832,64.832,0,0,1-.127-9.124,63.694,63.694,0,0,1,3.942-18.7c1.882-5.029,4.636-10.276,9.2-13.367,4.01-2.717,9.978-3.944,14.162-.871,3.2,2.351,4.918,7.418,2.591,10.922-2.481,3.733-7.942,3.452-11.45,1.506-4.55-2.523-6.417-7.924-7.229-12.766a75.824,75.824,0,0,1-.365-18.365c1.042-13.092,4.5-25.868,8.365-38.372.935-3.027,1.9-6.044,2.867-9.06.559-1.744-2.18-2.49-2.737-.755" transform="translate(-349.328 -278.849)"/>
        <path id="Path_12" data-name="Path 12" d="M985.861,668.625c-9.221-1.023-17.008-6.926-22.652-13.992-6.28-7.862-10.873-18.01-11.49-28.12-.644-10.564,3.306-21.131,8.478-30.18a66.935,66.935,0,0,1,18.712-21.2c16.187-11.65,38.911-14.272,56.029-3.015a65.157,65.157,0,0,1,11.96,10.494,78.851,78.851,0,0,1,9.59,12.592,50.541,50.541,0,0,1,7.457,29.246,48.383,48.383,0,0,1-10.473,27.441,49.151,49.151,0,0,1-28.957,17.517c-1.79.354-1.032,3.09.755,2.737a51.674,51.674,0,0,0,37.208-71.574c-4.408-10.056-11.792-19.175-20.076-26.319a48.9,48.9,0,0,0-29.1-12.122,55.124,55.124,0,0,0-30.466,7.116,66.6,66.6,0,0,0-21.565,20.076c-6.1,8.772-10.805,19.194-12.136,29.852-1.414,11.313,2.319,22.7,8.32,32.213,5.116,8.106,12.4,15.343,21.593,18.569a30.742,30.742,0,0,0,6.817,1.508c1.813.2,1.8-2.639,0-2.839" transform="translate(-361.366 -276.228)"/>
        <path id="Path_13" data-name="Path 13" d="M987.34,677.414a38.447,38.447,0,0,1,2.175,12.988c-.049,1.849,2.686,1.795,2.839,0-.007.088.106-.219.112-.225a2.774,2.774,0,0,1,.79-.64,10.758,10.758,0,0,1,2.683-1.045,37.313,37.313,0,0,1,6.771-1.1,43.512,43.512,0,0,1,8.9.235,62.091,62.091,0,0,1,6.565,1.108,16.346,16.346,0,0,1,5.335,1.9,2.409,2.409,0,0,1,.593.512c-.16-.172.046.079.1.161-.056-.091.025.088.023.058-.016-.235-.086.41,0,0a3.74,3.74,0,0,0-.094.6,6.177,6.177,0,0,0,.044.686c.025.3-.073,1.158.207.465.255-.628.024-.252-.3-.07-.152.086-.307.171-.461.254-.365.194-.733.377-1.106.552a22.125,22.125,0,0,1-2.491.973,29.061,29.061,0,0,1-5.224,1.187,38.494,38.494,0,0,1-12.578-.532,44.943,44.943,0,0,1-6.318-1.747c-1.736-.625-3.327-1.788-3.6-3.715-.255-1.8-2.99-1.035-2.737.755.608,4.3,5.344,5.769,8.917,6.739a44.3,44.3,0,0,0,13.067,1.6,32.1,32.1,0,0,0,11.911-2.586c1.526-.676,3.615-1.339,3.594-3.282,0-.307-.044-.622-.074-.928a2.827,2.827,0,0,1-.016-.346c0,.047-.015.323.015.042a3.6,3.6,0,0,0-.038-1.422c-.546-1.988-2.821-2.96-4.569-3.6a39.1,39.1,0,0,0-7.467-1.748,50.809,50.809,0,0,0-11.095-.765,41.611,41.611,0,0,0-8.962,1.374c-2.289.668-5.1,1.834-5.334,4.551h2.839a40.874,40.874,0,0,0-2.277-13.743c-.569-1.727-3.311-.987-2.737.755" transform="translate(-363.435 -282.345)"/>
        <path id="Path_14" data-name="Path 14" d="M1029.693,690.69c.13-4.43.37-8.855.44-13.287a1.42,1.42,0,0,0-2.839,0c-.07,4.432-.309,8.857-.44,13.287-.054,1.827,2.785,1.825,2.839,0" transform="translate(-365.565 -282.364)"/>
        <path id="Path_15" data-name="Path 15" d="M990.271,694.016c.655,1.5.43,3.306.653,4.9a6.23,6.23,0,0,0,2.383,4.292c3,2.289,7.061,3.311,10.735,3.793a53.952,53.952,0,0,0,11.6.042c3.518-.3,7.726-.417,10.237-3.287,3.1-3.543,2.389-8.4,1.532-12.633-.362-1.788-3.1-1.031-2.737.755.768,3.8,1.691,9.468-2.841,11.315a20.706,20.706,0,0,1-5.99.994c-2.141.186-4.289.317-6.439.314a28.323,28.323,0,0,1-12.361-2.378,7.693,7.693,0,0,1-2.566-1.65,4.283,4.283,0,0,1-.822-2.426,17.182,17.182,0,0,0-.939-5.461c-.729-1.67-3.174-.227-2.451,1.433" transform="translate(-363.589 -283.121)"/>
        <path id="Path_16" data-name="Path 16" d="M993.162,703.067c-.893,7.469,6.077,12.062,11.8,15.064,3.139,1.647,6.334,2.857,9.826,1.494,3.082-1.2,5.564-3.6,7.66-6.1a19.348,19.348,0,0,0,4.862-10.27c.2-1.812-2.636-1.8-2.839,0-.409,3.645-2.645,6.8-5.061,9.433-2.2,2.4-5.262,5.212-8.8,4.677a16.619,16.619,0,0,1-5.1-2.154,35.407,35.407,0,0,1-4.778-2.914c-2.909-2.2-5.181-5.438-4.728-9.232.217-1.81-2.624-1.794-2.839,0" transform="translate(-363.748 -283.746)"/>
        <path id="Path_17" data-name="Path 17" d="M1010.225,688.144q-1.946-24.284-4.04-48.557c-.156-1.806-3-1.822-2.839,0q2.094,24.272,4.04,48.557c.145,1.808,2.984,1.824,2.839,0" transform="translate(-364.3 -280.329)"/>
        <path id="Path_18" data-name="Path 18" d="M1001.906,635.173a51.617,51.617,0,0,1-9.045,1.664c-2.746.244-5.718.566-7.8-1.591-1.611-1.665-2.721-4.412-1.888-6.7.671-1.84,2.956-2.928,4.637-1.714,1.08.78,2.323-.5,2.085-1.6-1.06-4.894,1.809-10.7,6.8-12.086a9.011,9.011,0,0,1,11.035,7.144c.19,1.356,1.968,1.185,2.594.339a7.218,7.218,0,0,1,12.833,5.981,1.432,1.432,0,0,0,2.372,1.38c.954-.762,2.275.222,2.812,1,.485.706,1.583,2.777.932,3.537-.6.7-2.372.651-3.173.747q-2.406.285-4.812.556a184.068,184.068,0,0,1-19,1.289,1.42,1.42,0,0,0,0,2.839,196.727,196.727,0,0,0,25.684-2.075,5.077,5.077,0,0,0,3.8-1.961c.992-1.562.356-3.525-.312-5.082-1.343-3.129-4.914-5.273-7.937-2.858l2.373,1.38a10.053,10.053,0,0,0-18.022-8.167l2.594.339c-.917-6.514-8.323-10.856-14.527-9.126-6.529,1.82-10.165,9.18-8.78,15.577l2.084-1.6c-2.443-1.764-5.957-.816-7.75,1.432-2.138,2.681-1.632,6.575,0,9.371a9.26,9.26,0,0,0,8.7,4.654,51.789,51.789,0,0,0,12.466-1.93,1.421,1.421,0,0,0-.755-2.737" transform="translate(-363.047 -278.812)"/>
        <path id="Path_19" data-name="Path 19" d="M1014.833,720.354,1020,756.69c1.715,12.058,3.6,24.112,4.74,36.243a199.38,199.38,0,0,1,.955,20.432,1.42,1.42,0,0,0,2.839,0c.108-12.245-1.218-24.431-2.852-36.55-1.642-12.173-3.435-24.325-5.164-36.485q-1.475-10.365-2.948-20.731c-.256-1.8-2.992-1.034-2.737.755" transform="translate(-364.918 -284.654)"/>
        <path id="Path_20" data-name="Path 20" d="M1079.093,562.449c1.7-9.111-2.933-17.822-9.239-24.113-6.909-6.892-15.892-11.148-23.657-16.927-15.225-11.331-24.142-29.672-29.677-47.39-3.107-9.947-4.932-20.515-3.49-30.928,1.4-10.088,5.564-19.568,10.162-28.565,8.737-17.095,20.171-33.235,35.557-44.969,14.525-11.077,32.038-17.744,50.426-17.289,17.329.428,34.2,6.637,48.532,16.21a104.719,104.719,0,0,1,19.714,17.085c6.391,7.111,12.029,15.152,15.565,24.082,3.855,9.741,4.861,20.231,4.338,30.63a127.326,127.326,0,0,1-5.153,30.213,89.754,89.754,0,0,1-12.548,26.053,103.069,103.069,0,0,1-18.346,19.521,142.151,142.151,0,0,1-22.434,15.107c-7.934,4.368-17.026,8.58-20.859,17.386a16.142,16.142,0,0,0-.717,12.064c.629,1.7,3.373.963,2.737-.755-1.546-4.168-.552-8.6,1.691-12.325,2.445-4.053,6.315-6.938,10.31-9.341,4.06-2.441,8.323-4.527,12.4-6.932,3.947-2.324,7.795-4.816,11.508-7.495,15.018-10.837,27.851-24.78,35.164-41.96a116.227,116.227,0,0,0,7.9-29.571c1.449-10.421,1.957-21.053.095-31.459-3.384-18.908-15.772-35.294-30.211-47.441-13.44-11.3-29.73-19.582-47.1-22.631a81.389,81.389,0,0,0-25.967-.452,80.122,80.122,0,0,0-26.244,8.922c-17.08,9.221-30.616,23.735-40.918,40.005a162.526,162.526,0,0,0-13.755,26.641c-3.878,9.743-5.867,19.941-4.932,30.438.932,10.454,4.119,20.573,8.1,30.236a105.131,105.131,0,0,0,13.644,24.469,66.83,66.83,0,0,0,9.587,10.14,109.141,109.141,0,0,0,12.073,8.54c8.082,5.162,16.446,10.55,20.89,19.39a20.114,20.114,0,0,1,2.105,12.654c-.334,1.786,2.4,2.551,2.737.755" transform="translate(-364.644 -264.786)"/>
        <path id="Path_21" data-name="Path 21" d="M1080.61,576.165a46.856,46.856,0,0,0,12.007.51c4.086-.232,8.169-.491,12.254-.737l12.531-.755c3.02-.182,7.6-.6,9.286,2.642,1.509,2.909-1.854,5.423-4.069,6.6a41.981,41.981,0,0,1-10.748,3.476,108.713,108.713,0,0,1-11.478,1.744c-3.839.409-8.01,1.2-11.857.6a14.143,14.143,0,0,1-9.119-5.5,7.826,7.826,0,0,1-1.794-5.636,3.722,3.722,0,0,1,3.145-3.224c1.813-.119,1.826-2.958,0-2.839-3.862.254-6.369,3.912-5.995,7.628.4,4.007,3.239,7.461,6.467,9.666a18.141,18.141,0,0,0,11.476,2.862c4.5-.254,9.018-.791,13.475-1.424a71.97,71.97,0,0,0,13.329-3.032c3.5-1.205,7.349-2.793,9.379-6.1a6.428,6.428,0,0,0-2.341-8.9c-3.729-2.364-8.723-1.422-12.87-1.172l-16.245.979c-5.324.321-10.8.946-16.08-.119-1.783-.36-2.546,2.376-.754,2.737" transform="translate(-368.142 -276.774)"/>
        <path id="Path_22" data-name="Path 22" d="M1079.7,588.567c-1.586,4.325-3.552,11.8,1.565,14.593a12.387,12.387,0,0,0,6.528,1.072c2.966-.143,5.932-.406,8.89-.66,6.212-.536,12.417-1.252,18.555-2.362,4.629-.837,10-1.854,12.994-5.873,2.548-3.419,2.338-9.44-1.909-11.437-1.644-.773-3.086,1.673-1.432,2.451,2.8,1.317,2.675,5.319.938,7.483-2.625,3.271-7.485,3.941-11.345,4.639-5.137.93-10.32,1.567-15.516,2.055-2.51.236-5.024.437-7.54.62a34.575,34.575,0,0,1-6.485.2c-2.284-.27-3.95-1.437-4.087-3.868a21.021,21.021,0,0,1,1.583-8.154c.629-1.718-2.113-2.459-2.737-.755" transform="translate(-368.316 -277.398)"/>
        <path id="Path_23" data-name="Path 23" d="M1088.931,604.97a21.73,21.73,0,0,1,2.978,4.355,46.391,46.391,0,0,1,1.79,4.569,5.468,5.468,0,0,0,3.061,3.324,12.691,12.691,0,0,0,4.927.53,106.639,106.639,0,0,0,11.614-.816,14.912,14.912,0,0,0,4.978-1.02,5.471,5.471,0,0,0,2.512-3.476,30.417,30.417,0,0,0,1.095-12.583c-.211-1.792-3.052-1.814-2.839,0,.47,3.988.367,8.556-1.161,12.335-.728,1.8-2.922,1.7-4.585,1.906q-3.172.4-6.365.606c-2.126.137-4.26.223-6.391.221-1.773,0-3.422-.114-4.176-1.951-.7-1.7-1.157-3.435-2.008-5.078a24.8,24.8,0,0,0-3.422-4.929c-1.207-1.376-3.208.639-2.007,2.007" transform="translate(-368.886 -278.191)"/>
        <path id="Path_24" data-name="Path 24" d="M1093.867,566.907c-1-17.019-2.032-34.064-4.6-50.934a218.66,218.66,0,0,0-5.223-25.046c-1.109-4.037-2.344-8.048-3.771-11.986a40.741,40.741,0,0,0-4.61-9.526,17.676,17.676,0,0,0-8.27-6.876c-2.831-.992-6.865-.59-8.759,2.013-.937,1.288-.878,3-.735,4.519a7.62,7.62,0,0,0,1.1,3.558c1.4,2.122,3.995,3.835,6.163,5.052a26.932,26.932,0,0,0,18.727,2.64,24.85,24.85,0,0,0,8.853-3.789c2.75-1.907,5.613-4.55,6.338-7.96.482-2.265.367-5.2-1.026-7.14a6.038,6.038,0,0,0-7.692-1.365c-1.989,1.24-1.974,3.6-2.331,5.632-.64,3.637,1.227,7.329,3.571,10a15.216,15.216,0,0,0,18,3.97c5.454-2.639,8.951-9,7.367-15.024-.7-2.664-2.994-4.493-5.766-3.449a9.272,9.272,0,0,0-5.776,6.723c-1.133,7.219,5.878,12.917,12.24,14.3a25.919,25.919,0,0,0,12.043-.584c3.573-.944,7.807-2.219,10.476-4.918,1.9-1.919,4.336-4.577,4.059-7.476a5.149,5.149,0,0,0-2.267-3.836,6.326,6.326,0,0,0-4.145-.506,13.507,13.507,0,0,0-8.343,4.407,55.364,55.364,0,0,0-6.3,9.938,112.87,112.87,0,0,0-8.841,22.194c-4.746,16.614-6.162,33.954-6.879,51.15-.179,4.3-.315,8.609-.451,12.914-.058,1.827,2.781,1.825,2.839,0,.914-28.924,1.943-59.331,16.08-85.375a52.913,52.913,0,0,1,5.436-8.666,10.922,10.922,0,0,1,6.756-3.753c.854-.145,2-.3,2.665.375,1.028,1.041.622,2.443-.055,3.52a13.792,13.792,0,0,1-6.138,5.367c-5.913,2.582-13.332,4.269-19.455,1.441-4.824-2.229-10.01-8.877-4.771-13.418.617-.535,1.8-1.51,2.7-1.261.823.227,1.105,1.335,1.248,2.056a10.42,10.42,0,0,1-1,6.624,11.629,11.629,0,0,1-14.15,5.178,13.621,13.621,0,0,1-6.591-5.254,10.9,10.9,0,0,1-1.771-4.2,13.212,13.212,0,0,1,.284-3.724,3.12,3.12,0,0,1,.51-1.715c.623-.682,2.022-.655,2.826-.466,1.943.453,2.076,2.783,2.029,4.42-.086,2.973-2.221,5.235-4.469,6.95a21.946,21.946,0,0,1-7.393,3.629,24.313,24.313,0,0,1-15.915-.959,22.781,22.781,0,0,1-6.344-4.134,4.51,4.51,0,0,1-1.312-1.745,6.957,6.957,0,0,1-.281-3.819c.31-.964,1.607-1.377,2.486-1.572a6.637,6.637,0,0,1,4.528.784,17.081,17.081,0,0,1,6.259,6.3,43.746,43.746,0,0,1,3.829,8.493c1.214,3.451,2.3,6.948,3.282,10.472a210.3,210.3,0,0,1,4.735,21.537c2.435,14.455,3.6,29.088,4.522,43.707q.335,5.308.641,10.619c.107,1.816,2.946,1.828,2.839,0" transform="translate(-367.232 -270.697)"/>
        <path id="Path_25" data-name="Path 25" d="M1104.637,618.951q-.944,29.233-1.889,58.466c-.291,9.013-1.144,18.254.177,27.218,1.112,7.543,4.412,15.938,11.935,19.138a10.893,10.893,0,0,0,9.857-.413,10.405,10.405,0,0,0,4.761-7.082,9.088,9.088,0,0,0-2.523-8.113,12.741,12.741,0,0,0-17.109.29c-2.647,2.746-3.648,6.479-4.139,10.159-1.193,8.96-1.519,18.084-2.125,27.1-1.243,18.488-2.615,37.086-7.15,55.114q-.85,3.381-1.85,6.722c-.523,1.754,2.216,2.5,2.737.754,4.916-16.479,6.93-33.621,8.256-50.713.672-8.661,1.176-17.333,1.82-26,.3-4.083.563-8.186,1.057-12.251.41-3.373,1.262-7.013,3.9-9.366,3.768-3.362,11.872-2.921,13.994,2.2a7.249,7.249,0,0,1-1.118,6.963,7.354,7.354,0,0,1-7.67,2.555c-7.317-1.752-10.533-9.965-11.7-16.574-1.451-8.225-.628-16.819-.359-25.113l1.751-54.223.22-6.837c.059-1.827-2.78-1.825-2.839,0" transform="translate(-369.207 -279.218)"/>
        <path id="Path_26" data-name="Path 26" d="M651.182,666.1a89.939,89.939,0,0,1-11.19-4.71,44.261,44.261,0,0,1-9.326-6.691,57.22,57.22,0,0,1-12.327-18.117,51.269,51.269,0,0,1-5.031-19.9,49.209,49.209,0,0,1,3.453-19.119c4.813-12.387,14.08-22.938,24.918-30.464,12.753-8.856,28.259-13.864,43.844-13.059a64.723,64.723,0,0,1,35.849,13.573c10.1,7.8,18,18.629,21.455,30.981a55.056,55.056,0,0,1-2.7,36.038c-4.755,11.21-13.018,21.03-23.76,26.9-5.05,2.758-10.785,3.993-15.745,6.908a14.838,14.838,0,0,0-5.716,5.484,11.074,11.074,0,0,0-1.245,4.046c-.174,1.529.422,3.679-.665,4.932-.842.973-2.409,1.174-3.613,1.287-2.063.193-4.14.289-6.208.4-4.459.234-8.942.431-13.409.389-3.384-.032-6.8-.772-8.054-4.316-1.1-3.106-.941-6.584-2.9-9.368-1.848-2.623-4.717-4.05-7.627-5.189-1.7-.666-2.439,2.078-.754,2.737,3.1,1.214,6.121,2.925,7.1,6.327.941,3.282.945,6.84,3.31,9.543,2.448,2.8,6.386,3.131,9.861,3.1q6.95-.058,13.892-.464c3.183-.182,7.547.146,10.117-2.146,2.737-2.442,1.045-6.321,2.409-9.361,2.252-5.015,8.722-6.86,13.435-8.6a55.766,55.766,0,0,0,28.621-24.4,59.713,59.713,0,0,0,7.981-36.954c-1.623-13.242-8.173-25.446-17.57-34.816a68.78,68.78,0,0,0-35.063-18.758c-15.841-3.08-32.418.079-46.575,7.634a75.451,75.451,0,0,0-30.084,28.777c-6.809,12.014-9.371,26.2-5.633,39.637a68.762,68.762,0,0,0,9.647,20.349,48.537,48.537,0,0,0,17.23,15.426,99.769,99.769,0,0,0,11.325,4.7c1.708.651,2.447-2.092.754-2.737" transform="translate(-343.158 -275.642)"/>
        <path id="Path_27" data-name="Path 27" d="M665.428,691.561a5.388,5.388,0,0,0-.5,7.909,6.789,6.789,0,0,0,4.535,1.779c2,.193,4.017.323,6.028.424a105.216,105.216,0,0,0,11.881-.02c3.372-.212,7.536-.188,10.176-2.627,2.511-2.318,2.314-6.833-1.3-7.91-1.754-.522-2.5,2.216-.754,2.737,1.19.355,1.134,1.807.52,2.647-.922,1.262-2.567,1.66-4.031,1.883a70.494,70.494,0,0,1-10.666.608c-3.577-.006-7.151-.193-10.715-.484-1.416-.115-3.124-.085-3.977-1.435a2.606,2.606,0,0,1,.807-3.5c1.424-1.144-.6-3.141-2.007-2.007" transform="translate(-346.006 -283.172)"/>
        <path id="Path_28" data-name="Path 28" d="M666.37,699.117c-1.928,2.365-3.982,5.723-1.728,8.587,1.962,2.494,5.753,2.532,8.634,2.634a72.022,72.022,0,0,0,11.941-.711c2.037-.269,4.067-.583,6.093-.921a27.83,27.83,0,0,0,5.18-1.024,4.07,4.07,0,0,0,2.864-3.665c.045-1.89-1.142-3.555-2.285-4.948-1.159-1.414-3.156.6-2.007,2.007.723.882,2.253,2.786.914,3.732-1.128.8-3.2.785-4.509,1.007-3.748.635-7.507,1.22-11.3,1.512a42.028,42.028,0,0,1-10.574-.129c-1.094-.2-2.61-.567-3.02-1.76-.518-1.506.927-3.241,1.8-4.315,1.145-1.4-.852-3.424-2.007-2.007" transform="translate(-346.018 -283.578)"/>
        <path id="Path_29" data-name="Path 29" d="M670.35,711.233q.823,2.965,1.645,5.931.412,1.482.822,2.964a7.236,7.236,0,0,0,.856,2.376c1.02,1.4,3.32,1.2,4.86,1.29a52.98,52.98,0,0,0,6.019.007,56.229,56.229,0,0,0,5.932-.659c1.948-.319,3.573-.443,4.039-2.617a63.942,63.942,0,0,0,1.338-11.931c.042-1.827-2.8-1.826-2.839,0a62.369,62.369,0,0,1-.989,9.906c-.076.407-.213.859-.248,1.27l-.088.423q.395-.367-.276-.093a17.08,17.08,0,0,0-2.329.4,49.123,49.123,0,0,1-4.969.479q-2.363.114-4.73.014-1.289-.054-2.575-.171a3.368,3.368,0,0,1-1.052-.134c.363.192.133-.073.025-.471-.891-3.25-1.8-6.495-2.7-9.743a1.421,1.421,0,0,0-2.737.755" transform="translate(-346.375 -284.043)"/>
        <path id="Path_30" data-name="Path 30" d="M678.751,688.961q-7.076-24.037-12.155-48.6-1.439-6.979-2.713-13.988l-2.084,1.6a90.024,90.024,0,0,1,10.682,8.585,1.437,1.437,0,0,0,2.229-.288,41.051,41.051,0,0,0,4.492-11.526l-2.594.34,3.886,5.7q.907,1.328,1.813,2.659a6.132,6.132,0,0,0,1.646,1.941c1.836,1.107,3.219-.775,4.337-1.977l4.787-5.14-2.423-1c1.66,16.326-4.241,32.07-5.676,48.177a63.2,63.2,0,0,0,.171,13.809,1.468,1.468,0,0,0,1.419,1.419,1.427,1.427,0,0,0,1.419-1.419c-2.126-16.285,3.686-32.1,5.368-48.14a67.311,67.311,0,0,0,.137-13.845,1.438,1.438,0,0,0-2.423-1l-3.509,3.769-1.915,2.056-.319.343q-.615.333-.1.439.412.238.052-.1-.194-.284-.388-.57-2.915-4.272-5.828-8.545a1.438,1.438,0,0,0-2.594.339,38.453,38.453,0,0,1-4.206,10.848l2.228-.288a94.929,94.929,0,0,0-11.257-9.028c-1.116-.765-2.287.494-2.084,1.6q4.486,24.65,11,48.871,1.852,6.882,3.868,13.719a1.421,1.421,0,0,0,2.737-.755" transform="translate(-345.882 -279.509)"/>
        <path id="Path_31" data-name="Path 31" d="M719.032,579.29a38.288,38.288,0,0,1,19.79,27.866c.273,1.8,3.009,1.035,2.737-.754a40.936,40.936,0,0,0-21.1-29.562c-1.613-.855-3.049,1.593-1.432,2.451" transform="translate(-348.961 -277.016)"/>
        <path id="Path_32" data-name="Path 32" d="M682.316,723.089c-2.992,23.529,2.318,46.934,3.242,70.408a134.553,134.553,0,0,1-.582,20.036c-.2,1.813,2.64,1.8,2.839,0,2.6-23.559-2.8-46.925-3.5-70.425a128.177,128.177,0,0,1,.845-20.019c.23-1.807-2.611-1.79-2.839,0" transform="translate(-346.974 -284.824)"/>
        <path id="Path_33" data-name="Path 33" d="M904.135,626.6c-5.336-.068-10.693.163-16.022-.165-3.993-.245-8.682-.521-12.152-2.743a9.392,9.392,0,0,1-3.684-3.922,10.246,10.246,0,0,1-.3-4.8c.414-5.005.382-10.062.519-15.081.131-4.855.656-9.952-1.794-14.366-2-3.6-5.336-6.2-8.6-8.57a99.443,99.443,0,0,1-9.977-7.922,72.338,72.338,0,0,1-8.559-9.619,74.73,74.73,0,0,1-14.633-48.672,78.338,78.338,0,0,1,21.024-48.457,82.487,82.487,0,0,1,46.813-24.4c18.135-2.9,37.63.181,52.036,12.148,12.473,10.363,20.441,25.432,23.865,41.138a87.1,87.1,0,0,1-5.976,54.633,74.945,74.945,0,0,1-36.082,36.4c-1.944.9-3.933,1.682-5.955,2.383a31.535,31.535,0,0,0-5.386,2.21,8.952,8.952,0,0,0-3.847,3.942c-1.032,2.289-.742,4.77-.5,7.19q.833,8.263,1.308,16.557c.2,3.551.994,9.348-2.877,11.3-2.755,1.387-6.25.866-9.219.821a1.42,1.42,0,0,0,0,2.839c3.427.051,7.077.432,10.287-1.036,4.1-1.874,4.864-6.586,4.8-10.652-.093-5.443-.624-10.915-1.119-16.334-.236-2.563-.884-5.4-.534-7.966.292-2.14,1.737-3.482,3.565-4.441a48.942,48.942,0,0,1,5.834-2.246q3.093-1.15,6.074-2.579a71.882,71.882,0,0,0,11.441-6.876,78.674,78.674,0,0,0,18.273-18.876c11.24-16.359,15.926-36.833,14.356-56.51-1.329-16.662-7.52-33.16-18.349-45.987a61.178,61.178,0,0,0-19.17-15.3,66.914,66.914,0,0,0-29.525-6.583,86.069,86.069,0,0,0-51.879,17.11,81.386,81.386,0,0,0-29.942,45.421,77.258,77.258,0,0,0,21.6,74.205,97.086,97.086,0,0,0,10.382,8.3c3.342,2.406,6.989,5.131,8.609,9.064a18.21,18.21,0,0,1,.934,7.416c-.059,2.746-.148,5.492-.222,8.236-.075,2.767-.133,5.533-.225,8.3-.062,1.876-.385,3.761-.3,5.639.169,3.927,2.906,7.023,6.254,8.842,3.814,2.072,8.59,2.428,12.837,2.689,5.329.327,10.686.1,16.022.165a1.42,1.42,0,0,0,0-2.839" transform="translate(-354.757 -269.341)"/>
        <path id="Path_34" data-name="Path 34" d="M874.368,603.351a107.679,107.679,0,0,1,43,1.913c1.772.444,2.528-2.293.755-2.737a111.261,111.261,0,0,0-44.513-1.913c-1.8.287-1.035,3.022.755,2.737" transform="translate(-357.263 -278.23)"/>
        <path id="Path_35" data-name="Path 35" d="M873.97,613.743a440.225,440.225,0,0,0,45.5,2.127,1.42,1.42,0,0,0,0-2.839,440.242,440.242,0,0,1-45.5-2.127c-1.817-.18-1.8,2.661,0,2.839" transform="translate(-357.264 -278.859)"/>
        <path id="Path_36" data-name="Path 36" d="M875.212,625.064a422.261,422.261,0,0,0,45.025,1.021c1.822-.056,1.831-2.894,0-2.839a422.261,422.261,0,0,1-45.025-1.021c-1.822-.139-1.813,2.7,0,2.839" transform="translate(-357.331 -279.468)"/>
        <path id="Path_37" data-name="Path 37" d="M884.253,639.415c1.591,4.474.632,11.275,6.636,12.521a22.939,22.939,0,0,0,4.222.331c1.776.035,3.548.168,5.325.205,2.7.057,5.9.3,7.96-1.8,2.575-2.619,2.745-6.914,3.259-10.328.269-1.787-2.466-2.558-2.737-.754s-.449,3.606-.879,5.37c-.356,1.464-.868,3.422-2.3,4.2a8.24,8.24,0,0,1-3.929.5c-2.028-.015-4.047-.144-6.072-.211-2.638-.088-5.734.291-6.918-2.607-1.062-2.6-.891-5.536-1.829-8.176-.607-1.709-3.351-.973-2.737.755" transform="translate(-357.886 -280.3)"/>
        <path id="Path_38" data-name="Path 38" d="M893.869,596.025c5.482-14.777,10.152-29.84,15.54-44.651,2.776-7.633,5.793-15.214,7.495-23.18,1.154-5.406,2.927-14.512-3.8-17.125-3.208-1.245-6.988.1-9.361,2.412-2.879,2.8-3.918,6.926-4.812,10.7l2.594-.339c-3.119-4.544-5.608-11.335-12.33-10.75a5.613,5.613,0,0,0-5.4,4.742c-.494,3.463,1.059,7.393,2.3,10.558,1.365,3.473,2.957,6.855,4.38,10.3q2.2,5.327,4.152,10.75,3.868,10.737,6.76,21.792a254.839,254.839,0,0,1,5.263,25.367c.279,1.8,3.015,1.036,2.737-.754a254.5,254.5,0,0,0-9.851-40.876q-3.262-9.855-7.321-19.418c-1.373-3.243-2.9-6.431-4.069-9.754a34.89,34.89,0,0,1-1.3-4.583c-.283-1.38-.693-3.262.389-4.411,1.54-1.635,4.6-.907,6.162.3,2.621,2.025,3.847,5.506,5.672,8.166a1.439,1.439,0,0,0,2.594-.339c.732-3.1,1.469-6.512,3.628-8.973,1.663-1.9,4.7-3.306,7.151-2.1,2.477,1.214,2.815,4.391,2.73,6.828a47.978,47.978,0,0,1-1.831,10.219c-1.857,7.132-4.6,13.981-7.1,20.9-2.465,6.833-4.787,13.718-7.117,20.6-2.591,7.647-5.183,15.293-7.991,22.863-.636,1.715,2.106,2.455,2.737.755" transform="translate(-357.861 -273.46)"/>
        <path id="Path_39" data-name="Path 39" d="M896.238,652.434a148.569,148.569,0,0,0-2.7,68.643c1.132,5.731,2.715,11.348,4.147,17.007a151.233,151.233,0,0,1,3.238,17.068,107.549,107.549,0,0,1,.754,24.686c-.969,10.018-2.957,19.937-4.279,29.913-.1.766.725,1.413,1.419,1.419a1.454,1.454,0,0,0,1.419-1.419c1.2-9.071,2.891-18.079,3.98-27.165a102.3,102.3,0,0,0,.052-23.239,159.629,159.629,0,0,0-2.5-16.31c-1.229-5.74-2.9-11.37-4.263-17.078a145.081,145.081,0,0,1,1.467-72.769,1.421,1.421,0,0,0-2.737-.755" transform="translate(-358.241 -281.04)"/>
        <path id="Path_40" data-name="Path 40" d="M532.553,741.7a23.84,23.84,0,0,0-4.1-12.519,28.728,28.728,0,0,0-4.633-5.339,67.293,67.293,0,0,0-6-4.422,43.824,43.824,0,0,1-16.191-22.244c-3.019-9.573-2.334-19.752.656-29.245a77.824,77.824,0,0,1,6.771-15.188,58.408,58.408,0,0,1,9.168-12.679c7.357-7.313,17.856-10.465,27.954-11.484,10.207-1.03,21.381-.315,30.556,4.677,8.934,4.862,15.7,13.877,19.276,23.277a43.887,43.887,0,0,1,1.116,28.638c-2.981,9.577-9.135,17.861-15.908,25.11-3.643,3.9-7.531,7.559-11.518,11.1-1.923,1.707-4.116,3.289-5.7,5.335a8.142,8.142,0,0,0-1.482,6.242,34.8,34.8,0,0,0,1.713,6.792c.573,1.726,3.315.986,2.736-.754a26.676,26.676,0,0,1-1.7-7.1c-.114-2.654,1.451-4.148,3.343-5.8,4.134-3.61,8.22-7.268,12.079-11.174,7.272-7.362,13.932-15.638,17.849-25.307a46.1,46.1,0,0,0,1.633-29.493,50.51,50.51,0,0,0-16.485-25.6c-8.448-6.776-19.275-9.141-29.919-9.16-10.511-.019-21.684,1.92-30.791,7.414-9.24,5.574-15.279,15.458-19.743,25.018-4.573,9.794-7.392,20.727-6.139,31.588a46.329,46.329,0,0,0,11.1,25.092,45.862,45.862,0,0,0,5.323,5.186c1.986,1.643,4.15,2.993,6.227,4.508a24.846,24.846,0,0,1,8.658,11.024,20.146,20.146,0,0,1,1.31,6.508c.055,1.822,2.894,1.83,2.839,0" transform="translate(-337.038 -279.637)"/>
        <path id="Path_41" data-name="Path 41" d="M533.3,747.876c-1.329.428-2.88,1.127-3.346,2.572a3.433,3.433,0,0,0,1.455,3.653c2.237,1.785,5.4,2.034,8.141,2.3,3.361.328,6.694.706,10.077.733a106.54,106.54,0,0,0,11.483-.573,49.786,49.786,0,0,0,6.926-1.1c2.041-.5,4.441-1.216,5.883-2.849,1.8-2.035.916-4.783-1.178-6.228-3.139-2.166-7.574-1.231-11.107-.973-4.755.348-9.512.643-14.267,1-2.412.179-4.824.374-7.233.6a40.66,40.66,0,0,0-6.835.871,1.421,1.421,0,0,0,.755,2.737,29.74,29.74,0,0,1,4.916-.659q2.795-.271,5.593-.493c3.427-.274,6.858-.506,10.288-.739,3.571-.242,7.139-.531,10.71-.77a11.348,11.348,0,0,1,4.719.334c.812.306,1.919,1.023,1.809,1.944a2.112,2.112,0,0,1-.765.917,8.581,8.581,0,0,1-2.48,1.138,33,33,0,0,1-5.71,1.206,89.917,89.917,0,0,1-17.143.69c-2.805-.165-5.684-.435-8.465-.852A11.5,11.5,0,0,1,533.8,752.3c-.235-.127-1.2-.669-1.159-1.024.023-.181,1.153-.577,1.415-.66,1.732-.557.991-3.3-.755-2.737" transform="translate(-338.815 -286.075)"/>
        <path id="Path_42" data-name="Path 42" d="M533.285,753.568c-1.84.755-4.487,1.93-4.609,4.258-.115,2.175,1.872,3.355,3.726,3.83a44.994,44.994,0,0,0,8.3.854q4.5.275,9,.33c5.282.071,10.548-.18,15.825-.33,2.955-.084,6.506-.058,9.127-1.623a3.937,3.937,0,0,0,2.094-3.629c-.165-2.58-2.319-4.342-4.385-5.555a1.42,1.42,0,0,0-1.433,2.451c1.184.694,2.914,1.737,2.989,3.287a.693.693,0,0,1-.167.57,2.734,2.734,0,0,1-1.044.69c-2.085.9-4.627.892-6.857.961-8.706.272-17.367.532-26.069-.049a32.488,32.488,0,0,1-6.953-.782c-.494-.146-1.489-.393-1.227-1.024.3-.714,1.792-1.239,2.433-1.5,1.668-.684.938-3.431-.754-2.737" transform="translate(-338.754 -286.426)"/>
        <path id="Path_43" data-name="Path 43" d="M533.073,760.255c-1.591,1.06-2.6,2.73-1.872,4.648a5.839,5.839,0,0,0,4.03,3.323,31.385,31.385,0,0,0,6.2.6c2.249.1,4.5.18,6.756.106,2.421-.079,4.834-.3,7.252-.438,2.67-.152,5.337-.108,8.01-.128,3.753-.029,8.076.232,11.667-1.08a6.287,6.287,0,0,0,3.872-3.874c.669-2.136-.693-3.836-2.556-4.714-1.643-.775-3.086,1.672-1.433,2.451,1.245.588,1.68,1.115.8,2.275a4.524,4.524,0,0,1-2.976,1.55,47.825,47.825,0,0,1-9.371.554c-3.994.03-7.944.123-11.93.39a90.49,90.49,0,0,1-10.841.033,17.32,17.32,0,0,1-5.138-.6c-1.193-.464-2.479-1.685-1.031-2.649,1.513-1.008.094-3.467-1.432-2.451" transform="translate(-338.877 -286.805)"/>
        <path id="Path_44" data-name="Path 44" d="M536.014,766.527c-3.183.762-4.029,5.806-1.9,7.99a8.079,8.079,0,0,0,5.4,2.044c2.792.073,5.613-.095,8.4-.2,5.626-.205,11.247-.524,16.873-.727,2.76-.1,5.538-.045,8.294-.192a12.749,12.749,0,0,0,5.535-1.531c3.5-2.11,1.48-7.657-1.788-8.779-1.731-.6-2.475,2.146-.755,2.737a2.668,2.668,0,0,1,1.484,2.258c.127,1.215-.533,1.469-1.564,1.809a15.6,15.6,0,0,1-4.915.693c-2.1.032-4.194.092-6.291.167-4.315.155-8.626.379-12.939.568-2.162.095-4.325.18-6.489.244a50.66,50.66,0,0,1-6.237.095c-1.091-.105-3.027-.561-3.28-1.821-.153-.763,0-2.4.927-2.619,1.776-.425,1.025-3.163-.754-2.737" transform="translate(-338.983 -287.155)"/>
        <path id="Path_45" data-name="Path 45" d="M546.425,744.211a142.756,142.756,0,0,0-4.884-26.17q-1.831-6.4-4.245-12.6c-1.222-3.147-2.581-6.607-5.616-8.439a5.414,5.414,0,0,0-7,.881c-1.09,1.22-2.2,3.057-1.893,4.747.321,1.765,1.76,3.147,3.127,4.189a17.9,17.9,0,0,0,20.28.439c2.525-1.758,4.776-4.378,5.282-7.5.41-2.529-.1-5.942-2.874-6.9-2.472-.858-6.831.263-7.505,3.113-.7,2.954,1.5,6.461,3.7,8.218a16.321,16.321,0,0,0,10.1,3.311c3.177.058,6.586.441,9.67-.525a6.014,6.014,0,0,0,3.331-2.2,5.376,5.376,0,0,0,.474-3.757c-.507-3.065-2.3-5.354-5.445-5.871-3.578-.589-6.17,2.284-7.547,5.284a28.374,28.374,0,0,0-2.079,9.125c-.919,9.142-1.432,18.332-1.6,27.518q-.065,3.506-.06,7.012a1.42,1.42,0,0,0,2.839,0q-.01-11.224.688-22.434.353-5.606.887-11.2A32.735,32.735,0,0,1,557.393,703c.662-1.959,2.3-5.375,4.807-5.119a3.147,3.147,0,0,1,2.59,1.406,6.2,6.2,0,0,1,.877,2.875,1.514,1.514,0,0,1-.921,1.673,8.237,8.237,0,0,1-3.437.839,50.4,50.4,0,0,1-8.008-.08,11.9,11.9,0,0,1-7.744-3.576,7.4,7.4,0,0,1-1.481-2.827c-.335-1.138-.428-1.829.749-2.34a4.324,4.324,0,0,1,2.908-.31c.856.372,1.016,1.618,1.041,2.428a7.873,7.873,0,0,1-2.851,5.9c-4.194,3.866-10.833,4.431-15.919,2.105a11.447,11.447,0,0,1-3.4-2.294c-.43-.435-1.074-1.077-1.044-1.749a4.489,4.489,0,0,1,.968-1.85c1.207-1.553,2.9-1.357,4.32-.206,2.6,2.117,3.641,6.049,4.748,9.075q2.086,5.707,3.689,11.575a138.452,138.452,0,0,1,4.3,23.689c.167,1.8,3.007,1.821,2.839,0" transform="translate(-338.434 -283.254)"/>
        <path id="Path_46" data-name="Path 46" d="M553.68,774.5a33.193,33.193,0,0,0,.083,10.923c.646,3.643,2.241,6.9,3.278,10.423,2.137,7.254-2.147,13.886-5.929,19.755-.992,1.539,1.464,2.964,2.452,1.432,3.8-5.892,7.981-12.59,6.7-19.919-.637-3.638-2.485-6.939-3.357-10.521a29.21,29.21,0,0,1-.487-11.339c.275-1.787-2.459-2.557-2.737-.755" transform="translate(-339.949 -287.608)"/>
      </g>
    </g>
  </g>
</svg>
